<?xml version="1.0" encoding="UTF-8"?>
<!-- Generator: Adobe Illustrator 16.0.0, SVG Export Plug-In . SVG Version: 6.00 Build 0)  -->
<!DOCTYPE svg PUBLIC "-//W3C//DTD SVG 1.1//EN" "http://www.w3.org/Graphics/SVG/1.1/DTD/svg11.dtd">
<svg version="1.1" id="Capa_1" xmlns="http://www.w3.org/2000/svg" xmlns:xlink="http://www.w3.org/1999/xlink" x="0px" y="0px" width="566.93px" height="566.929px" viewBox="0 0 566.93 566.929" enable-background="new 0 0 566.93 566.929" xml:space="preserve" wtx-context="3189AB0C-82F4-48E2-B734-2236D49A9DA6">
<g>
	<g>
		<path fill="#16213B" d="M69.217,231.464h22.744c22.161,0,40.726,9.429,40.726,34.603c0,22.258-18.176,34.213-38.685,34.213H69.217    V231.464z M84.38,286.284h7.873c14.093,0,24.688-5.347,24.688-20.995c0-13.511-10.789-19.828-23.619-19.828H84.38V286.284z"/>
		<path fill="#16213B" d="M205.289,295.42c-8.943,4.665-18.76,6.609-28.868,6.609c-21.48,0-37.129-14.094-37.129-36.157    s15.648-36.157,37.129-36.157c10.886,0,20.509,2.43,27.41,8.845l-10.692,11.664c-4.082-4.276-9.039-6.512-16.718-6.512    c-12.927,0-21.383,9.331-21.383,22.16c0,12.83,8.456,22.161,21.383,22.161c6.609,0,11.47-1.847,14.288-3.402v-11.178h-12.344    v-13.997h26.924V295.42z"/>
		<path fill="#16213B" d="M219.186,231.464h46.751v13.997h-31.589v12.83h29.84v13.997h-29.84v13.997h33.338v13.996h-48.5V231.464z"/>
		<path fill="#16213B" d="M324.834,249.349c-3.013-3.596-7.387-5.637-13.023-5.637c-11.47,0-19.926,9.331-19.926,22.16    c0,12.83,8.456,22.161,19.439,22.161c6.123,0,11.08-2.722,14.19-7.387l12.636,9.428c-5.734,8.165-15.455,11.956-24.883,11.956    c-21.48,0-37.129-14.094-37.129-36.157s15.648-36.157,37.129-36.157c7.679,0,17.398,2.624,23.23,10.108L324.834,249.349z"/>
		<path fill="#16213B" d="M346.216,231.464h15.163v68.815h-15.163V231.464z"/>
	</g>
	<path fill="#16213B" d="M71.084,332.846h10.642c17.879,0,18.607,14.673,18.607,17.2c0,2.526-0.729,17.199-18.607,17.199H71.084   V332.846z M74.291,364.33h6.607c9.135,0,16.228-4.421,16.228-14.284s-7.093-14.285-16.228-14.285h-6.607V364.33z"/>
	<path fill="#16213B" d="M107.727,333.721c1.214,0,2.186,0.971,2.186,2.186s-0.972,2.187-2.186,2.187   c-1.215,0-2.188-0.972-2.188-2.187S106.512,333.721,107.727,333.721z M106.269,344.798h2.915v22.447h-2.915V344.798z"/>
	<path fill="#16213B" d="M116.521,351.115c0-1.652-0.242-5.15-0.242-6.316h2.915c0.049,1.652,0.098,3.499,0.194,3.936   c1.458-2.625,3.79-4.519,7.143-4.519c0.582,0,1.117,0.098,1.699,0.243l-0.34,2.866c-0.438-0.145-0.825-0.194-1.117-0.194   c-5.053,0-7.337,3.499-7.337,7.872v12.243h-2.915V351.115z"/>
	<path fill="#16213B" d="M150.729,363.019c-2.283,3.401-5.733,4.809-9.717,4.809c-6.85,0-11.369-4.907-11.369-11.855   c0-6.704,4.664-11.757,11.224-11.757c6.899,0,10.543,5.296,10.543,10.495v2.041h-18.852c0,2.429,1.701,8.454,8.503,8.454   c2.964,0,6.073-1.555,7.53-3.984L150.729,363.019z M148.494,354.126c0-3.983-3.449-7.288-7.773-7.288   c-6.365,0-8.163,6.122-8.163,7.288H148.494z"/>
	<path fill="#16213B" d="M175.757,363.941c-2.187,2.624-5.053,3.887-8.26,3.887c-6.899,0-11.807-4.956-11.807-11.806   c0-6.851,4.907-11.807,11.807-11.807c3.255,0,6.17,1.41,8.356,3.887l-2.332,1.75c-1.7-1.846-3.692-3.013-6.024-3.013   c-5.49,0-8.892,4.13-8.892,9.183c0,5.053,3.401,9.183,8.892,9.183c2.43,0,4.519-1.264,6.024-3.11L175.757,363.941z"/>
	<path fill="#16213B" d="M198.209,363.941c-2.188,2.624-5.054,3.887-8.26,3.887c-6.899,0-11.807-4.956-11.807-11.806   c0-6.851,4.907-11.807,11.807-11.807c3.255,0,6.17,1.41,8.356,3.887l-2.332,1.75c-1.701-1.846-3.692-3.013-6.024-3.013   c-5.491,0-8.892,4.13-8.892,9.183c0,5.053,3.4,9.183,8.892,9.183c2.429,0,4.518-1.264,6.024-3.11L198.209,363.941z"/>
	<path fill="#16213B" d="M203.8,333.721c1.215,0,2.187,0.971,2.187,2.186s-0.972,2.187-2.187,2.187   c-1.214,0-2.187-0.972-2.187-2.187S202.586,333.721,203.8,333.721z M202.343,344.798h2.915v22.447h-2.915V344.798z"/>
	<path fill="#16213B" d="M223.14,344.215c6.898,0,11.806,4.956,11.806,11.807c0,6.85-4.907,11.806-11.806,11.806   c-6.899,0-11.807-4.956-11.807-11.806C211.333,349.171,216.24,344.215,223.14,344.215z M223.14,365.205   c5.49,0,8.891-4.13,8.891-9.183c0-5.053-3.4-9.183-8.891-9.183s-8.892,4.13-8.892,9.183   C214.248,361.075,217.649,365.205,223.14,365.205z M225.374,332.846h3.887l-6.511,6.997h-2.429L225.374,332.846z"/>
	<path fill="#16213B" d="M240.49,351.115c0-1.652-0.243-5.15-0.243-6.316h2.915c0.049,1.652,0.098,3.499,0.194,3.936h0.146   c1.165-2.478,4.032-4.519,7.676-4.519c6.996,0,8.551,4.762,8.551,9.668v13.361h-2.915V354.03c0-3.644-1.02-7.191-5.636-7.191   c-4.323,0-7.773,3.013-7.773,9.183v11.223h-2.915V351.115z"/>
	<path fill="#16213B" d="M307.449,365.01c-3.984,2.284-8.356,3.109-12.826,3.109c-10.494,0-17.782-7.579-17.782-18.073   c0-10.495,7.288-18.074,17.782-18.074c5.102,0,9.231,1.555,12.389,4.761l-2.332,2.43c-2.089-2.527-6.315-4.276-10.057-4.276   c-8.989,0-14.576,6.608-14.576,15.159c0,8.551,5.587,15.159,14.576,15.159c3.692,0,6.996-0.486,9.619-2.041v-11.563h-8.26v-2.916   h11.467V365.01z"/>
	<path fill="#16213B" d="M334.909,363.019c-2.283,3.401-5.733,4.809-9.717,4.809c-6.851,0-11.369-4.907-11.369-11.855   c0-6.704,4.664-11.757,11.223-11.757c6.899,0,10.543,5.296,10.543,10.495v2.041h-18.851c0,2.429,1.7,8.454,8.502,8.454   c2.965,0,6.074-1.555,7.531-3.984L334.909,363.019z M332.674,354.126c0-3.983-3.449-7.288-7.773-7.288   c-6.365,0-8.162,6.122-8.162,7.288H332.674z"/>
	<path fill="#16213B" d="M341.183,351.115c0-1.652-0.243-5.15-0.243-6.316h2.915c0.049,1.652,0.098,3.499,0.194,3.936h0.146   c1.166-2.478,4.032-4.519,7.676-4.519c6.996,0,8.551,4.762,8.551,9.668v13.361h-2.915V354.03c0-3.644-1.02-7.191-5.636-7.191   c-4.323,0-7.773,3.013-7.773,9.183v11.223h-2.915V351.115z"/>
	<path fill="#16213B" d="M387.053,363.019c-2.282,3.401-5.732,4.809-9.717,4.809c-6.85,0-11.369-4.907-11.369-11.855   c0-6.704,4.665-11.757,11.224-11.757c6.899,0,10.543,5.296,10.543,10.495v2.041h-18.852c0,2.429,1.701,8.454,8.503,8.454   c2.964,0,6.073-1.555,7.53-3.984L387.053,363.019z M384.818,354.126c0-3.983-3.449-7.288-7.773-7.288   c-6.365,0-8.163,6.122-8.163,7.288H384.818z"/>
	<path fill="#16213B" d="M393.278,351.115c0-1.652-0.243-5.15-0.243-6.316h2.915c0.049,1.652,0.098,3.499,0.194,3.936   c1.458-2.625,3.79-4.519,7.143-4.519c0.583,0,1.117,0.098,1.7,0.243l-0.34,2.866c-0.438-0.145-0.825-0.194-1.117-0.194   c-5.053,0-7.337,3.499-7.337,7.872v12.243h-2.915V351.115z"/>
	<path fill="#16213B" d="M425.931,357.82c0,4.372,0.098,6.85,0.438,9.425h-2.721c-0.194-1.117-0.292-2.38-0.292-3.644h-0.097   c-1.652,2.867-4.082,4.227-7.871,4.227c-3.838,0-7.92-1.895-7.92-6.655c0-6.851,8.017-7.531,12.438-7.531h3.4v-1.361   c0-3.887-2.72-5.442-6.315-5.442c-2.624,0-4.858,0.826-6.852,2.527l-1.699-1.992c2.137-2.041,5.636-3.158,8.551-3.158   c5.441,0,8.939,2.429,8.939,8.114V357.82z M420.101,355.973c-4.858,0-9.718,1.215-9.718,5.053c0,2.77,2.673,4.179,5.102,4.179   c6.22,0,7.822-3.984,7.822-7.726v-1.506H420.101z"/>
	<path fill="#16213B" d="M433.225,330.514h2.915v36.731h-2.915V330.514z"/>
	<path fill="#16213B" d="M474.818,363.31h-0.098c-1.798,3.11-5.636,4.518-8.988,4.518c-6.899,0-11.807-4.956-11.807-11.806   c0-6.851,4.907-11.807,11.807-11.807c3.353,0,7.19,1.41,8.988,4.519h0.098v-18.22h2.915v36.731h-2.915V363.31z M465.732,346.839   c-5.49,0-8.892,4.13-8.892,9.183c0,5.053,3.401,9.183,8.892,9.183c5.296,0,9.377-4.13,9.377-9.183   C475.109,350.969,471.028,346.839,465.732,346.839z"/>
	<path fill="#16213B" d="M503.781,363.019c-2.283,3.401-5.733,4.809-9.717,4.809c-6.851,0-11.369-4.907-11.369-11.855   c0-6.704,4.664-11.757,11.223-11.757c6.899,0,10.544,5.296,10.544,10.495v2.041H485.61c0,2.429,1.701,8.454,8.503,8.454   c2.964,0,6.073-1.555,7.53-3.984L503.781,363.019z M501.547,354.126c0-3.983-3.449-7.288-7.773-7.288   c-6.365,0-8.163,6.122-8.163,7.288H501.547z"/>
	<path fill="#16213B" d="M92.802,390.382c-1.506-1.797-3.692-2.817-6.51-2.817c-5.733,0-9.96,4.664-9.96,11.077   s4.227,11.077,9.717,11.077c3.061,0,5.539-1.36,7.094-3.692l6.315,4.713c-2.866,4.081-7.725,5.976-12.438,5.976   c-10.737,0-18.56-7.045-18.56-18.073c0-11.029,7.822-18.074,18.56-18.074c3.839,0,8.697,1.312,11.612,5.053L92.802,390.382z"/>
	<path fill="#16213B" d="M113.993,391.646c7.287,0,13.118,4.858,13.118,12.389c0,7.531-5.831,12.39-13.118,12.39   c-7.288,0-13.118-4.858-13.118-12.39C100.875,396.504,106.705,391.646,113.993,391.646z M113.993,410.011   c3.644,0,5.83-2.43,5.83-5.977c0-3.546-2.187-5.976-5.83-5.976c-3.645,0-5.83,2.43-5.83,5.976   C108.163,407.582,110.349,410.011,113.993,410.011z"/>
	<path fill="#16213B" d="M142.713,391.646c7.287,0,13.118,4.858,13.118,12.389c0,7.531-5.831,12.39-13.118,12.39   c-7.288,0-13.118-4.858-13.118-12.39C129.595,396.504,135.425,391.646,142.713,391.646z M142.713,410.011   c3.644,0,5.83-2.43,5.83-5.977c0-3.546-2.187-5.976-5.83-5.976c-3.645,0-5.83,2.43-5.83,5.976   C136.883,407.582,139.068,410.011,142.713,410.011z"/>
	<path fill="#16213B" d="M159.87,392.229h6.704v3.109h0.098c1.117-1.701,3.935-3.692,7.239-3.692   c6.996,0,11.611,5.053,11.611,12.195c0,6.559-4.081,12.583-10.786,12.583c-3.013,0-5.83-0.826-7.482-3.109h-0.097v13.604h-7.287   V392.229z M172.404,410.011c3.645,0,5.83-2.43,5.83-5.977c0-3.546-2.186-5.976-5.83-5.976c-3.644,0-5.83,2.43-5.83,5.976   C166.574,407.582,168.761,410.011,172.404,410.011z"/>
	<path fill="#16213B" d="M211.231,411.76c-2.333,2.964-6.171,4.664-9.96,4.664c-7.288,0-13.118-4.858-13.118-12.39   c0-7.53,5.83-12.389,13.118-12.389c6.802,0,11.077,4.858,11.077,12.389v2.283H195.44c0.584,2.771,2.673,4.567,5.49,4.567   c2.382,0,3.984-1.215,5.198-2.866L211.231,411.76z M205.061,401.363c0.049-2.429-1.847-4.47-4.47-4.47   c-3.206,0-4.956,2.186-5.15,4.47H205.061z"/>
	<path fill="#16213B" d="M215.853,392.229h7.288v3.79h0.097c1.555-2.867,3.595-4.373,6.803-4.373c0.825,0,1.748,0.049,2.429,0.243   v6.655c-1.021-0.291-2.041-0.485-3.109-0.485c-5.539,0-6.219,3.207-6.219,7.919v9.863h-7.288V392.229z"/>
	<path fill="#16213B" d="M249.526,412.877h-0.097c-1.604,2.526-4.52,3.547-7.482,3.547c-4.421,0-8.406-2.527-8.406-7.288   c0-8.162,9.912-8.308,15.985-8.308c0-2.575-2.138-4.227-4.664-4.227c-2.381,0-4.373,1.068-5.928,2.817l-3.887-3.984   c2.673-2.525,6.56-3.789,10.397-3.789c8.502,0,10.786,4.323,10.786,12.195v12h-6.705V412.877z M247.729,405.493   c-2.234,0-7.19,0.194-7.19,3.4c0,1.75,1.847,2.575,3.45,2.575c2.866,0,5.538-1.506,5.538-4.421v-1.555H247.729z"/>
	<path fill="#16213B" d="M275.865,399.856c-0.729-1.02-2.09-1.797-3.596-1.797c-3.644,0-5.831,2.43-5.831,5.976   c0,3.547,2.188,5.977,5.831,5.977c1.604,0,2.769-0.826,3.596-1.798l4.81,5.053c-2.284,2.332-5.637,3.158-8.405,3.158   c-7.288,0-13.118-4.858-13.118-12.39c0-7.53,5.83-12.389,13.118-12.389c2.769,0,6.121,0.826,8.405,3.158L275.865,399.856z"/>
	<path fill="#16213B" d="M286.121,380.568c2.332,0,4.228,1.895,4.228,4.227s-1.896,4.228-4.228,4.228s-4.227-1.896-4.227-4.228   S283.789,380.568,286.121,380.568z M282.477,392.229h7.288v23.612h-7.288V392.229z"/>
	<path fill="#16213B" d="M306.286,391.646c7.288,0,13.119,4.858,13.119,12.389c0,7.531-5.831,12.39-13.119,12.39   c-7.287,0-13.117-4.858-13.117-12.39C293.169,396.504,298.999,391.646,306.286,391.646z M306.286,410.011   c3.645,0,5.831-2.43,5.831-5.977c0-3.546-2.187-5.976-5.831-5.976c-3.644,0-5.829,2.43-5.829,5.976   C300.457,407.582,302.643,410.011,306.286,410.011z M306.335,381.442h9.912l-8.406,6.997h-6.413L306.335,381.442z"/>
	<path fill="#16213B" d="M322.763,392.229h6.997v3.206h0.097c0.972-1.846,3.353-3.789,6.899-3.789c7.385,0,8.745,4.858,8.745,11.175   v13.021h-7.287v-11.563c0-2.721-0.05-6.219-3.79-6.219c-3.79,0-4.373,2.964-4.373,6.024v11.758h-7.288V392.229z"/>
	<path fill="#16213B" d="M385.544,411.76c-2.332,2.964-6.17,4.664-9.959,4.664c-7.288,0-13.119-4.858-13.119-12.39   c0-7.53,5.831-12.389,13.119-12.389c6.802,0,11.077,4.858,11.077,12.389v2.283h-16.908c0.583,2.771,2.673,4.567,5.49,4.567   c2.381,0,3.984-1.215,5.199-2.866L385.544,411.76z M379.374,401.363c0.049-2.429-1.847-4.47-4.47-4.47   c-3.207,0-4.956,2.186-5.15,4.47H379.374z"/>
	<path fill="#16213B" d="M70.21,430.04h7.579v34.399H70.21V430.04z"/>
	<path fill="#16213B" d="M82.845,440.826h6.996v3.207h0.097c0.973-1.847,3.353-3.789,6.899-3.789c7.385,0,8.746,4.857,8.746,11.174   v13.021h-7.288v-11.564c0-2.72-0.049-6.219-3.79-6.219c-3.79,0-4.372,2.965-4.372,6.025v11.758h-7.288V440.826z"/>
	<path fill="#16213B" d="M125.897,446.656h-6.414v7.872c0,2.526,0.292,4.373,3.45,4.373c0.777,0,2.332-0.099,2.964-0.682v6.073   c-1.604,0.584-3.401,0.729-5.103,0.729c-4.857,0-8.599-1.991-8.599-7.142v-11.224h-4.665v-5.83h4.665v-6.996h7.287v6.996h6.414   V446.656z"/>
	<path fill="#16213B" d="M151.02,460.357c-2.332,2.964-6.17,4.664-9.959,4.664c-7.288,0-13.118-4.857-13.118-12.389   s5.83-12.389,13.118-12.389c6.802,0,11.076,4.857,11.076,12.389v2.283h-16.907c0.584,2.77,2.673,4.566,5.49,4.566   c2.381,0,3.984-1.215,5.198-2.865L151.02,460.357z M144.85,449.96c0.049-2.43-1.847-4.47-4.47-4.47c-3.206,0-4.956,2.186-5.15,4.47   H144.85z"/>
	<path fill="#16213B" d="M155.642,440.826h7.287v3.79h0.098c1.555-2.867,3.595-4.372,6.802-4.372c0.826,0,1.749,0.048,2.43,0.242   v6.656c-1.021-0.292-2.041-0.486-3.109-0.486c-5.539,0-6.22,3.207-6.22,7.92v9.863h-7.287V440.826z"/>
	<path fill="#16213B" d="M175.323,440.826h6.997v3.207h0.097c0.972-1.847,3.353-3.789,6.899-3.789c7.385,0,8.745,4.857,8.745,11.174   v13.021h-7.287v-11.564c0-2.72-0.05-6.219-3.79-6.219c-3.79,0-4.373,2.965-4.373,6.025v11.758h-7.288V440.826z"/>
	<path fill="#16213B" d="M217.112,461.475h-0.097c-1.604,2.525-4.519,3.546-7.482,3.546c-4.421,0-8.405-2.526-8.405-7.287   c0-8.162,9.912-8.309,15.984-8.309c0-2.575-2.138-4.227-4.664-4.227c-2.381,0-4.373,1.069-5.928,2.818l-3.887-3.984   c2.673-2.526,6.56-3.789,10.397-3.789c8.503,0,10.786,4.323,10.786,12.194v12.001h-6.705V461.475z M215.314,454.089   c-2.234,0-7.19,0.195-7.19,3.401c0,1.748,1.847,2.576,3.45,2.576c2.866,0,5.538-1.508,5.538-4.422v-1.556H215.314z"/>
	<path fill="#16213B" d="M243.452,448.454c-0.729-1.021-2.09-1.798-3.596-1.798c-3.644,0-5.831,2.43-5.831,5.977   s2.188,5.977,5.831,5.977c1.604,0,2.769-0.827,3.596-1.798l4.81,5.052c-2.284,2.333-5.637,3.158-8.405,3.158   c-7.288,0-13.118-4.857-13.118-12.389s5.83-12.389,13.118-12.389c2.769,0,6.121,0.825,8.405,3.157L243.452,448.454z"/>
	<path fill="#16213B" d="M253.708,429.166c2.332,0,4.228,1.895,4.228,4.227s-1.896,4.227-4.228,4.227s-4.227-1.895-4.227-4.227   S251.376,429.166,253.708,429.166z M250.064,440.826h7.287v23.613h-7.287V440.826z"/>
	<path fill="#16213B" d="M273.922,440.244c7.288,0,13.118,4.857,13.118,12.389s-5.83,12.389-13.118,12.389   s-13.117-4.857-13.117-12.389S266.634,440.244,273.922,440.244z M273.922,458.609c3.644,0,5.831-2.43,5.831-5.977   s-2.188-5.977-5.831-5.977s-5.83,2.43-5.83,5.977S270.278,458.609,273.922,458.609z"/>
	<path fill="#16213B" d="M290.398,440.826h6.996v3.207h0.097c0.973-1.847,3.353-3.789,6.899-3.789c7.385,0,8.746,4.857,8.746,11.174   v13.021h-7.288v-11.564c0-2.72-0.049-6.219-3.79-6.219c-3.79,0-4.372,2.965-4.372,6.025v11.758h-7.288V440.826z"/>
	<path fill="#16213B" d="M332.188,461.475h-0.097c-1.604,2.525-4.52,3.546-7.482,3.546c-4.421,0-8.406-2.526-8.406-7.287   c0-8.162,9.912-8.309,15.985-8.309c0-2.575-2.138-4.227-4.664-4.227c-2.381,0-4.373,1.069-5.928,2.818l-3.887-3.984   c2.673-2.526,6.56-3.789,10.397-3.789c8.502,0,10.786,4.323,10.786,12.194v12.001h-6.705V461.475z M330.39,454.089   c-2.234,0-7.19,0.195-7.19,3.401c0,1.748,1.847,2.576,3.45,2.576c2.866,0,5.538-1.508,5.538-4.422v-1.556H330.39z"/>
	<path fill="#16213B" d="M342.639,427.708h7.288v36.731h-7.288V427.708z"/>
	<path fill="#16213B" d="M357.945,429.166c2.332,0,4.228,1.895,4.228,4.227s-1.896,4.227-4.228,4.227s-4.227-1.895-4.227-4.227   S355.613,429.166,357.945,429.166z M354.302,440.826h7.288v23.613h-7.288V440.826z"/>
	<path fill="#16213B" d="M364.944,457.151l12.244-10.495h-11.953v-5.83h20.406v6.997l-12.826,10.786h13.118v5.83h-20.989V457.151z"/>
	<path fill="#16213B" d="M404.061,461.475h-0.097c-1.604,2.525-4.519,3.546-7.482,3.546c-4.421,0-8.405-2.526-8.405-7.287   c0-8.162,9.912-8.309,15.984-8.309c0-2.575-2.138-4.227-4.664-4.227c-2.381,0-4.373,1.069-5.928,2.818l-3.887-3.984   c2.673-2.526,6.56-3.789,10.397-3.789c8.502,0,10.786,4.323,10.786,12.194v12.001h-6.705V461.475z M402.263,454.089   c-2.234,0-7.19,0.195-7.19,3.401c0,1.748,1.847,2.576,3.45,2.576c2.866,0,5.538-1.508,5.538-4.422v-1.556H402.263z"/>
	<path fill="#16213B" d="M430.4,448.454c-0.729-1.021-2.09-1.798-3.596-1.798c-3.644,0-5.831,2.43-5.831,5.977   s2.188,5.977,5.831,5.977c1.604,0,2.769-0.827,3.596-1.798l4.81,5.052c-2.284,2.333-5.637,3.158-8.405,3.158   c-7.288,0-13.118-4.857-13.118-12.389s5.83-12.389,13.118-12.389c2.769,0,6.121,0.825,8.405,3.157L430.4,448.454z"/>
	<path fill="#16213B" d="M440.607,429.166c2.332,0,4.228,1.895,4.228,4.227s-1.896,4.227-4.228,4.227s-4.227-1.895-4.227-4.227   S438.275,429.166,440.607,429.166z M436.964,440.826h7.287v23.613h-7.287V440.826z"/>
	<path fill="#16213B" d="M460.821,440.244c7.288,0,13.119,4.857,13.119,12.389s-5.831,12.389-13.119,12.389   c-7.287,0-13.117-4.857-13.117-12.389S453.534,440.244,460.821,440.244z M460.821,458.609c3.645,0,5.831-2.43,5.831-5.977   s-2.187-5.977-5.831-5.977c-3.644,0-5.829,2.43-5.829,5.977S457.178,458.609,460.821,458.609z M460.87,430.04h9.912l-8.406,6.997   h-6.413L460.87,430.04z"/>
	<path fill="#16213B" d="M477.298,440.826h6.997v3.207h0.097c0.972-1.847,3.353-3.789,6.899-3.789c7.385,0,8.745,4.857,8.745,11.174   v13.021h-7.287v-11.564c0-2.72-0.05-6.219-3.79-6.219c-3.79,0-4.373,2.965-4.373,6.025v11.758h-7.288V440.826z"/>
	<g>
		<path fill="#B58418" d="M121.068,531.503c0,8.585-1.457,14.577-5.911,18.869c-4.374,4.131-11.338,6.237-19.842,6.237    c-8.585,0-15.549-1.864-19.599-6.316c-4.292-4.698-5.183-10.448-5.183-18.87v-33.445h17.088v33.04    c0,2.835,0.243,5.508,1.053,7.127c1.215,2.512,3.32,3.725,6.965,3.725c3.563,0,5.912-1.134,7.126-3.481    c0.972-1.862,1.215-4.292,1.215-7.37v-33.04h17.088V531.503z"/>
	</g>
	<g>
		<path fill="#AA711D" d="M140.188,497.978c8.504,15.547,12.958,23.969,16.926,32.392c-0.405-6.479-0.567-12.146-0.567-32.392    h17.411v57.174h-19.112c-8.179-14.659-13.038-23.729-17.168-31.907c0.243,5.345,0.324,11.984,0.324,31.907H120.59v-57.174H140.188    z"/>
	</g>
	<g>
		<path fill="#B58418" d="M212.432,555.152l-2.833-9.231h-18.141l-2.835,9.231h-18.95l20.975-57.174h21.057l20.003,57.174H212.432z     M206.278,533.368c-2.431-8.18-4.05-14.011-5.589-20.003c-1.7,5.992-3.401,11.904-5.992,20.003H206.278z"/>
	</g>
	<g>
		<path fill="#AA711D" d="M278.361,555.152c0-19.68,0.08-27.616,0.485-39.115c-1.863,7.208-3.806,14.981-10.447,39.115h-14.334    c-5.021-17.816-7.612-28.102-10.365-39.521c0.161,7.127,0.404,13.849,0.404,39.521h-16.683v-57.174h24.861    c5.103,18.706,7.694,29.478,9.232,36.685c1.297-6.964,3.239-15.792,8.908-36.685h24.62v57.174H278.361z"/>
	</g>
	<g>
		<path fill="#B58418" d="M307.936,566.929c-6.032,0-10.762-4.588-10.762-10.507c0-5.833,4.673-10.478,10.591-10.478    c5.807,0,10.451,4.587,10.451,10.336C318.216,562.341,313.741,566.929,307.936,566.929z M307.794,547.757    c-4.843,0-8.609,3.823-8.609,8.665c0,4.815,3.88,8.723,8.666,8.723c4.645,0,8.354-3.822,8.354-8.609    C316.205,551.551,312.608,547.757,307.794,547.757z M309.464,562.115l-2.123-4.078h-0.793v4.078h-3.483v-11.639h4.984    c1.954,0,2.888,0.227,3.653,0.793c0.906,0.65,1.303,1.642,1.303,2.859c0,1.643-0.709,2.805-2.266,3.371l2.775,4.615H309.464z     M307.765,555.432c0.369,0,0.822-0.029,1.133-0.171c0.34-0.17,0.566-0.453,0.566-0.962c0-0.453-0.169-0.878-0.622-1.049    c-0.255-0.084-0.595-0.113-1.077-0.113h-1.16v2.295H307.765z"/>
	</g>
	<g>
		<path fill="#B58418" d="M272.287,93.571c7.758-9.37,0.574-18.331-16.026-20.016c-16.594-1.686-36.33,4.545-44.08,13.919    c-7.748,9.368-0.572,18.33,16.02,20.013C244.797,109.172,264.533,102.938,272.287,93.571"/>
	</g>
	<polygon fill="#B58418" points="62.468,157.321 74.475,166.706 198.559,108.301 189.785,103.167  "/>
	<polygon fill="#B58418" points="204.581,111.878 213.6,117.103 100.299,179.516 84.038,172.256  "/>
	<g>
		<path fill="#16213B" d="M112.911,135.865l21.683-9.223c-11.6-12.927-11.708-29.662,2.457-46.796    c27.124-32.799,96.192-54.607,154.299-48.709c19.168,1.946,34.714,6.676,46.003,13.302l20.378-9.874    c-13.71-8.049-32.588-13.792-55.857-16.153c-70.556-7.162-154.427,19.316-187.357,59.146    C96.763,99.026,97.467,119.977,112.911,135.865"/>
	</g>
	<g>
		<path fill="#16213B" d="M302.377,132.418c-24.426,11.848-70.327,21.442-109.251,17.489c-10.727-1.09-20.321-3.054-28.677-5.728    l-19.268,10.614c10.74,3.696,84.424,20.951,171.351-20.941L302.377,132.418z"/>
	</g>
	<g>
		<path fill="#16213B" d="M321.473,143.575c-33.838,16.434-92.328,28.375-142.374,23.295c-15.31-1.556-28.805-4.502-40.333-8.544    l-19.253,10.608c13.874,5.077,103.405,30.37,215.444-23.914L321.473,143.575z"/>
	</g>
	<g>
		<path fill="#16213B" d="M84.084,148.126l21.622-9.197c-16.733-16.865-17.648-39.226,1.296-62.134    c34.872-42.171,123.667-70.208,198.381-62.627c24.635,2.501,44.619,8.581,59.143,17.104l20.38-9.874    c-16.941-9.94-40.256-17.038-68.998-19.956C228.745-7.401,125.142,25.308,84.464,74.506    C61.937,101.748,63.466,128.321,84.084,148.126"/>
	</g>
	<g>
		<path fill="#16213B" d="M340.705,154.559c-46.065,21.297-114.469,35.491-175.638,29.283c-19.891-2.024-37.316-5.945-51.972-11.375    l-12.783,7.046c16.206,6.126,127.825,37.595,254.068-23.566L340.705,154.559z"/>
	</g>
</g>
</svg>