<?xml version="1.0" standalone="no"?>
<!DOCTYPE svg PUBLIC "-//W3C//DTD SVG 20010904//EN"
 "http://www.w3.org/TR/2001/REC-SVG-20010904/DTD/svg10.dtd">
<svg version="1.0" xmlns="http://www.w3.org/2000/svg"
 width="471.000000pt" height="468.000000pt" viewBox="0 0 471.000000 468.000000"
 preserveAspectRatio="xMidYMid meet">

<g transform="translate(0.000000,468.000000) scale(0.100000,-0.100000)"
fill="#000000" stroke="none">
<path d="M1680 4637 l0 -44 -55 5 c-50 4 -57 2 -85 -26 -26 -26 -30 -38 -30
-82 0 -62 20 -104 57 -118 15 -6 63 -11 106 -11 l77 0 0 160 0 159 -35 0 c-35
0 -35 0 -35 -43z m-16 -113 c33 -32 8 -104 -36 -104 -24 0 -58 35 -58 60 0 25
34 60 59 60 11 0 27 -7 35 -16z"/>
<path d="M2190 4630 c0 -47 -1 -50 -19 -40 -69 36 -161 -27 -161 -111 0 -70
70 -127 138 -113 21 4 52 6 70 5 l32 -3 0 156 0 156 -30 0 c-29 0 -30 -1 -30
-50z m-22 -106 c12 -8 22 -26 22 -40 0 -27 -32 -64 -55 -64 -23 0 -55 37 -55
64 0 24 32 56 55 56 6 0 21 -7 33 -16z"/>
<path d="M3744 4665 c-10 -25 4 -45 31 -45 21 0 25 5 25 30 0 25 -4 30 -25 30
-14 0 -28 -7 -31 -15z"/>
<path d="M4106 4665 c-9 -24 4 -45 29 -45 13 0 25 7 29 15 9 24 -4 45 -29 45
-13 0 -25 -7 -29 -15z"/>
<path d="M2816 4648 c-3 -13 -6 -83 -6 -155 l0 -133 30 0 30 0 0 78 1 77 33
-75 c30 -67 36 -75 61 -75 24 0 30 8 58 75 l32 75 3 -77 3 -78 29 0 30 0 0 89
c0 48 -3 116 -6 150 -7 62 -7 62 -38 59 -28 -3 -33 -10 -71 -94 l-41 -92 -38
99 c-38 97 -40 99 -71 99 -25 0 -34 -5 -39 -22z"/>
<path d="M3610 4626 l0 -44 -35 9 c-109 30 -181 -116 -96 -193 28 -25 37 -27
111 -26 l80 0 0 149 0 149 -30 0 c-29 0 -30 -2 -30 -44z m-22 -102 c40 -28 22
-94 -26 -94 -35 0 -52 17 -52 51 0 24 30 59 50 59 3 0 16 -7 28 -16z"/>
<path d="M0 4505 l0 -155 30 0 30 0 0 65 0 65 45 0 c45 0 45 0 45 35 0 35 0
35 -45 35 -38 0 -45 3 -45 20 0 17 7 20 45 20 45 0 45 0 45 35 l0 35 -75 0
-75 0 0 -155z"/>
<path d="M990 4510 l0 -150 30 0 30 0 0 150 0 150 -30 0 -30 0 0 -150z"/>
<path d="M1110 4610 c0 -29 -4 -40 -15 -40 -9 0 -15 -9 -15 -25 0 -16 6 -25
15 -25 12 0 15 -16 15 -85 l0 -85 30 0 30 0 0 85 c0 78 2 85 20 85 15 0 20 7
20 25 0 18 -5 25 -20 25 -17 0 -20 7 -20 40 0 38 -2 40 -30 40 -28 0 -30 -2
-30 -40z"/>
<path d="M3222 4593 c-71 -35 -83 -141 -23 -195 26 -23 40 -28 85 -28 39 0 60
6 80 21 33 26 33 33 -1 48 -18 8 -29 9 -37 1 -23 -23 -96 -6 -96 22 0 4 41 8
91 8 l91 0 -7 33 c-11 48 -23 66 -58 87 -39 24 -81 25 -125 3z m98 -58 c11
-13 6 -15 -34 -15 -25 0 -46 4 -46 9 0 23 62 27 80 6z"/>
<path d="M3740 4485 l0 -125 30 0 30 0 0 125 0 125 -30 0 -30 0 0 -125z"/>
<path d="M3893 4595 c-61 -26 -85 -134 -43 -188 39 -49 138 -60 181 -21 24 22
24 36 0 51 -16 10 -26 9 -51 -3 -28 -14 -33 -14 -56 1 -32 21 -39 40 -25 71
15 34 49 45 84 27 25 -13 31 -12 53 2 21 14 23 19 13 31 -35 42 -99 54 -156
29z"/>
<path d="M4100 4485 l0 -125 35 0 35 0 0 125 0 125 -35 0 -35 0 0 -125z"/>
<path d="M4268 4603 l-48 -4 0 -120 0 -119 35 0 35 0 0 79 c0 59 4 84 16 95 8
9 17 16 19 16 2 0 11 -7 19 -16 12 -11 16 -36 16 -95 l0 -79 30 0 30 0 0 100
c0 94 -2 103 -25 125 -15 16 -34 24 -52 23 -15 -1 -49 -3 -75 -5z"/>
<path d="M4508 4581 c-30 -27 -33 -34 -33 -90 0 -55 3 -64 32 -93 25 -25 40
-31 70 -30 21 0 59 1 86 1 l47 1 0 120 0 120 -30 0 c-16 0 -30 -5 -30 -10 0
-7 -6 -7 -19 0 -38 20 -89 12 -123 -19z m122 -51 c37 -37 14 -100 -36 -100
-49 0 -72 64 -37 102 21 24 48 23 73 -2z"/>
<path d="M223 4581 c-41 -26 -53 -49 -53 -106 0 -82 37 -124 111 -125 25 0 50
5 57 12 9 9 12 9 12 0 0 -7 14 -12 35 -12 l35 0 0 121 0 120 -47 -1 c-27 0
-64 2 -83 5 -25 4 -44 0 -67 -14z m109 -68 c48 -43 -14 -131 -68 -95 -48 32
-31 112 24 112 14 0 34 -7 44 -17z"/>
<path d="M1268 4571 c-31 -27 -33 -34 -33 -91 0 -57 2 -64 33 -91 25 -22 42
-29 75 -29 24 0 48 5 55 12 9 9 12 9 12 0 0 -7 13 -12 30 -12 l30 0 0 120 0
120 -30 0 c-16 0 -30 -5 -30 -10 0 -7 -6 -7 -19 0 -38 20 -89 12 -123 -19z
m122 -51 c11 -11 20 -28 20 -38 0 -28 -29 -62 -52 -62 -50 0 -76 64 -41 102
21 24 48 23 73 -2z"/>
<path d="M502 4573 c-69 -34 -83 -120 -29 -179 28 -31 41 -37 83 -41 35 -3 59
1 83 14 44 23 48 36 17 56 -23 16 -27 15 -55 -1 -28 -15 -33 -16 -58 -2 -38
21 -44 71 -11 94 27 19 51 20 77 4 15 -9 25 -9 45 0 34 15 33 28 -6 52 -40 24
-101 25 -146 3z"/>
<path d="M721 4518 c1 -126 28 -168 111 -168 25 0 46 8 65 24 26 23 28 29 31
120 l4 96 -36 0 -36 0 0 -80 c0 -68 -3 -81 -19 -90 -35 -18 -51 12 -51 96 l0
74 -35 0 -35 0 1 -72z"/>
<path d="M2341 4576 c-69 -38 -67 -162 4 -194 46 -21 120 -15 152 12 l28 24
-27 12 c-21 10 -33 10 -56 1 -20 -8 -36 -9 -55 -2 -51 20 -29 31 58 31 l85 0
0 31 c0 41 -15 66 -50 84 -36 18 -107 19 -139 1z m105 -51 c17 -13 15 -14 -36
-14 -51 0 -53 1 -36 14 11 8 27 15 36 15 9 0 25 -7 36 -15z"/>
<path d="M0 4190 l0 -60 2355 0 2355 0 0 60 0 60 -2355 0 -2355 0 0 -60z"/>
<path d="M2830 3928 l-11 -33 -15 28 c-20 36 -38 34 -70 -8 -35 -46 -43 -114
-19 -151 l17 -27 -43 6 c-24 3 -61 19 -86 36 l-44 31 -9 -26 c-23 -59 1 -134
42 -134 6 0 9 -2 6 -5 -3 -3 -35 1 -71 9 -77 16 -81 12 -48 -61 21 -45 53 -67
115 -79 l39 -7 -28 -15 c-16 -8 -63 -17 -104 -21 -62 -5 -76 -9 -79 -24 -6
-32 44 -71 113 -88 20 -5 2 -7 -58 -8 -68 -1 -89 -4 -93 -16 -4 -10 -20 -15
-49 -15 -23 0 -62 -3 -87 -6 l-45 -6 19 -92 c44 -219 36 -196 72 -196 31 0 36
6 113 133 64 105 85 133 105 135 23 3 25 -2 52 -125 55 -247 56 -247 151 -68
37 69 65 132 62 139 -3 8 5 18 19 24 21 10 25 8 39 -17 8 -16 22 -31 30 -35
30 -11 78 -6 96 10 16 15 20 15 41 0 63 -44 210 9 237 86 6 17 10 33 8 35 -2
1 -29 -4 -61 -12 -79 -21 -100 -19 -135 10 -32 28 -44 55 -66 160 -15 74 -14
85 9 66 19 -16 158 -31 287 -31 l107 0 31 35 c23 27 31 45 31 75 0 49 -26 69
-126 99 -39 12 -83 30 -97 41 -14 11 -33 20 -43 20 -9 0 -14 3 -10 7 3 4 -13
14 -36 23 -31 11 -48 25 -60 50 -37 74 -89 90 -124 39 l-22 -31 -40 36 c-22
20 -42 36 -45 36 -3 0 -10 -15 -17 -32z m200 -70 c0 -10 11 -29 25 -42 29 -27
31 -36 8 -36 -20 0 -93 49 -93 62 0 5 7 20 16 34 13 19 20 22 30 13 8 -6 14
-20 14 -31z m-129 -36 c-6 -11 -11 -32 -11 -46 0 -20 -9 -30 -40 -46 -35 -18
-40 -18 -40 -5 0 9 -14 28 -31 42 -25 21 -30 32 -27 61 4 45 22 51 38 13 17
-42 52 -64 75 -47 15 11 16 16 5 35 -6 12 -9 30 -5 39 5 14 8 13 26 -5 17 -17
19 -24 10 -41z m65 -60 c-9 -9 -37 8 -31 18 5 8 11 7 21 -1 8 -6 12 -14 10
-17z m339 -67 c57 -21 91 -38 93 -49 3 -14 0 -14 -35 0 -21 9 -81 19 -135 21
l-97 6 -6 -26 c-8 -31 -1 -45 29 -58 14 -6 2 -7 -39 -3 -75 7 -97 13 -93 25 7
21 163 127 178 121 8 -3 56 -20 105 -37z m-646 3 c19 -5 59 -7 88 -3 l55 7
-18 -27 c-9 -14 -23 -24 -29 -21 -7 2 -40 10 -74 17 -37 7 -67 19 -78 32 -17
20 -17 20 2 13 11 -5 35 -13 54 -18z m317 7 c-11 -8 -22 -12 -25 -9 -6 6 19
24 34 24 6 -1 1 -7 -9 -15z m-84 -41 c-5 -8 -27 -24 -50 -34 l-42 -19 16 24
c19 29 78 68 82 55 2 -5 -1 -17 -6 -26z m74 -81 c-2 -3 -9 -2 -15 2 -8 4 -7
13 1 28 l13 22 3 -23 c2 -13 1 -26 -2 -29z m377 21 c9 -3 17 -12 17 -20 0 -16
-16 -19 -25 -4 -3 5 -27 16 -53 25 l-47 15 45 -6 c25 -3 53 -8 63 -10z m-603
-14 c0 -34 -141 -44 -180 -12 -22 18 -20 18 79 19 55 0 101 -3 101 -7z m146
-29 c-6 -2 -21 -13 -33 -24 -18 -16 -25 -18 -38 -7 -19 16 -12 26 33 49 34 18
38 18 43 3 4 -10 1 -19 -5 -21z m-119 -52 c26 -26 -120 -109 -191 -109 -60 0
-59 16 1 33 32 9 83 32 113 51 62 40 62 40 77 25z m148 -64 c21 -19 44 -51 51
-70 12 -36 12 -36 -9 -22 -12 7 -32 33 -45 58 -26 51 -54 55 -85 13 -11 -13
-28 -29 -40 -36 -18 -9 -17 -6 6 21 15 18 27 37 27 42 0 8 33 27 51 28 4 1 24
-15 44 -34z m-35 -89 c7 -13 27 -32 46 -42 27 -15 31 -21 23 -36 -13 -24 -42
-38 -58 -29 -14 9 -43 131 -31 131 3 0 12 -11 20 -24z m-76 -27 c-28 -31 -92
-61 -122 -57 -22 2 -17 7 33 25 33 12 69 29 80 37 28 21 31 20 9 -5z m286 -70
c21 -6 18 -7 -16 -8 -26 -1 -46 5 -55 15 -11 13 -9 14 17 8 16 -4 40 -11 54
-15z"/>
<path d="M1770 3900 c-66 -16 -132 -50 -137 -69 -3 -11 -10 -18 -17 -15 -14 6
-219 -61 -258 -84 -32 -19 -46 -69 -28 -102 16 -29 80 -100 91 -100 5 0 9 7 9
16 0 10 6 14 14 11 41 -16 142 -29 194 -25 52 4 60 2 76 -20 16 -20 18 -36 13
-92 -4 -45 -2 -71 6 -79 9 -9 8 -11 -5 -6 -10 4 -48 -12 -100 -41 -103 -59
-118 -71 -118 -100 0 -21 7 -23 104 -35 91 -11 103 -15 94 -28 -7 -12 2 -36
37 -96 58 -98 72 -115 100 -115 58 0 59 52 0 150 -49 82 -53 95 -30 104 16 6
33 -17 95 -127 24 -43 31 -66 28 -92 -2 -19 -2 -35 1 -35 19 0 101 46 101 58
0 7 -11 64 -25 125 -14 62 -27 122 -30 134 -4 16 2 23 25 32 17 5 30 7 30 3 0
-9 137 -166 149 -170 13 -4 -28 189 -45 216 -9 14 -25 27 -35 29 -18 5 -19 7
-4 23 10 11 12 20 7 24 -6 3 -8 15 -5 26 3 11 -2 31 -11 45 -9 13 -16 42 -16
63 0 57 -27 138 -53 159 -12 10 -21 26 -19 36 2 10 -7 26 -21 37 -14 11 -36
39 -50 62 -14 24 -33 51 -43 60 -24 21 -79 29 -124 18z m80 -50 c10 -5 32 -34
50 -64 17 -30 36 -57 43 -59 7 -3 -9 -25 -40 -54 -28 -26 -56 -58 -62 -69 -6
-12 -14 -72 -17 -133 -7 -106 -8 -112 -28 -109 -19 3 -21 9 -21 78 0 41 -3 80
-7 86 -4 6 -2 24 4 40 12 32 6 48 -62 174 -16 30 -30 58 -30 62 0 9 54 38 90
49 36 11 59 10 80 -1z m-220 -162 c22 -40 40 -80 40 -89 0 -20 -38 -29 -83
-20 l-32 7 27 7 c39 10 48 50 17 83 -19 20 -32 24 -85 24 -58 0 -64 -2 -92
-34 -25 -29 -32 -33 -42 -21 -26 32 -7 48 95 81 55 18 103 32 107 33 4 1 25
-32 48 -71z m-80 -38 c18 -11 19 -10 -56 -42 -57 -24 -61 -24 -56 -6 11 42 76
71 112 48z m468 -49 c21 -68 16 -97 -20 -119 -18 -11 -48 -23 -65 -27 -32 -6
-33 -6 -33 30 0 50 21 96 59 128 18 15 36 27 40 27 4 0 13 -17 19 -39z m42
-189 c0 -22 -30 -42 -79 -50 -30 -6 -61 -8 -68 -5 -26 10 -12 21 35 27 26 4
58 13 72 21 29 16 40 18 40 7z m-127 -109 c-13 -2 -33 -2 -45 0 -13 2 -3 4 22
4 25 0 35 -2 23 -4z m-168 -28 c22 -8 78 -14 125 -15 l85 -1 -73 -29 c-61 -25
-87 -30 -155 -30 -45 0 -99 3 -120 6 l-38 7 63 38 c35 21 65 38 68 38 3 1 23
-6 45 -14z"/>
<path d="M1747 3802 c-37 -40 -7 -102 49 -102 27 0 54 30 54 62 0 51 -69 78
-103 40z"/>
<path d="M3661 3609 c-136 -23 -168 -75 -100 -161 15 -18 20 -34 15 -52 -7
-28 -90 -95 -178 -146 -32 -17 -58 -33 -58 -35 0 -2 23 -18 51 -36 28 -18 62
-49 75 -69 l25 -37 362 150 c418 173 457 190 457 197 0 7 -105 73 -157 99 -70
35 -185 70 -284 86 -103 16 -128 17 -208 4z m294 -68 c81 -21 255 -98 255
-112 0 -4 -21 -15 -46 -25 -46 -17 -46 -17 -100 9 -63 31 -74 33 -74 11 0 -14
-3 -14 -16 -3 -13 10 -17 10 -24 -2 -7 -10 0 -20 28 -36 20 -13 41 -23 46 -23
5 0 7 -3 4 -6 -3 -3 -29 6 -57 21 -57 28 -89 24 -50 -7 l24 -19 -26 12 c-22 9
-26 17 -27 56 -1 79 -53 127 -129 120 -86 -9 -120 -60 -63 -94 17 -9 30 -23
30 -31 0 -31 -117 -163 -199 -224 l-35 -26 -32 25 -33 25 57 38 c77 52 132
106 134 133 3 46 -4 73 -27 103 -14 18 -20 36 -16 43 28 44 230 51 376 12z
m-126 -77 c24 -30 27 -72 9 -96 -7 -9 -46 -37 -86 -62 l-72 -46 44 54 c24 30
47 64 51 76 7 23 -11 80 -26 80 -5 0 -9 5 -9 10 0 6 15 10 34 10 25 0 40 -7
55 -26z m236 -92 c-3 -3 -11 0 -18 7 -9 10 -8 11 6 5 10 -3 15 -9 12 -12z
m-130 -60 c-3 -3 -11 0 -18 7 -9 10 -8 11 6 5 10 -3 15 -9 12 -12z"/>
<path d="M814 3596 c-150 -29 -256 -69 -362 -138 -34 -22 -61 -45 -59 -51 2
-8 780 -337 798 -337 4 0 24 17 45 38 22 20 56 52 78 70 21 18 35 36 31 40 -4
4 -48 32 -98 62 -68 41 -97 65 -112 92 l-19 36 27 39 c31 45 35 93 10 115 -44
39 -221 56 -339 34z m237 -46 c76 -15 85 -27 54 -70 -33 -44 -34 -104 -2 -151
12 -19 56 -54 96 -79 l73 -44 -33 -27 c-33 -27 -35 -27 -63 -11 -47 27 -159
145 -186 196 l-25 47 21 17 c54 43 20 102 -58 102 -100 0 -158 -93 -113 -180
15 -29 73 -80 135 -120 43 -27 37 -25 -120 40 -149 62 -147 60 -126 72 22 12
20 45 -3 58 -25 13 -54 -13 -46 -41 5 -16 -6 -13 -85 19 -104 43 -104 41 16
98 62 29 180 65 254 77 50 8 159 7 211 -3z m-107 -66 c14 -5 13 -9 -4 -31 -29
-37 -25 -62 20 -132 43 -67 42 -67 -34 -13 -65 48 -87 85 -74 124 9 24 42 50
75 58 1 0 8 -3 17 -6z"/>
<path d="M575 3457 c-35 -26 -1 -86 40 -71 25 10 31 55 10 71 -11 7 -22 13
-25 13 -3 0 -14 -6 -25 -13z m35 -27 c0 -5 -4 -10 -10 -10 -5 0 -10 5 -10 10
0 6 5 10 10 10 6 0 10 -4 10 -10z"/>
<path d="M4342 3392 c-10 -7 -9 -17 3 -53 9 -24 22 -70 30 -102 21 -90 3 -74
-106 93 l-16 25 -37 -20 c-20 -11 -36 -20 -36 -20 0 0 8 -25 19 -55 21 -61 35
-130 27 -130 -3 0 -27 36 -52 80 -49 83 -50 85 -72 71 -11 -7 -10 -17 9 -52
35 -69 96 -156 116 -163 44 -17 52 56 18 183 -7 28 -12 51 -10 51 2 0 14 -19
28 -42 42 -72 107 -139 131 -136 31 4 33 90 4 192 -23 80 -32 93 -56 78z"/>
<path d="M319 3322 c-36 -39 -76 -108 -69 -115 3 -3 14 -7 25 -10 16 -5 25 3
44 44 14 27 31 55 39 62 13 10 14 3 9 -60 -7 -67 -6 -72 14 -78 11 -4 23 -4
27 0 12 12 14 152 3 174 -18 33 -54 26 -92 -17z"/>
<path d="M476 3277 c-33 -43 -69 -124 -61 -137 16 -26 43 -9 60 38 28 75 38
75 30 0 -6 -62 -5 -67 15 -73 12 -4 25 -4 28 0 4 4 7 47 7 96 0 69 -3 92 -15
99 -25 16 -38 11 -64 -23z"/>
<path d="M621 3236 c-19 -21 -66 -125 -59 -131 2 -1 13 -6 25 -9 20 -6 24 -2
35 41 l13 48 5 -55 c4 -46 8 -55 26 -58 18 -3 22 3 27 40 6 43 -3 114 -17 136
-11 18 -30 14 -55 -12z"/>
<path d="M4042 3252 c-10 -7 -10 -16 1 -48 19 -53 29 -124 18 -124 -5 0 -25
32 -45 70 -21 39 -41 70 -47 70 -21 0 -19 -31 7 -81 46 -92 75 -129 99 -129
32 0 38 42 19 147 -18 108 -22 114 -52 95z"/>
<path d="M2481 3174 c-12 -19 -21 -37 -21 -38 0 -2 14 -6 30 -8 29 -4 30 -3
30 33 0 51 -14 56 -39 13z"/>
<path d="M3903 3202 c-9 -5 -8 -22 3 -67 26 -114 14 -127 -22 -22 -22 66 -23
66 -97 58 -4 -1 -6 -29 -3 -63 l5 -63 -16 53 c-17 56 -26 61 -59 33 -18 -14
-21 -26 -18 -67 l4 -49 -14 40 c-9 28 -18 40 -32 40 -23 0 -21 -17 9 -95 34
-86 76 -81 77 10 l0 45 19 -41 c23 -50 37 -60 58 -43 12 11 14 29 11 98 l-5
85 17 -50 c10 -27 27 -68 38 -91 l21 -41 -29 -12 c-28 -12 -29 -15 -32 -89
l-3 -76 -16 65 -15 65 -42 3 -42 3 0 -51 c0 -57 -14 -60 -24 -5 -5 27 -12 35
-28 35 -18 0 -20 -4 -15 -33 8 -50 34 -107 52 -114 27 -10 46 20 52 82 l6 59
19 -69 c21 -78 32 -95 59 -95 27 0 39 31 39 107 l1 68 28 -82 c32 -92 45 -113
72 -113 32 0 42 37 36 134 l-5 91 23 -77 c46 -158 98 -228 133 -182 10 15 13
48 10 145 l-4 127 23 -78 c42 -148 94 -240 134 -240 24 0 29 20 29 110 0 65
-9 136 -36 280 -2 14 10 -15 26 -65 64 -187 160 -355 203 -355 69 0 49 209
-45 473 -19 53 -38 71 -53 47 -3 -5 10 -58 29 -117 41 -129 66 -245 66 -309 0
-41 -2 -45 -15 -34 -26 22 -92 168 -137 302 -42 129 -59 152 -78 106 -5 -13
-9 -17 -9 -10 -1 14 -10 15 -29 3 -11 -7 -10 -26 8 -107 12 -55 23 -139 26
-189 l4 -90 -25 51 c-14 28 -42 110 -62 181 -31 112 -39 130 -55 125 -10 -2
-18 -8 -18 -13 0 -5 -10 -9 -21 -9 -19 0 -21 -4 -15 -37 10 -59 20 -263 13
-263 -13 0 -55 124 -81 243 -6 25 -10 28 -31 23 -14 -4 -25 -2 -25 4 0 12 -10
13 -28 2 -10 -7 -10 -28 -2 -102 6 -51 8 -95 6 -97 -3 -3 -17 34 -32 82 -24
77 -25 88 -12 96 24 13 29 51 18 131 -15 109 -19 118 -47 100z"/>
<path d="M1383 3183 c-75 -38 -151 -148 -189 -270 -23 -72 -26 -96 -22 -190 3
-91 8 -116 29 -158 23 -45 24 -54 13 -90 l-11 -40 -26 58 c-35 78 -47 123 -47
180 0 26 -5 47 -11 47 -5 0 -42 -5 -81 -12 l-71 -11 5 -96 c3 -53 2 -82 -2
-66 -4 17 -8 58 -9 93 -1 68 -3 69 -70 56 l-31 -6 -1 -112 c-2 -96 -3 -103 -9
-56 -5 30 -8 79 -9 108 -1 46 -3 52 -23 52 -12 0 -36 -5 -53 -12 l-32 -11 -6
-111 c-6 -100 2 -241 17 -321 3 -16 -3 -4 -14 28 -24 72 -40 194 -40 309 0 87
0 88 -25 88 l-25 0 0 -112 c0 -187 38 -360 104 -473 53 -90 220 -295 231 -283
3 3 -28 84 -70 179 -117 269 -118 271 -121 499 -2 174 -1 184 7 96 21 -226 60
-313 222 -499 33 -37 62 -65 65 -63 2 3 -28 82 -67 176 -71 168 -101 271 -100
340 0 32 1 31 14 -17 18 -65 53 -136 93 -185 34 -44 131 -132 137 -126 2 2
-16 48 -41 102 -45 97 -84 226 -84 275 0 21 5 16 24 -25 13 -28 48 -76 79
-107 l55 -57 -9 -63 c-10 -70 -12 -227 -3 -227 3 0 17 9 31 20 15 12 41 20 62
20 54 0 81 23 81 70 0 45 -38 172 -80 265 -25 55 -27 69 -19 95 13 36 20 37
38 8 104 -166 173 -468 127 -557 -32 -61 -117 -77 -196 -36 -29 15 -30 15 -30
-7 0 -13 9 -55 20 -93 17 -61 18 -78 8 -133 -9 -50 -15 -62 -27 -57 -9 4 -43
13 -76 22 -89 23 -205 5 -205 -32 0 -18 68 -65 95 -65 18 -1 19 -1 3 -11 -27
-15 -22 -24 33 -64 45 -34 55 -37 94 -32 32 5 48 2 59 -9 14 -13 13 -20 -5
-67 -25 -63 -32 -72 -69 -87 -33 -14 -40 -30 -12 -30 11 0 7 -6 -14 -19 -18
-11 -35 -24 -38 -30 -9 -13 -76 -15 -76 -2 0 5 -4 21 -10 35 l-10 26 -52 -40
c-29 -22 -60 -40 -68 -40 -8 1 -3 7 12 15 25 14 46 51 34 62 -14 14 -82 -11
-113 -42 -50 -50 -42 -114 9 -68 23 21 33 11 18 -17 -6 -12 -10 -38 -8 -58 3
-35 1 -37 -30 -40 -21 -2 -41 4 -58 17 -15 12 -35 21 -46 21 -12 0 -18 6 -16
16 2 9 -5 21 -14 28 -15 9 -23 5 -50 -21 -27 -27 -30 -34 -18 -48 7 -9 21 -13
31 -10 14 5 19 1 19 -12 0 -24 19 -43 41 -43 16 0 21 -22 31 -130 0 -8 19 -35
41 -59 36 -39 38 -45 22 -51 -17 -6 -17 -8 6 -23 13 -9 29 -17 37 -17 7 0 22
-5 33 -11 20 -10 20 -11 2 -24 -17 -13 -17 -14 2 -21 11 -4 48 -25 81 -46 l61
-40 -10 -34 c-6 -21 -16 -33 -23 -30 -7 3 -19 -3 -27 -12 -14 -15 -13 -20 14
-50 25 -28 33 -31 45 -21 9 7 13 21 10 32 -4 16 -1 18 22 12 42 -10 110 -46
144 -77 17 -15 34 -28 37 -28 5 0 62 12 119 25 14 4 21 1 20 -7 -3 -14 16 -14
64 -2 24 5 29 2 39 -22 5 -16 21 -43 35 -61 l24 -32 -27 -28 -28 -28 35 -3
c19 -1 61 -10 93 -19 57 -17 58 -17 36 -34 -14 -10 -20 -22 -16 -33 9 -23 19
-20 62 14 45 36 95 41 95 10 0 -28 19 -25 55 9 37 36 75 49 75 27 0 -27 20
-18 78 35 50 46 57 49 68 34 16 -22 3 -60 -48 -141 -35 -56 -50 -114 -30 -114
5 0 21 13 35 29 17 20 49 37 93 50 79 25 93 26 101 6 6 -17 54 -45 76 -45 11
0 13 11 9 50 -7 75 -1 82 45 59 20 -10 46 -19 58 -19 38 -1 90 -27 155 -76 80
-61 126 -82 143 -65 16 16 0 39 -52 75 -53 35 -114 96 -106 104 3 3 25 -15 48
-40 42 -46 90 -68 149 -68 32 0 47 19 26 34 -24 18 150 8 194 -11 28 -12 46
-14 70 -7 39 11 44 38 8 42 -14 1 -45 11 -70 22 -126 53 -150 64 -150 71 0 12
82 68 117 80 29 9 37 8 54 -7 17 -15 22 -16 29 -4 7 11 16 9 49 -13 23 -15 41
-22 41 -16 0 16 96 2 146 -22 55 -26 68 -25 60 5 -6 26 7 36 49 36 13 0 27 5
30 10 3 6 22 10 41 10 23 0 34 5 34 14 0 17 82 91 124 113 17 9 25 18 18 22
-8 5 -7 22 4 59 20 66 7 111 -42 150 -19 15 -34 32 -34 38 0 13 98 59 148 69
27 6 31 9 21 21 -9 11 -9 14 0 14 27 0 128 56 168 93 45 41 53 57 29 57 -12 0
-12 5 -3 31 l12 31 78 -4 c60 -4 80 -2 84 9 3 7 12 13 19 13 27 0 88 38 126
77 48 49 64 90 72 183 6 65 11 77 29 85 34 15 31 38 -8 64 -29 20 -37 21 -51
11 -10 -9 -13 -22 -9 -37 4 -16 1 -23 -9 -23 -21 0 -39 -37 -33 -66 4 -21 0
-24 -25 -24 -16 0 -43 -7 -59 -16 -17 -8 -32 -14 -34 -12 -2 2 33 53 77 113
195 269 277 457 307 700 6 50 11 187 11 306 0 216 0 217 -22 223 -50 13 -48
21 -48 -243 0 -254 -11 -369 -45 -456 l-15 -40 5 40 c23 202 27 315 15 479
-15 215 -20 240 -46 244 -20 3 -20 -2 -19 -285 0 -260 -2 -301 -23 -418 -30
-161 -74 -310 -152 -505 -33 -83 -58 -155 -55 -160 10 -16 -21 -28 -55 -21
-25 5 -35 12 -35 25 0 10 -8 24 -17 30 -14 9 -23 6 -45 -17 -23 -22 -26 -30
-16 -45 6 -9 18 -16 28 -15 38 3 -14 -99 -53 -105 -11 -2 -33 5 -48 15 -21 13
-45 17 -96 16 -48 -2 -67 1 -62 9 12 19 -47 -1 -98 -33 -58 -37 -110 -94 -139
-151 -12 -24 -27 -46 -35 -51 -24 -14 -46 -104 -42 -177 l3 -70 -34 -11 c-29
-10 -35 -9 -43 5 -8 14 -15 12 -51 -19 l-42 -36 -3 25 c-2 15 5 34 17 48 29
30 28 51 -1 42 -21 -6 -21 -4 6 25 17 17 38 31 48 31 21 0 25 28 5 36 -9 3
-13 22 -12 62 l2 57 46 13 c46 13 57 24 37 37 -6 4 -8 25 -4 54 6 45 4 49 -25
70 -18 13 -31 31 -31 44 0 19 -3 17 -35 -14 -19 -18 -46 -44 -60 -56 -14 -12
-25 -33 -25 -45 0 -21 -5 -23 -53 -24 -87 -2 -140 -42 -192 -145 -14 -26 -35
-55 -47 -64 -23 -16 -23 -16 -4 -30 11 -8 16 -18 13 -22 -4 -3 -21 4 -38 16
-93 69 -204 89 -291 54 -24 -10 -68 -17 -99 -18 -77 0 -184 54 -270 135 l-64
61 34 -5 c70 -12 214 -26 218 -22 3 3 -21 73 -54 157 l-59 152 -69 17 c-39 10
-83 22 -98 29 -36 14 -48 14 -45 0 2 -6 -3 -14 -11 -17 -10 -3 -12 1 -8 17 4
16 -1 25 -23 36 -26 14 -28 13 -34 -8 -4 -17 -8 -19 -17 -10 -9 9 -9 16 0 27
10 12 7 17 -18 30 l-30 16 -85 -123 -86 -122 23 -17 c12 -10 27 -18 34 -18 6
0 37 41 69 90 76 120 94 104 20 -18 l-55 -91 24 -15 c13 -9 30 -16 38 -16 7 0
33 40 57 90 24 49 50 90 57 90 7 0 13 -2 13 -4 0 -3 -20 -48 -45 -101 l-45
-97 30 -11 c17 -6 30 -15 30 -18 0 -8 -67 -17 -149 -22 -40 -2 -45 -5 -55 -34
-6 -18 -18 -39 -26 -48 -14 -13 -22 -9 -80 48 -36 35 -87 78 -113 96 -44 30
-50 32 -83 21 -20 -7 -64 -34 -99 -60 l-64 -48 -53 53 c-46 47 -98 125 -98
148 0 4 7 7 15 7 9 0 15 -9 15 -25 0 -31 23 -33 44 -3 19 27 21 74 4 81 -10 4
-10 6 0 6 27 2 82 33 82 47 0 7 6 11 13 8 7 -2 20 9 30 25 22 37 22 124 1 187
-8 25 -14 48 -11 50 2 2 29 -34 61 -81 31 -47 60 -84 64 -82 4 2 67 30 139 63
73 32 133 62 133 67 0 4 -20 32 -44 61 -86 106 -151 251 -176 393 -16 88 -8
273 15 358 42 156 162 342 283 440 34 28 62 52 62 55 0 3 -13 11 -29 17 -21 8
-43 36 -86 109 -32 55 -60 101 -61 103 -13 16 -187 -148 -263 -249 -31 -42
-75 -110 -96 -153 -22 -42 -43 -77 -47 -77 -11 0 -28 99 -28 168 0 161 84 322
196 380 37 19 37 19 11 24 -15 3 -39 -1 -54 -9z m-45 -1410 c-38 -82 -76 -154
-83 -162 -15 -16 -14 7 14 174 l16 100 43 7 c23 4 50 12 59 17 10 6 19 11 20
11 1 0 -30 -66 -69 -147z m-161 -159 c71 -27 73 -30 89 -76 16 -50 21 -129 9
-148 -14 -23 -29 9 -26 54 4 68 -21 88 -108 85 -74 -2 -114 10 -71 22 14 3 45
4 70 1 l45 -5 -16 23 c-31 47 -66 65 -130 65 -32 0 -59 4 -59 9 0 17 126 -2
197 -30z m3027 -277 c-7 -18 -24 -23 -24 -8 0 22 13 42 22 33 5 -5 6 -16 2
-25z m-2990 -14 c-27 -20 -35 -16 -22 12 9 20 14 23 25 13 13 -10 12 -14 -3
-25z m866 -83 c21 -21 26 -40 11 -40 -5 0 -11 9 -14 21 -4 16 -12 20 -34 17
-41 -5 -43 -44 -3 -83 36 -34 38 -54 8 -82 -17 -15 -31 -20 -51 -16 -31 6 -63
45 -51 64 4 7 12 0 20 -20 7 -17 20 -31 28 -31 51 0 62 43 21 84 -29 29 -32
62 -8 88 21 24 48 23 73 -2z m2084 11 c10 -16 -31 -97 -59 -120 -35 -26 -112
-50 -190 -57 l-60 -6 60 41 c33 22 80 59 105 82 62 57 129 85 144 60z m-189
-31 c-3 -5 -12 -10 -20 -10 -8 0 -17 5 -20 10 -4 6 5 10 20 10 15 0 24 -4 20
-10z m-3064 -69 c-6 -11 -11 -28 -11 -37 0 -15 4 -14 28 8 81 76 173 60 187
-32 l5 -35 -12 32 c-23 57 -29 59 -108 29 -108 -40 -172 -31 -155 23 8 27 69
66 73 46 2 -8 -2 -23 -7 -34z m2817 -43 c7 -7 12 -24 12 -39 0 -18 10 -36 31
-53 l31 -26 -26 -35 c-31 -41 -46 -49 -125 -74 -77 -24 -136 -59 -186 -110
-43 -45 -64 -50 -87 -23 -27 31 -31 69 -8 92 11 11 40 61 65 111 30 58 53 93
66 96 11 3 50 20 87 39 70 34 120 42 140 22z m-498 -29 c14 -26 -7 -62 -50
-84 -27 -14 -30 -20 -30 -68 -1 -98 -65 -192 -181 -263 -66 -40 -129 -105
-129 -134 0 -11 -2 -20 -5 -20 -11 0 -55 24 -55 30 0 4 20 50 44 101 25 52 52
125 62 163 11 46 27 81 48 104 32 37 108 77 163 88 24 4 39 16 54 43 22 36 46
61 61 61 4 0 12 -9 18 -21z m-2555 -10 c10 -15 -1 -23 -20 -15 -9 3 -13 10
-10 16 8 13 22 13 30 -1z m899 -134 c57 -66 122 -110 195 -130 74 -21 149 -51
190 -76 l34 -20 -31 -19 c-39 -24 -64 -61 -71 -107 l-6 -35 -29 23 c-20 16
-31 19 -34 11 -6 -20 -45 -14 -85 13 -37 26 -37 26 -37 4 0 -20 -4 -21 -47
-16 -27 3 -58 9 -71 13 -19 5 -23 3 -20 -11 2 -13 -8 -21 -35 -31 -33 -11 -44
-11 -73 1 -32 13 -38 23 -46 80 -2 14 -13 21 -38 25 -30 4 -38 12 -58 52 l-22
48 -21 -21 c-20 -20 -22 -20 -40 -3 -10 9 -19 26 -19 37 0 20 -1 20 -25 -3
-14 -13 -44 -26 -70 -30 -25 -4 -45 -5 -45 -4 0 2 42 39 94 82 52 44 109 96
126 116 17 19 59 56 92 81 l60 45 43 -36 c24 -19 64 -59 89 -89z m-576 66
c-13 -22 -26 -41 -29 -41 -3 0 -11 12 -17 26 -9 18 -19 24 -34 22 -11 -2 -23
3 -25 10 -3 8 9 12 39 13 24 0 52 4 63 8 29 12 29 7 3 -38z m-200 3 c35 -21
124 -128 151 -181 18 -37 51 -142 51 -165 0 -5 -22 3 -49 17 -107 54 -267 296
-224 338 11 12 44 8 71 -9z m398 -19 c16 -24 15 -25 -17 -52 -18 -16 -55 -47
-83 -70 -27 -24 -53 -43 -56 -43 -4 0 -15 15 -25 33 -17 32 -17 34 9 84 24 49
27 52 58 47 21 -4 40 0 53 10 28 22 42 20 61 -9z m878 -64 c64 -61 115 -99
162 -122 61 -30 77 -34 153 -34 59 0 104 6 142 19 50 17 62 18 104 6 54 -15
165 -84 165 -102 0 -7 -18 -40 -39 -74 l-39 -61 -55 5 c-69 5 -119 -11 -168
-55 -46 -42 -76 -39 -135 11 -193 165 -453 328 -569 357 -25 6 -48 15 -51 20
-2 5 7 26 22 48 19 29 35 42 58 46 27 5 125 20 149 24 4 0 50 -39 101 -88z
m-842 -250 c48 -8 52 -11 156 -131 22 -25 38 -49 36 -55 -6 -15 -254 -13 -280
2 -32 19 -83 80 -90 110 -6 21 -2 31 22 49 40 33 75 38 156 25z m866 -21 c28
-27 28 -36 0 -16 -12 9 -36 16 -53 17 -26 0 -27 2 -10 9 31 13 39 12 63 -10z
m977 -31 c-29 -29 -41 -36 -43 -25 -5 22 -8 21 -51 -24 -35 -37 -71 -53 -71
-31 0 15 67 61 133 91 34 16 64 29 67 30 2 0 -14 -18 -35 -41z m400 1 c47 -44
26 -107 -64 -198 -46 -46 -98 -70 -178 -83 -73 -12 -102 -8 -243 31 -50 14
-89 19 -116 15 -40 -6 -41 -5 -37 19 7 34 35 57 101 82 87 33 161 64 222 92
161 74 266 88 315 42z m-1506 -87 c-1 -61 -2 -65 -11 -36 -9 28 -4 103 7 103
3 0 5 -30 4 -67z m93 18 c-8 -20 51 -7 89 19 30 22 52 18 78 -14 11 -13 7 -16
-26 -22 -21 -4 -65 -8 -98 -8 -55 -1 -60 1 -63 22 -2 13 0 31 3 40 6 15 8 15
15 -3 4 -11 5 -26 2 -34z m-1049 4 c8 -18 -11 -31 -25 -17 -11 11 -3 32 12 32
4 0 10 -7 13 -15z m832 -61 l64 -16 35 -68 36 -68 -33 -21 c-47 -29 -153 -68
-208 -76 -65 -10 -155 10 -162 35 -3 11 -17 24 -31 30 -46 17 -82 101 -58 136
36 54 229 80 357 48z m929 -20 c12 -5 14 -12 9 -28 -4 -11 -8 -41 -7 -66 1
-41 -3 -48 -39 -76 l-39 -31 -52 28 c-28 15 -65 30 -83 34 -29 6 -31 8 -22 31
15 42 11 62 -13 66 -23 3 -22 4 5 22 15 10 42 22 60 27 33 8 153 4 181 -7z
m-461 -5 c12 -7 39 -27 61 -46 21 -19 52 -41 69 -48 27 -11 28 -13 10 -19 -11
-4 -32 -2 -47 3 -23 9 -26 8 -26 -10 0 -28 -27 -89 -40 -89 -6 0 -5 11 5 30
18 35 19 70 3 105 -18 41 -57 55 -149 55 -81 0 -81 0 -77 -25 l5 -25 -39 22
c-68 39 -65 44 35 46 50 2 93 5 96 7 9 9 73 5 94 -6z m-109 -169 c5 -5 5 -43
1 -86 -7 -80 -24 -87 -25 -9 0 66 -12 115 -26 115 -10 0 -14 -15 -14 -54 0
-62 -25 -101 -72 -112 -33 -7 -35 1 -8 41 28 43 25 93 -9 147 -16 25 -34 49
-40 52 -6 4 -15 16 -21 26 -7 12 29 -5 97 -46 60 -36 112 -69 117 -74z m31 84
c13 -8 31 -26 39 -39 16 -24 16 -24 -9 -15 -13 5 -43 19 -66 31 -32 16 -39 23
-28 30 20 13 37 11 64 -7z m311 -106 c92 -49 157 -92 146 -96 -7 -2 -32 8 -56
22 -25 14 -48 26 -51 26 -4 0 -5 -16 -3 -36 l4 -36 -44 51 c-43 50 -45 51 -98
51 -53 0 -53 0 -43 24 10 20 17 23 57 20 25 -2 65 -14 88 -26z m-159 -64 c-1
-2 -13 -1 -26 3 -16 4 -19 8 -10 14 12 7 45 -9 36 -17z"/>
<path d="M2846 3173 c-11 -52 -34 -218 -31 -221 4 -4 179 146 183 157 2 7 -8
14 -90 60 l-56 32 -6 -28z"/>
<path d="M3245 3189 c-8 -12 -9 -12 34 -34 48 -24 120 -93 141 -135 28 -55 53
-194 47 -259 -5 -55 -33 -141 -46 -141 -3 0 -24 35 -46 77 -21 43 -65 111 -96
153 -62 82 -201 220 -222 220 -6 0 -44 -57 -84 -127 l-72 -127 47 -51 c77 -81
129 -156 171 -246 65 -138 76 -192 75 -369 0 -147 -2 -160 -32 -250 -92 -274
-320 -497 -587 -571 -53 -14 -60 -19 -57 -39 3 -15 -1 -21 -10 -18 -7 3 -12
11 -11 19 2 12 -21 13 -130 11 -72 -2 -133 -5 -134 -6 -5 -4 101 -266 107
-266 4 0 32 57 62 127 30 70 60 129 66 131 6 2 -16 -58 -48 -134 -33 -76 -60
-143 -60 -151 0 -10 16 -12 73 -7 39 4 76 10 81 15 5 5 4 50 -3 110 -6 56 -9
104 -6 107 13 13 23 -20 35 -115 l12 -102 32 6 c63 12 213 65 276 98 62 32 63
34 32 35 -65 0 -122 52 -122 110 0 54 57 110 112 110 24 0 88 -34 88 -47 0 -5
-37 -32 -82 -62 -76 -50 -80 -55 -63 -67 10 -8 36 -14 57 -14 46 0 88 35 88
75 0 14 5 25 10 25 16 0 12 -53 -6 -78 -9 -13 -14 -25 -11 -28 11 -12 247 185
247 206 0 4 -20 5 -45 3 -41 -5 -47 -3 -80 30 -28 28 -35 43 -35 74 0 45 20
77 60 98 36 19 71 19 95 2 17 -13 14 -18 -39 -89 -31 -41 -56 -78 -56 -81 0
-12 84 -7 101 6 26 20 41 58 35 88 -3 16 -2 29 3 29 12 0 21 -26 21 -63 0 -30
4 -26 54 50 54 82 76 99 51 39 -27 -63 -29 -129 -7 -180 22 -49 29 -54 52 -34
12 11 12 10 1 -4 -16 -22 -7 -37 35 -54 42 -17 95 -18 118 -1 16 12 14 14 -19
30 -19 9 -40 28 -45 42 -5 14 -13 25 -17 25 -10 0 -10 81 0 97 8 13 117 14
117 1 0 -3 16 -15 36 -27 20 -12 40 -34 45 -51 13 -37 22 -38 37 -5 20 44 15
103 -11 129 -13 13 -21 28 -19 34 2 7 -4 15 -13 19 -14 5 -12 8 11 18 25 10
34 9 60 -9 18 -11 40 -33 50 -48 26 -38 34 -35 34 12 0 54 -21 93 -67 122 -33
20 -50 23 -123 22 -51 -1 -102 -7 -126 -17 l-42 -15 -12 59 c-11 52 -11 71 5
142 9 45 19 88 21 95 4 15 4 15 -39 -3 -75 -31 -159 -13 -187 41 -23 42 -16
171 14 289 25 100 111 289 131 287 6 0 14 -14 19 -31 7 -25 4 -44 -17 -94 -76
-179 -97 -295 -58 -317 11 -5 34 -10 52 -10 17 0 47 -10 66 -21 l34 -22 -2 72
-2 72 44 30 c78 51 157 160 179 246 8 33 9 31 5 -21 -6 -67 -44 -189 -81 -256
-49 -90 -105 -213 -100 -217 8 -8 124 107 171 170 81 107 118 211 135 382 7
78 8 67 6 -85 -4 -211 -9 -230 -118 -483 -44 -103 -78 -190 -75 -193 3 -3 37
32 77 78 189 217 245 358 257 639 l6 146 -27 5 -26 5 0 -74 c0 -109 -19 -257
-41 -321 -10 -31 -16 -46 -13 -32 11 42 17 421 7 431 -5 5 -30 12 -56 15 l-47
7 -1 -64 c0 -35 -4 -86 -9 -114 -6 -41 -8 -29 -9 65 l-1 116 -33 12 c-64 23
-66 21 -70 -75 l-3 -88 -2 91 -2 91 -73 12 -73 12 -11 77 c-23 156 -95 283
-190 335 -54 29 -78 33 -88 16z m270 -627 c-9 -31 -23 -65 -30 -76 -14 -19
-15 -18 -25 8 -7 21 -6 32 5 49 19 30 54 133 57 166 1 14 3 0 5 -32 3 -35 -3
-81 -12 -115z m109 -9 c-3 -21 -31 -90 -61 -153 -56 -119 -68 -127 -74 -50 -2
29 5 43 40 80 23 25 54 71 69 102 15 31 28 57 30 57 2 1 0 -16 -4 -36z m-271
-641 c20 -2 39 -8 42 -12 14 -23 52 -280 41 -280 -7 0 -49 83 -112 219 -33 70
-40 91 -26 85 9 -4 34 -9 55 -12z m332 -259 c-108 -12 -119 -16 -147 -43 -40
-41 -37 -54 12 -46 53 8 94 -2 80 -19 -8 -9 -23 -10 -58 -3 -90 17 -132 -9
-132 -82 0 -29 -6 -52 -14 -60 -25 -20 -31 51 -11 126 15 54 23 67 49 81 58
30 141 52 196 51 30 -1 42 -3 25 -5z m123 -38 c12 -25 12 -25 -13 -9 -14 9
-22 20 -19 25 9 15 20 10 32 -16z m-158 -89 c0 -2 -8 -10 -17 -17 -16 -13 -17
-12 -4 4 13 16 21 21 21 13z m56 -31 c10 -24 0 -34 -20 -20 -10 8 -15 18 -11
24 9 16 25 14 31 -4z m-712 -65 c-6 -38 -4 -43 41 -91 74 -79 43 -72 -38 9
-56 57 -67 72 -51 72 12 0 25 10 32 25 17 37 23 31 16 -15z m501 -118 c-2 -2
-13 2 -25 8 -18 9 -19 14 -9 26 11 13 14 12 25 -8 7 -13 11 -24 9 -26z m-770
-131 c-5 -67 -12 -104 -21 -112 -8 -7 -16 -10 -18 -8 -94 117 -137 179 -122
179 2 0 29 -32 60 -70 32 -39 61 -68 65 -65 5 2 11 35 15 72 15 147 32 150 21
4z"/>
<path d="M2054 3160 c4 -19 13 -67 22 -106 17 -79 9 -74 97 -52 l38 9 -30 37
c-17 20 -53 62 -81 92 l-51 55 5 -35z"/>
<path d="M731 3131 c-27 -63 -26 -73 1 -69 14 2 25 12 29 28 6 23 6 22 10 -10
3 -23 10 -36 22 -38 14 -3 17 5 17 51 0 70 -7 87 -35 87 -18 0 -27 -11 -44
-49z"/>
<path d="M172 3028 c-67 -200 -91 -364 -62 -419 33 -60 123 39 197 216 24 58
31 69 26 40 -4 -22 -8 -84 -8 -139 0 -83 3 -101 18 -110 12 -8 22 -8 34 0 24
15 71 103 104 196 l29 83 -6 -80 c-5 -87 3 -133 28 -149 38 -24 83 53 124 213
30 115 30 127 2 134 -12 4 -23 5 -24 4 -1 -1 -13 -51 -27 -112 -14 -60 -32
-126 -40 -145 l-16 -35 5 60 c3 33 12 102 21 153 8 51 13 95 12 97 -2 1 -26 5
-52 7 l-48 3 -29 -110 c-27 -106 -74 -243 -87 -254 -14 -13 9 163 35 272 l29
117 -23 6 c-12 3 -25 12 -28 20 -3 8 -13 14 -23 14 -14 0 -27 -29 -61 -133
-42 -129 -104 -272 -135 -312 -46 -58 5 218 71 389 17 44 30 81 29 82 -1 1
-14 5 -28 9 -26 6 -27 4 -67 -117z"/>
<path d="M850 3098 c-11 -24 -20 -49 -20 -55 0 -22 40 -14 50 10 8 21 9 21 9
-5 1 -22 8 -31 37 -43 46 -19 42 -20 53 18 l9 32 1 -36 c1 -24 7 -39 17 -43
34 -13 37 -7 30 56 -10 100 -50 116 -86 36 l-20 -43 0 38 c0 85 -48 106 -80
35z"/>
<path d="M2738 3032 l-47 -89 36 -17 c19 -9 37 -15 40 -13 4 4 32 178 33 200
0 24 -21 -4 -62 -81z"/>
<path d="M2415 3065 c-14 -16 -25 -31 -25 -35 0 -10 28 -17 103 -25 56 -7 57
-7 57 18 0 29 -23 57 -48 57 -9 0 -27 3 -39 6 -16 4 -29 -2 -48 -21z"/>
<path d="M1087 3062 c-16 -17 -37 -65 -37 -83 0 -20 42 -9 48 14 6 20 7 20 12
-8 3 -17 12 -31 23 -33 14 -3 17 4 17 40 0 41 -21 88 -39 88 -4 0 -15 -8 -24
-18z"/>
<path d="M3579 3073 c-1 -5 0 -24 0 -43 2 -58 -16 -71 -24 -17 -7 48 -11 52
-32 39 -8 -5 -9 -21 -2 -56 15 -79 49 -117 77 -83 28 35 26 167 -4 167 -8 0
-14 -3 -15 -7z"/>
<path d="M2880 2960 l-75 -70 30 -25 c35 -29 33 -31 95 82 60 108 54 110 -50
13z"/>
<path d="M687 2966 c-14 -96 -18 -202 -9 -231 9 -32 35 -44 57 -25 17 14 52
117 64 190 8 51 8 48 7 -40 -1 -119 6 -150 38 -150 25 0 39 21 61 90 l14 45 0
-38 c1 -49 16 -77 42 -77 24 0 54 61 64 131 6 38 4 47 -11 53 -23 9 -23 9 -37
-65 l-12 -64 -3 73 c-3 73 -3 73 -37 88 -19 8 -36 14 -38 14 -2 0 -7 -28 -11
-62 -12 -117 -26 -133 -22 -25 3 69 1 97 -7 98 -17 1 -42 6 -64 13 -18 6 -21
-3 -39 -101 -21 -121 -32 -99 -15 30 6 44 10 81 9 82 -2 2 -12 5 -24 9 -19 6
-22 2 -27 -38z"/>
<path d="M1040 2863 c0 -90 29 -118 69 -68 27 35 37 85 20 96 -22 14 -27 11
-37 -28 l-10 -38 -1 41 c-1 33 -5 43 -21 47 -18 5 -20 0 -20 -50z"/>
<path d="M3604 2887 c-3 -9 -16 -12 -34 -9 -17 2 -30 2 -30 0 0 -22 26 -71 42
-79 27 -15 44 4 53 59 6 35 4 42 -9 42 -9 0 -19 -6 -22 -13z"/>
<path d="M1943 2787 c-76 -58 -82 -66 -97 -118 -23 -80 -21 -211 5 -294 25
-82 95 -162 170 -197 46 -22 48 -25 41 -53 -4 -16 -7 -59 -7 -95 1 -79 36
-162 90 -209 29 -25 34 -35 29 -59 -9 -44 13 -107 50 -147 19 -19 37 -50 40
-69 21 -111 182 -108 202 3 4 20 20 51 36 70 37 42 48 71 48 127 0 38 5 49 35
75 53 47 88 127 89 207 1 37 -2 79 -6 93 -7 24 -4 28 39 44 63 24 126 84 154
148 21 44 24 68 24 162 0 184 -30 209 -267 227 -79 6 -171 11 -205 12 l-62 1
-3 40 c-3 39 -4 40 -48 45 -25 3 -61 15 -81 28 -30 18 -50 22 -115 21 l-79 0
-82 -62z m205 -13 c2 -11 -4 -26 -12 -33 -31 -26 -71 14 -45 45 17 21 53 14
57 -12z m102 -48 c0 -3 -4 -8 -10 -11 -5 -3 -10 -1 -10 4 0 6 5 11 10 11 6 0
10 -2 10 -4z m29 -53 c-1 -16 -5 -39 -9 -53 -6 -20 -8 -14 -9 28 -1 28 3 52 9
52 6 0 10 -12 9 -27z m35 -30 c-3 -27 -11 -52 -17 -58 -7 -7 -8 -4 -3 8 3 10
6 36 6 58 0 21 5 39 11 39 7 0 8 -16 3 -47z m206 31 c0 -8 -4 -12 -10 -9 -5 3
-10 10 -10 16 0 5 5 9 10 9 6 0 10 -7 10 -16z m-94 -40 c27 -8 80 -19 119 -24
86 -10 106 -29 95 -88 -9 -51 -37 -99 -73 -126 -27 -20 -39 -21 -190 -18 -177
3 -208 11 -252 64 -28 33 -48 98 -39 122 10 26 58 46 109 46 42 0 45 -2 35
-19 -14 -28 -14 -28 27 -36 31 -6 40 -3 55 15 10 12 18 35 18 51 0 35 20 38
96 13z m-76 -403 l0 -99 -45 -6 c-51 -8 -100 -44 -109 -81 -6 -23 -11 -25 -61
-25 -50 0 -55 2 -56 23 -4 85 23 150 84 203 48 41 131 84 165 84 21 0 22 -3
22 -99z m145 -151 c67 -129 -123 -256 -233 -156 -29 25 -52 68 -52 94 0 24 36
71 64 82 11 5 63 9 113 9 l92 1 16 -30z m-145 -270 l0 -60 -85 0 -86 0 15 28
c27 53 74 81 149 91 4 1 7 -26 7 -59z m90 -81 c0 -14 -44 -58 -60 -60 -35 -4
-52 2 -75 26 -14 13 -25 28 -25 32 0 4 36 8 80 9 44 1 80 -2 80 -7z m-90 -124
c0 -34 -1 -35 -41 -35 -41 0 -41 0 -27 23 12 17 52 46 66 47 1 0 2 -16 2 -35z"/>
<path d="M2094 2775 c-4 -10 -1 -21 7 -26 20 -12 34 -5 34 17 0 24 -33 31 -41
9z"/>
<path d="M4053 2646 c13 -33 18 -288 8 -381 -19 -165 -97 -428 -170 -573 -51
-102 -40 -98 58 18 121 142 178 255 222 434 25 103 49 307 49 413 0 82 0 83
-25 83 -24 0 -25 -3 -25 -58 0 -78 -18 -260 -35 -349 -15 -77 -54 -217 -60
-211 -2 1 6 41 16 88 23 105 34 300 24 443 l-7 107 -30 0 c-21 0 -29 -4 -25
-14z"/>
<path d="M570 2614 c-6 -15 -11 -108 -11 -208 0 -165 6 -226 36 -376 3 -14 -6
7 -19 45 -32 94 -55 234 -65 399 -4 75 -11 139 -13 142 -3 3 -27 1 -54 -3
l-49 -8 -9 -140 c-11 -167 5 -424 34 -565 10 -52 18 -96 16 -97 -8 -8 -67 190
-81 273 -9 51 -19 179 -22 302 l-6 212 -25 0 -25 0 6 -232 c9 -323 36 -451
141 -660 54 -107 225 -382 233 -375 2 3 -25 83 -61 179 -134 358 -167 563
-157 968 4 140 5 138 31 -135 24 -245 95 -445 208 -587 54 -67 102 -117 102
-107 0 3 -27 84 -59 181 -102 304 -106 328 -106 591 0 211 -1 227 -18 227 -10
0 -22 -12 -27 -26z"/>
<path d="M4453 2598 c17 -71 29 -311 24 -467 -10 -324 -72 -571 -227 -900 -75
-162 -96 -211 -87 -211 9 0 205 270 249 344 92 155 182 413 219 626 24 141 34
348 24 493 l-7 107 -27 0 -27 0 9 -102 c17 -216 -10 -466 -77 -708 -30 -110
-85 -256 -71 -190 64 308 75 391 75 611 0 146 -15 399 -23 405 -1 1 -15 4 -31
8 -26 6 -28 5 -23 -16z"/>
<path d="M198 2568 c-13 -10 -19 -49 -29 -171 -23 -297 1 -598 65 -817 13 -47
23 -86 21 -88 -6 -6 -82 203 -103 283 -51 194 -57 247 -57 518 l0 258 -25 -3
c-24 -3 -25 -5 -33 -113 -19 -268 23 -586 108 -825 39 -109 125 -278 190 -372
72 -104 227 -299 233 -293 2 2 -36 84 -86 182 -187 369 -253 600 -268 937 -6
125 6 370 23 479 6 40 -8 49 -39 25z"/>
<path d="M864 1608 c-17 -32 -24 -112 -11 -124 3 -3 25 14 49 39 24 24 50 47
58 49 11 4 6 13 -20 36 -45 40 -56 39 -76 0z m56 -15 c0 -5 -12 -16 -25 -26
l-25 -18 12 26 c10 23 38 36 38 18z"/>
<path d="M3115 1568 c-11 -6 -26 -18 -32 -26 -17 -21 -16 -87 1 -101 11 -9 24
2 64 56 28 37 48 71 46 75 -7 12 -56 9 -79 -4z"/>
<path d="M961 1522 c-20 -38 -23 -88 -6 -128 l16 -39 22 40 c13 22 35 46 50
53 15 7 27 17 27 22 0 9 -79 70 -92 70 -4 0 -12 -8 -17 -18z m47 -34 c7 -10 3
-18 -14 -31 -20 -15 -24 -15 -24 -3 0 21 11 46 20 46 4 0 12 -6 18 -12z"/>
<path d="M1727 1533 c-2 -4 -26 -73 -52 -151 -43 -132 -46 -145 -31 -160 8 -9
17 -14 19 -11 55 70 167 243 161 249 -73 64 -93 80 -97 73z"/>
<path d="M1630 1502 c-30 -15 -57 -28 -59 -30 -3 -1 13 -20 34 -42 22 -22 42
-37 45 -32 6 7 50 119 50 128 0 8 -15 3 -70 -24z"/>
<path d="M1478 1432 c-21 -10 -38 -20 -38 -23 0 -10 147 -149 158 -149 6 0 18
23 27 50 l17 50 -49 45 c-53 49 -61 51 -115 27z"/>
<path d="M2819 1321 c-28 -29 -35 -53 -23 -85 5 -12 19 -6 75 31 38 25 69 50
69 54 0 13 -36 29 -65 29 -16 0 -38 -12 -56 -29z"/>
</g>
</svg>
