<svg id="svg" version="1.1" xmlns="http://www.w3.org/2000/svg" xmlns:xlink="http://www.w3.org/1999/xlink" width="400" height="400" viewBox="0, 0, 400,400"><g id="svgg"><path id="path0" d="M152.554 118.915 C 152.308 119.182,151.723 119.665,151.254 119.988 C 150.784 120.312,150.400 120.807,150.400 121.088 C 150.400 121.370,150.212 121.600,149.982 121.600 C 149.692 121.600,149.596 160.891,149.671 250.000 C 149.729 320.620,149.917 378.400,150.089 378.400 C 150.260 378.400,150.400 378.630,150.400 378.912 C 150.400 379.193,150.782 379.688,151.249 380.012 C 151.716 380.335,152.333 380.825,152.620 381.100 C 153.381 381.828,196.619 381.828,197.380 381.100 C 197.667 380.825,198.284 380.335,198.751 380.012 C 199.218 379.688,199.600 379.193,199.600 378.912 C 199.600 378.630,199.808 378.400,200.063 378.400 C 200.411 378.400,200.455 371.321,200.240 349.678 C 200.082 333.882,200.082 312.102,200.239 301.278 L 200.525 281.600 205.639 281.600 C 208.617 281.600,210.856 281.767,211.000 282.000 C 211.136 282.220,212.497 282.400,214.024 282.400 C 215.608 282.400,216.800 282.572,216.800 282.800 C 216.800 283.020,217.329 283.200,217.976 283.200 C 218.623 283.200,219.264 283.380,219.400 283.600 C 219.536 283.820,219.997 284.000,220.424 284.000 C 220.851 284.000,221.200 284.180,221.200 284.400 C 221.200 284.620,221.560 284.800,222.000 284.800 C 222.440 284.800,222.800 284.980,222.800 285.200 C 222.800 285.420,223.070 285.600,223.400 285.600 C 223.730 285.600,224.000 285.780,224.000 286.000 C 224.000 286.220,224.228 286.400,224.507 286.400 C 225.151 286.400,230.800 291.826,230.800 292.445 C 230.800 292.698,231.115 293.199,231.500 293.557 C 231.885 293.916,232.425 294.612,232.700 295.104 C 233.990 297.416,234.233 297.805,234.704 298.317 C 234.981 298.618,235.088 299.058,234.942 299.294 C 234.785 299.549,234.864 299.607,235.138 299.438 C 235.412 299.269,235.600 299.407,235.600 299.776 C 235.600 300.119,235.780 300.400,236.000 300.400 C 236.220 300.400,236.400 300.720,236.400 301.112 C 236.400 301.503,236.760 302.083,237.200 302.400 C 237.640 302.717,238.000 303.195,238.000 303.461 C 238.000 303.728,238.353 304.058,238.784 304.195 C 239.445 304.405,244.672 312.260,248.350 318.570 C 248.872 319.467,249.796 320.921,250.402 321.802 C 251.008 322.683,251.864 324.033,252.304 324.802 C 252.744 325.571,254.294 328.090,255.749 330.400 C 257.222 332.738,258.396 335.055,258.398 335.626 C 258.399 336.190,259.166 337.810,260.101 339.226 C 261.037 340.642,262.057 342.295,262.369 342.900 C 262.680 343.505,263.085 344.000,263.268 344.000 C 263.450 344.000,263.600 344.320,263.600 344.712 C 263.600 345.103,263.960 345.683,264.400 346.000 C 264.840 346.317,265.200 346.814,265.200 347.105 C 265.200 347.396,265.560 348.020,266.000 348.492 C 266.440 348.964,266.800 349.587,266.800 349.875 C 266.800 350.164,266.980 350.400,267.200 350.400 C 267.420 350.400,267.600 350.694,267.600 351.053 C 267.600 351.412,267.915 351.998,268.300 352.354 C 269.096 353.091,270.341 355.058,270.671 356.100 C 270.793 356.485,271.052 356.800,271.247 356.800 C 271.441 356.800,271.600 357.030,271.600 357.312 C 271.600 357.593,271.960 358.083,272.400 358.400 C 272.840 358.717,273.200 359.297,273.200 359.688 C 273.200 360.080,273.380 360.400,273.600 360.400 C 273.820 360.400,274.000 360.636,274.000 360.925 C 274.000 361.213,274.325 361.798,274.722 362.225 C 275.454 363.010,275.600 363.301,275.600 363.971 C 275.600 364.176,275.849 364.592,276.154 364.897 C 276.458 365.201,277.105 366.229,277.590 367.181 C 278.076 368.133,278.817 369.281,279.237 369.731 C 279.656 370.182,280.224 371.056,280.497 371.675 C 280.771 372.294,281.131 372.800,281.298 372.800 C 281.464 372.800,281.600 373.120,281.600 373.512 C 281.600 373.903,281.960 374.483,282.400 374.800 C 282.840 375.117,283.200 375.697,283.200 376.088 C 283.200 376.480,283.380 376.800,283.600 376.800 C 283.820 376.800,284.000 377.036,284.000 377.325 C 284.000 377.613,284.360 378.236,284.800 378.708 C 285.240 379.180,285.600 379.767,285.600 380.012 C 285.600 381.604,285.525 381.600,315.371 381.600 L 344.000 381.600 344.000 380.675 C 344.000 380.167,343.640 379.364,343.200 378.892 C 342.760 378.420,342.400 377.756,342.400 377.417 C 342.400 377.078,342.220 376.800,342.000 376.800 C 341.780 376.800,341.600 376.543,341.600 376.229 C 341.600 375.914,341.375 375.412,341.100 375.113 C 340.825 374.814,340.375 374.171,340.100 373.685 C 339.825 373.198,339.375 372.402,339.100 371.915 C 338.825 371.429,338.375 370.786,338.100 370.487 C 337.825 370.188,337.600 369.803,337.600 369.633 C 337.600 369.462,337.244 368.912,336.808 368.410 C 336.373 367.908,336.093 367.373,336.187 367.221 C 336.281 367.070,336.007 366.693,335.579 366.385 C 335.150 366.076,334.800 365.503,334.800 365.112 C 334.800 364.720,334.620 364.400,334.400 364.400 C 334.180 364.400,334.000 364.100,334.000 363.733 C 334.000 363.367,333.885 363.182,333.744 363.323 C 333.487 363.579,332.184 361.611,331.742 360.300 C 331.613 359.915,331.348 359.600,331.153 359.600 C 330.959 359.600,330.800 359.370,330.800 359.088 C 330.800 358.807,330.440 358.317,330.000 358.000 C 329.560 357.683,329.200 357.103,329.200 356.712 C 329.200 356.320,329.020 356.000,328.800 356.000 C 328.580 356.000,328.400 355.680,328.400 355.288 C 328.400 354.897,328.040 354.317,327.600 354.000 C 327.160 353.683,326.800 353.103,326.800 352.712 C 326.800 352.320,326.641 352.000,326.446 352.000 C 326.251 352.000,325.793 351.415,325.428 350.700 C 325.063 349.985,324.413 348.860,323.983 348.200 C 323.554 347.540,323.004 346.505,322.762 345.900 C 322.520 345.295,322.181 344.800,322.009 344.800 C 321.838 344.800,321.481 344.279,321.217 343.642 C 320.954 343.005,320.396 342.117,319.978 341.668 C 319.559 341.219,319.168 340.615,319.109 340.326 C 319.049 340.037,318.730 339.530,318.400 339.199 C 317.666 338.464,316.430 336.451,316.129 335.500 C 316.007 335.115,315.748 334.800,315.553 334.800 C 315.359 334.800,315.200 334.564,315.200 334.275 C 315.200 333.987,314.840 333.364,314.400 332.892 C 313.960 332.420,313.600 331.796,313.600 331.505 C 313.600 331.214,313.240 330.717,312.800 330.400 C 312.360 330.083,312.000 329.543,312.000 329.200 C 312.000 328.857,311.640 328.317,311.200 328.000 C 310.760 327.683,310.400 327.195,310.400 326.916 C 310.400 326.447,309.721 325.470,308.500 324.184 C 308.225 323.894,308.000 323.374,308.000 323.029 C 308.000 322.683,307.809 322.400,307.576 322.400 C 307.343 322.400,307.264 322.220,307.400 322.000 C 307.536 321.780,307.457 321.600,307.224 321.600 C 306.991 321.600,306.800 321.364,306.800 321.075 C 306.800 320.787,306.485 320.195,306.100 319.760 C 305.715 319.325,305.342 318.706,305.270 318.384 C 305.199 318.063,304.974 317.740,304.770 317.667 C 304.567 317.593,304.400 317.355,304.400 317.138 C 304.400 316.613,303.367 315.600,302.831 315.600 C 302.405 315.600,301.353 314.054,294.397 303.200 C 292.352 300.010,289.716 295.955,288.540 294.190 C 287.363 292.424,286.400 290.561,286.400 290.050 C 286.400 289.534,285.867 288.623,285.200 288.000 C 284.540 287.383,284.000 286.701,284.000 286.483 C 284.000 286.266,282.110 284.179,279.800 281.847 C 277.490 279.514,275.600 277.681,275.600 277.774 C 275.600 277.933,273.682 276.280,271.106 273.900 C 270.451 273.295,269.763 272.800,269.576 272.800 C 269.389 272.800,268.786 272.350,268.236 271.800 C 267.686 271.250,267.038 270.800,266.795 270.800 C 266.552 270.800,266.464 270.620,266.600 270.400 C 266.736 270.180,266.477 270.000,266.024 270.000 C 265.571 270.000,265.200 269.820,265.200 269.600 C 265.200 269.362,266.707 269.200,268.920 269.200 C 270.966 269.200,272.811 269.030,273.020 268.823 C 273.229 268.615,274.345 268.403,275.500 268.351 C 276.655 268.299,277.600 268.109,277.600 267.929 C 277.600 267.748,278.219 267.600,278.976 267.600 C 279.733 267.600,280.464 267.420,280.600 267.200 C 280.736 266.980,281.377 266.800,282.024 266.800 C 282.671 266.800,283.200 266.620,283.200 266.400 C 283.200 266.180,283.841 266.000,284.624 266.000 C 285.471 266.000,285.947 265.838,285.800 265.600 C 285.656 265.367,286.063 265.200,286.776 265.200 C 287.449 265.200,288.000 265.020,288.000 264.800 C 288.000 264.580,288.349 264.400,288.776 264.400 C 289.203 264.400,289.664 264.220,289.800 264.000 C 289.936 263.780,290.397 263.600,290.824 263.600 C 291.251 263.600,291.600 263.420,291.600 263.200 C 291.600 262.980,291.960 262.800,292.400 262.800 C 292.840 262.800,293.200 262.620,293.200 262.400 C 293.200 262.180,293.560 262.000,294.000 262.000 C 294.440 262.000,294.800 261.820,294.800 261.600 C 294.800 261.380,295.160 261.200,295.600 261.200 C 296.040 261.200,296.400 261.020,296.400 260.800 C 296.400 260.580,296.636 260.400,296.925 260.400 C 297.213 260.400,297.836 260.040,298.308 259.600 C 298.780 259.160,299.444 258.800,299.783 258.800 C 300.122 258.800,300.400 258.620,300.400 258.400 C 300.400 258.180,300.670 258.000,301.000 258.000 C 301.330 258.000,301.600 257.820,301.600 257.600 C 301.600 257.380,301.778 257.200,301.996 257.200 C 302.566 257.200,307.200 253.613,307.200 253.171 C 307.200 252.967,307.470 252.800,307.800 252.800 C 308.130 252.800,308.400 252.620,308.400 252.400 C 308.400 252.180,308.576 252.000,308.792 252.000 C 309.289 252.000,315.200 246.015,315.200 245.512 C 315.200 245.306,315.935 244.431,316.833 243.569 C 317.731 242.706,318.327 242.000,318.158 242.000 C 317.989 242.000,318.298 241.505,318.844 240.900 C 319.391 240.295,320.070 239.332,320.354 238.761 C 320.638 238.189,321.304 237.216,321.835 236.598 C 322.366 235.981,322.800 235.256,322.800 234.987 C 322.800 234.718,323.064 234.279,323.387 234.011 C 323.710 233.743,323.943 233.406,323.905 233.262 C 323.867 233.118,324.143 232.424,324.518 231.720 C 324.893 231.016,325.200 230.161,325.200 229.820 C 325.200 229.479,325.380 229.200,325.600 229.200 C 325.820 229.200,326.000 228.851,326.000 228.424 C 326.000 227.997,326.180 227.536,326.400 227.400 C 326.620 227.264,326.800 226.713,326.800 226.176 C 326.800 225.639,326.980 225.200,327.200 225.200 C 327.420 225.200,327.600 224.851,327.600 224.424 C 327.600 223.997,327.780 223.536,328.000 223.400 C 328.220 223.264,328.400 222.613,328.400 221.953 C 328.400 221.255,328.567 220.856,328.800 221.000 C 329.038 221.147,329.200 220.671,329.200 219.824 C 329.200 219.041,329.380 218.400,329.600 218.400 C 329.820 218.400,330.000 217.680,330.000 216.800 C 330.000 215.920,330.180 215.200,330.400 215.200 C 330.620 215.200,330.800 214.221,330.800 213.024 C 330.800 211.827,330.980 210.736,331.200 210.600 C 331.456 210.442,331.600 204.329,331.600 193.576 C 331.600 182.659,331.460 176.800,331.200 176.800 C 330.980 176.800,330.800 175.911,330.800 174.824 C 330.800 173.737,330.620 172.736,330.400 172.600 C 330.180 172.464,330.000 171.643,330.000 170.776 C 330.000 169.909,329.820 169.200,329.600 169.200 C 329.380 169.200,329.200 168.581,329.200 167.824 C 329.200 167.067,329.020 166.336,328.800 166.200 C 328.580 166.064,328.400 165.503,328.400 164.953 C 328.400 164.388,328.226 164.060,328.000 164.200 C 327.774 164.340,327.600 164.012,327.600 163.447 C 327.600 162.897,327.420 162.336,327.200 162.200 C 326.980 162.064,326.800 161.513,326.800 160.976 C 326.800 160.439,326.620 160.000,326.400 160.000 C 326.180 160.000,326.000 159.640,326.000 159.200 C 326.000 158.760,325.820 158.400,325.600 158.400 C 325.380 158.400,325.200 158.040,325.200 157.600 C 325.200 157.160,325.020 156.800,324.800 156.800 C 324.580 156.800,324.436 156.665,324.479 156.500 C 324.634 155.915,323.875 154.178,322.745 152.528 C 322.115 151.608,321.600 150.573,321.600 150.228 C 321.600 149.883,321.450 149.600,321.268 149.600 C 321.085 149.600,320.680 149.105,320.368 148.500 C 320.055 147.895,319.485 147.165,319.100 146.877 C 318.715 146.590,318.400 146.096,318.400 145.781 C 318.400 145.465,318.040 144.982,317.600 144.707 C 317.160 144.432,316.800 144.047,316.800 143.850 C 316.800 143.654,316.305 143.067,315.700 142.547 C 315.095 142.027,314.726 141.601,314.881 141.600 C 315.035 141.600,313.913 140.385,312.387 138.900 C 308.253 134.877,306.396 133.200,306.078 133.200 C 305.921 133.200,305.568 132.840,305.293 132.400 C 305.018 131.960,304.591 131.600,304.344 131.600 C 304.096 131.600,303.603 131.284,303.247 130.897 C 302.891 130.511,302.105 129.940,301.500 129.630 C 300.895 129.319,300.400 128.915,300.400 128.732 C 300.400 128.550,300.117 128.400,299.772 128.400 C 299.427 128.400,298.392 127.885,297.472 127.255 C 295.822 126.125,294.085 125.366,293.500 125.521 C 293.335 125.564,293.200 125.420,293.200 125.200 C 293.200 124.980,292.840 124.800,292.400 124.800 C 291.960 124.800,291.600 124.620,291.600 124.400 C 291.600 124.180,291.240 124.000,290.800 124.000 C 290.360 124.000,290.000 123.820,290.000 123.600 C 290.000 123.380,289.561 123.200,289.024 123.200 C 288.487 123.200,287.936 123.020,287.800 122.800 C 287.664 122.580,287.103 122.400,286.553 122.400 C 285.988 122.400,285.660 122.226,285.800 122.000 C 285.940 121.774,285.612 121.600,285.047 121.600 C 284.497 121.600,283.936 121.420,283.800 121.200 C 283.664 120.980,282.933 120.800,282.176 120.800 C 281.419 120.800,280.800 120.620,280.800 120.400 C 280.800 120.180,280.091 120.000,279.224 120.000 C 278.357 120.000,277.536 119.820,277.400 119.600 C 277.264 119.380,276.263 119.200,275.176 119.200 C 274.089 119.200,273.200 119.020,273.200 118.800 C 273.200 118.170,153.134 118.285,152.554 118.915 M253.000 169.787 C 254.760 169.945,256.371 170.237,256.580 170.437 C 256.789 170.637,257.453 170.800,258.056 170.800 C 258.659 170.800,259.264 170.980,259.400 171.200 C 259.536 171.420,259.999 171.600,260.429 171.600 C 261.173 171.600,262.772 172.319,263.200 172.846 C 263.310 172.981,263.850 173.230,264.400 173.399 C 264.950 173.567,265.878 174.041,266.462 174.452 C 267.046 174.864,267.633 175.200,267.767 175.200 C 268.086 175.200,274.800 181.914,274.800 182.233 C 274.800 182.367,275.140 182.954,275.556 183.538 C 275.972 184.122,276.348 184.731,276.391 184.891 C 276.435 185.051,276.565 185.546,276.682 185.991 C 276.798 186.436,277.008 186.800,277.149 186.800 C 277.503 186.800,278.433 188.974,278.508 189.976 C 278.542 190.429,278.712 190.800,278.885 190.800 C 279.058 190.800,279.200 191.340,279.200 192.000 C 279.200 192.660,279.380 193.200,279.600 193.200 C 279.851 193.200,280.000 195.733,280.000 200.000 C 280.000 204.267,279.851 206.800,279.600 206.800 C 279.380 206.800,279.200 207.340,279.200 208.000 C 279.200 208.660,279.058 209.200,278.885 209.200 C 278.712 209.200,278.542 209.571,278.508 210.024 C 278.433 211.026,277.503 213.200,277.149 213.200 C 277.008 213.200,276.762 213.605,276.600 214.100 C 276.439 214.595,276.277 215.090,276.241 215.200 C 275.367 217.805,267.805 225.367,265.200 226.241 C 265.090 226.277,264.595 226.439,264.100 226.600 C 263.605 226.762,263.200 227.008,263.200 227.149 C 263.200 227.503,261.026 228.433,260.024 228.508 C 259.571 228.542,259.200 228.712,259.200 228.885 C 259.200 229.058,258.675 229.200,258.033 229.200 C 257.392 229.200,256.807 229.362,256.733 229.560 C 256.475 230.258,249.540 230.498,225.100 230.654 L 200.400 230.812 200.400 200.000 L 200.400 169.188 225.100 169.344 C 238.685 169.429,251.240 169.629,253.000 169.787 " stroke="none" fill="#4c9bbb" fill-rule="evenodd"></path><path id="path1" d="M183.042 18.869 C 183.155 19.051,181.722 19.200,179.857 19.200 C 177.992 19.200,176.407 19.365,176.333 19.567 C 176.260 19.768,174.670 19.985,172.800 20.048 C 170.930 20.112,169.280 20.339,169.132 20.553 C 168.985 20.767,167.951 20.926,166.835 20.905 C 165.719 20.885,164.703 21.033,164.579 21.234 C 164.455 21.435,163.673 21.600,162.843 21.600 C 162.013 21.600,161.209 21.725,161.056 21.877 C 160.904 22.029,160.387 22.214,159.907 22.287 C 159.427 22.360,158.905 22.630,158.746 22.887 C 158.536 23.227,158.204 23.239,157.529 22.932 C 156.617 22.518,156.365 22.570,154.446 23.575 C 153.672 23.980,153.429 23.973,153.153 23.537 C 152.899 23.137,152.811 23.128,152.806 23.500 C 152.803 23.775,152.386 24.000,151.880 24.000 C 151.374 24.000,150.718 24.225,150.421 24.500 C 149.990 24.900,149.939 24.900,150.165 24.500 C 150.320 24.225,150.276 24.000,150.066 24.000 C 149.857 24.000,149.591 24.247,149.475 24.549 C 149.354 24.864,148.826 25.049,148.230 24.984 C 147.590 24.913,147.295 25.029,147.455 25.289 C 147.622 25.560,147.270 25.642,146.457 25.523 C 145.516 25.385,145.200 25.492,145.200 25.949 C 145.200 26.401,145.083 26.443,144.751 26.111 C 144.222 25.582,143.093 25.903,143.451 26.482 C 143.597 26.719,143.371 26.705,142.890 26.448 C 142.275 26.119,141.972 26.151,141.613 26.585 C 141.354 26.897,140.885 27.054,140.571 26.933 C 139.644 26.578,138.477 27.153,139.208 27.605 C 139.604 27.849,139.243 27.936,138.097 27.872 C 136.593 27.788,136.239 27.981,136.330 28.833 C 136.344 28.962,136.141 29.075,135.878 29.086 C 135.615 29.096,135.055 29.247,134.634 29.420 C 134.143 29.623,133.960 29.589,134.122 29.326 C 134.280 29.070,133.994 28.988,133.365 29.109 C 132.664 29.243,132.425 29.488,132.586 29.908 C 132.763 30.368,132.694 30.410,132.298 30.081 C 131.917 29.765,131.332 29.848,130.121 30.390 C 129.210 30.798,128.360 31.027,128.233 30.899 C 128.105 30.771,128.000 30.877,128.000 31.133 C 128.000 31.390,127.730 31.600,127.400 31.600 C 127.070 31.600,126.800 31.791,126.800 32.024 C 126.800 32.257,126.635 32.345,126.432 32.220 C 126.230 32.095,125.794 32.263,125.464 32.593 C 125.010 33.047,124.816 33.072,124.664 32.696 C 124.505 32.304,124.457 32.304,124.432 32.700 C 124.414 32.975,124.029 33.200,123.576 33.200 C 123.123 33.200,122.864 33.380,123.000 33.600 C 123.224 33.962,122.143 34.188,120.921 34.035 C 120.657 34.002,120.246 34.340,120.007 34.787 C 119.696 35.368,119.170 35.600,118.162 35.600 C 117.324 35.600,116.853 35.762,117.000 36.000 C 117.136 36.220,116.967 36.400,116.624 36.400 C 115.610 36.400,115.447 36.456,114.400 37.163 C 113.850 37.535,112.895 38.056,112.277 38.321 C 111.565 38.627,111.258 38.986,111.436 39.302 C 111.659 39.697,111.606 39.696,111.179 39.300 C 110.382 38.560,110.001 38.689,109.994 39.700 C 109.990 40.326,109.887 40.442,109.659 40.081 C 109.393 39.663,109.236 39.675,108.848 40.142 C 108.584 40.461,107.925 40.833,107.384 40.968 C 106.843 41.104,106.400 41.392,106.400 41.608 C 106.400 41.823,106.130 42.000,105.800 42.000 C 105.470 42.000,105.197 42.225,105.194 42.500 C 105.190 42.833,105.058 42.800,104.800 42.400 C 104.542 42.000,104.410 41.967,104.406 42.300 C 104.403 42.575,104.023 42.800,103.563 42.800 C 103.054 42.800,102.641 43.123,102.510 43.623 C 102.378 44.128,102.075 44.361,101.726 44.227 C 101.414 44.107,100.718 44.298,100.179 44.651 C 99.641 45.003,99.200 45.195,99.200 45.077 C 99.200 44.958,98.680 45.343,98.045 45.931 C 96.206 47.632,95.668 47.999,95.529 47.646 C 95.458 47.465,95.040 47.677,94.600 48.119 C 94.160 48.561,94.053 48.777,94.362 48.600 C 94.731 48.387,94.829 48.429,94.649 48.721 C 94.498 48.965,94.103 49.061,93.772 48.934 C 93.441 48.807,92.847 48.995,92.453 49.352 C 92.058 49.710,91.615 49.881,91.468 49.734 C 91.320 49.587,91.200 49.777,91.200 50.157 C 91.200 50.537,91.020 50.736,90.800 50.600 C 90.580 50.464,90.400 50.543,90.400 50.776 C 90.400 51.009,90.170 51.200,89.889 51.200 C 89.608 51.200,89.080 51.515,88.717 51.900 C 87.869 52.799,86.889 53.600,86.637 53.600 C 86.530 53.600,85.956 54.050,85.362 54.600 C 84.769 55.150,84.079 55.600,83.830 55.600 C 83.204 55.600,82.005 57.065,82.333 57.430 C 82.480 57.594,82.394 57.610,82.142 57.466 C 81.890 57.322,81.260 57.577,80.742 58.033 C 80.224 58.488,80.025 58.747,80.300 58.607 C 80.575 58.467,80.800 58.564,80.800 58.823 C 80.800 59.092,80.467 59.206,80.023 59.090 C 79.169 58.867,77.809 60.056,78.299 60.597 C 78.465 60.779,78.378 60.801,78.107 60.645 C 77.571 60.337,74.502 62.223,74.755 62.705 C 74.840 62.867,74.525 63.178,74.055 63.395 C 73.585 63.612,73.200 63.988,73.200 64.231 C 73.200 64.473,72.745 64.879,72.189 65.132 C 71.633 65.386,71.074 65.864,70.947 66.194 C 70.820 66.525,70.568 66.704,70.387 66.592 C 70.206 66.480,69.938 66.764,69.793 67.223 C 69.628 67.742,69.307 67.973,68.943 67.834 C 68.622 67.710,68.455 67.765,68.573 67.956 C 68.691 68.147,68.019 68.910,67.079 69.651 C 66.063 70.454,65.425 71.263,65.505 71.650 C 65.579 72.007,65.370 72.403,65.040 72.529 C 64.615 72.692,64.501 72.561,64.646 72.080 C 64.759 71.706,64.566 71.890,64.218 72.490 C 63.870 73.089,63.223 73.773,62.781 74.010 C 62.339 74.247,62.071 74.591,62.184 74.775 C 62.298 74.959,62.119 75.335,61.786 75.611 C 61.277 76.034,61.217 75.994,61.403 75.357 C 61.552 74.850,61.468 74.897,61.151 75.500 C 60.891 75.995,60.525 76.400,60.339 76.400 C 60.152 76.400,60.000 76.649,60.000 76.953 C 60.000 77.258,59.595 77.630,59.100 77.780 C 58.598 77.933,58.410 78.141,58.675 78.252 C 59.191 78.467,57.644 80.281,57.100 80.100 C 56.935 80.045,56.800 80.281,56.800 80.624 C 56.800 80.993,56.612 81.131,56.338 80.962 C 56.059 80.789,55.985 80.852,56.151 81.121 C 56.303 81.367,55.976 81.860,55.416 82.226 C 54.861 82.590,54.505 83.046,54.624 83.239 C 54.744 83.433,54.555 83.481,54.204 83.346 C 53.854 83.212,53.606 83.259,53.653 83.451 C 53.777 83.950,52.730 86.003,52.442 85.829 C 52.309 85.749,51.968 85.935,51.684 86.242 C 51.305 86.652,51.295 86.800,51.645 86.800 C 51.908 86.800,51.735 87.136,51.261 87.547 C 50.788 87.958,50.400 88.458,50.400 88.658 C 50.400 89.117,48.924 90.400,48.395 90.400 C 48.178 90.400,48.000 90.760,48.000 91.200 C 48.000 91.640,47.801 92.000,47.557 92.000 C 47.314 92.000,47.214 92.261,47.337 92.580 C 47.474 92.936,47.367 93.085,47.060 92.967 C 46.775 92.858,46.269 93.385,45.886 94.188 C 45.516 94.965,45.059 95.600,44.871 95.600 C 44.415 95.600,43.607 97.415,43.572 98.519 C 43.547 99.301,43.511 99.317,43.253 98.662 C 42.994 98.003,42.911 98.038,42.478 98.988 C 42.092 99.836,42.095 99.990,42.497 99.749 C 42.849 99.537,42.836 99.649,42.455 100.119 C 42.155 100.489,41.772 100.706,41.603 100.602 C 41.435 100.498,41.199 100.907,41.078 101.510 C 40.957 102.114,40.406 103.135,39.852 103.779 C 39.298 104.423,38.923 105.076,39.018 105.230 C 39.113 105.384,38.923 105.732,38.596 106.004 C 38.268 106.276,38.000 106.746,38.000 107.049 C 38.000 107.352,37.809 107.600,37.576 107.600 C 37.343 107.600,37.265 107.781,37.402 108.003 C 37.539 108.224,37.355 108.519,36.993 108.658 C 36.591 108.812,36.411 109.200,36.530 109.655 C 36.646 110.099,36.515 110.400,36.205 110.400 C 35.919 110.400,35.578 110.679,35.447 111.021 C 35.309 111.382,35.377 111.538,35.611 111.393 C 35.833 111.256,35.563 111.808,35.013 112.620 C 34.462 113.431,34.109 114.253,34.229 114.447 C 34.349 114.641,34.167 114.800,33.824 114.800 C 33.215 114.800,33.042 115.381,33.172 117.000 C 33.226 117.678,33.167 117.708,32.787 117.200 C 32.425 116.718,32.371 116.813,32.511 117.688 C 32.606 118.286,32.550 118.693,32.386 118.591 C 31.898 118.290,30.818 120.257,30.988 121.139 C 31.106 121.753,30.987 121.893,30.503 121.707 C 30.028 121.525,29.927 121.632,30.114 122.120 C 30.266 122.518,30.112 122.922,29.724 123.139 C 29.304 123.373,29.160 123.804,29.309 124.374 C 29.447 124.901,29.333 125.327,29.024 125.446 C 28.718 125.563,28.566 126.121,28.647 126.822 C 28.745 127.663,28.613 128.000,28.185 128.000 C 27.736 128.000,27.652 128.266,27.851 129.060 C 28.038 129.805,27.981 130.035,27.658 129.836 C 27.249 129.583,27.021 130.064,27.153 130.900 C 27.179 131.065,27.059 131.200,26.887 131.200 C 26.523 131.200,25.383 134.775,25.525 135.470 C 25.578 135.728,25.436 136.054,25.211 136.193 C 24.985 136.333,24.800 136.977,24.800 137.624 C 24.800 138.271,24.620 138.800,24.400 138.800 C 24.180 138.800,24.000 139.340,24.000 140.000 C 24.000 140.660,23.820 141.200,23.600 141.200 C 23.380 141.200,23.187 142.145,23.172 143.300 C 23.151 144.842,23.052 145.188,22.800 144.600 C 22.541 143.998,22.449 144.270,22.428 145.700 C 22.413 146.745,22.220 147.600,22.000 147.600 C 21.780 147.600,21.621 147.735,21.647 147.900 C 21.812 148.944,21.545 151.213,21.277 151.047 C 21.099 150.938,20.909 151.602,20.855 152.524 C 20.801 153.446,20.587 154.371,20.379 154.580 C 20.170 154.789,20.000 156.094,20.000 157.480 C 20.000 158.964,19.828 160.000,19.582 160.000 C 19.076 160.000,19.241 161.283,19.800 161.694 C 20.062 161.886,20.054 161.990,19.778 161.994 C 19.546 161.997,19.312 162.749,19.258 163.664 C 19.204 164.579,18.997 165.633,18.797 166.006 C 18.314 166.908,18.350 195.278,18.833 194.979 C 19.035 194.855,19.200 194.933,19.200 195.153 C 19.200 195.373,19.011 195.669,18.781 195.812 C 18.502 195.984,18.494 196.232,18.757 196.548 C 18.975 196.810,19.190 198.318,19.237 199.899 C 19.283 201.479,19.473 202.678,19.660 202.563 C 19.847 202.447,20.000 203.274,20.000 204.400 C 20.000 205.526,20.150 206.355,20.333 206.241 C 20.517 206.128,20.667 206.289,20.667 206.600 C 20.667 206.911,20.517 207.072,20.333 206.959 C 20.150 206.845,20.000 206.949,20.000 207.189 C 20.000 207.429,20.225 207.711,20.500 207.817 C 20.801 207.933,20.996 208.735,20.990 209.837 C 20.985 210.842,21.120 211.750,21.290 211.856 C 21.461 211.961,21.600 212.757,21.600 213.624 C 21.600 214.491,21.780 215.200,22.000 215.200 C 22.220 215.200,22.400 215.751,22.400 216.424 C 22.400 217.137,22.567 217.544,22.800 217.400 C 23.049 217.246,23.200 218.004,23.200 219.400 C 23.200 220.636,23.338 221.562,23.507 221.458 C 23.675 221.354,24.018 221.703,24.269 222.235 C 24.520 222.766,24.562 223.100,24.363 222.977 C 24.163 222.854,24.000 223.023,24.000 223.353 C 24.000 223.683,24.180 224.064,24.400 224.200 C 24.620 224.336,24.800 224.797,24.800 225.224 C 24.800 225.651,25.025 226.003,25.300 226.006 C 25.633 226.010,25.600 226.142,25.200 226.400 C 24.764 226.682,24.743 226.789,25.124 226.794 C 25.412 226.797,25.525 226.997,25.376 227.238 C 25.228 227.479,25.514 228.228,26.013 228.903 C 26.511 229.577,26.939 230.614,26.963 231.207 C 26.987 231.800,27.205 232.536,27.449 232.842 C 27.692 233.149,27.856 233.797,27.814 234.281 C 27.771 234.766,27.886 235.071,28.068 234.958 C 28.251 234.845,28.423 234.943,28.450 235.176 C 28.477 235.409,28.545 235.780,28.600 236.000 C 28.655 236.220,28.722 236.552,28.750 236.739 C 28.777 236.925,29.172 237.506,29.626 238.030 C 30.092 238.567,30.268 239.044,30.030 239.123 C 29.772 239.209,29.840 239.497,30.204 239.861 C 30.532 240.189,30.800 240.784,30.800 241.183 C 30.800 242.082,31.799 244.068,32.099 243.767 C 32.221 243.646,32.310 243.784,32.297 244.073 C 32.233 245.539,32.442 246.421,32.800 246.200 C 33.020 246.064,33.200 246.336,33.200 246.805 C 33.200 247.274,33.472 247.929,33.804 248.261 C 34.136 248.593,34.288 249.058,34.142 249.294 C 33.996 249.530,34.048 249.618,34.257 249.488 C 34.467 249.359,34.900 249.418,35.219 249.620 C 35.618 249.872,35.643 249.990,35.300 249.994 C 35.025 249.997,34.800 250.174,34.800 250.387 C 34.800 250.601,35.099 250.660,35.464 250.520 C 35.991 250.318,36.082 250.444,35.902 251.133 C 35.777 251.610,35.838 252.000,36.037 252.000 C 36.237 252.000,36.400 252.350,36.400 252.777 C 36.400 253.205,36.715 253.790,37.100 254.077 C 37.485 254.365,37.862 254.956,37.938 255.391 C 38.015 255.826,38.645 256.899,39.338 257.775 C 40.032 258.652,40.543 259.619,40.473 259.924 C 40.402 260.235,40.535 260.364,40.773 260.217 C 41.008 260.071,41.200 260.233,41.200 260.576 C 41.200 260.919,41.367 261.200,41.572 261.200 C 41.777 261.200,42.002 261.567,42.072 262.016 C 42.142 262.465,42.360 262.809,42.555 262.782 C 43.103 262.705,43.605 263.724,43.379 264.453 C 43.263 264.825,43.450 265.210,43.813 265.350 C 44.164 265.484,44.339 265.776,44.202 265.997 C 44.065 266.219,44.143 266.400,44.376 266.400 C 44.609 266.400,44.800 266.641,44.800 266.936 C 44.800 267.230,45.246 267.675,45.792 267.924 C 46.440 268.219,46.703 268.588,46.549 268.988 C 46.401 269.375,46.542 269.600,46.934 269.600 C 47.274 269.600,47.681 269.808,47.838 270.062 C 48.026 270.365,47.931 270.424,47.562 270.232 C 47.253 270.072,47.327 270.208,47.727 270.534 C 48.126 270.860,48.441 271.234,48.427 271.364 C 48.337 272.161,48.512 272.411,49.500 272.894 C 50.211 273.242,50.555 273.689,50.473 274.159 C 50.350 274.856,51.864 276.302,52.500 276.097 C 52.665 276.044,52.800 276.350,52.800 276.777 C 52.800 277.205,53.127 277.790,53.526 278.077 C 53.926 278.365,54.377 278.932,54.528 279.338 C 54.680 279.744,55.161 280.169,55.598 280.283 C 56.034 280.398,56.286 280.661,56.158 280.868 C 56.030 281.076,56.569 281.796,57.357 282.469 C 58.145 283.142,58.691 283.852,58.571 284.047 C 58.451 284.241,58.723 284.400,59.176 284.400 C 59.909 284.400,60.220 285.007,60.047 286.100 C 60.021 286.265,60.135 286.379,60.300 286.353 C 61.119 286.223,61.555 286.452,61.377 286.916 C 61.256 287.232,61.725 287.629,62.589 287.942 C 63.416 288.241,64.000 288.721,64.000 289.102 C 64.000 289.649,63.901 289.629,63.378 288.976 C 62.783 288.234,62.775 288.240,63.203 289.120 C 63.448 289.626,64.088 290.240,64.625 290.484 C 65.161 290.728,65.600 291.052,65.600 291.203 C 65.600 291.782,67.124 293.200,67.747 293.200 C 68.148 293.200,68.412 293.547,68.432 294.100 C 68.449 294.595,68.554 294.775,68.665 294.500 C 68.975 293.731,69.572 293.908,69.415 294.722 C 69.318 295.223,69.845 295.800,71.138 296.609 C 72.162 297.250,73.198 298.032,73.439 298.348 C 73.703 298.693,74.087 298.793,74.401 298.599 C 74.746 298.386,74.827 298.433,74.638 298.738 C 74.481 298.992,74.554 299.200,74.800 299.200 C 75.046 299.200,75.128 299.392,74.983 299.627 C 74.838 299.862,75.096 300.152,75.555 300.272 C 76.015 300.393,76.336 300.605,76.270 300.745 C 76.203 300.885,76.565 301.399,77.074 301.886 C 77.583 302.373,78.000 302.598,78.000 302.386 C 78.000 302.174,78.174 302.000,78.387 302.000 C 78.601 302.000,78.668 302.277,78.538 302.616 C 78.408 302.955,78.459 303.190,78.651 303.137 C 79.399 302.932,80.771 303.679,81.006 304.420 C 81.143 304.849,81.432 305.200,81.651 305.200 C 81.869 305.200,81.917 305.411,81.758 305.668 C 81.562 305.985,81.689 306.051,82.155 305.873 C 82.566 305.715,82.743 305.769,82.595 306.007 C 82.460 306.226,82.676 306.526,83.075 306.674 C 83.474 306.821,83.890 307.049,84.000 307.180 C 84.461 307.730,86.416 308.800,86.959 308.800 C 87.282 308.800,87.659 309.156,87.797 309.592 C 87.936 310.027,88.173 310.352,88.324 310.313 C 88.983 310.143,90.400 310.904,90.400 311.427 C 90.400 311.742,90.681 312.000,91.024 312.000 C 91.393 312.000,91.531 312.188,91.362 312.462 C 91.193 312.736,91.251 312.815,91.506 312.658 C 91.742 312.512,92.220 312.677,92.568 313.025 C 92.915 313.373,93.206 313.509,93.213 313.329 C 93.220 313.148,93.490 313.349,93.813 313.776 C 94.136 314.204,94.406 314.384,94.413 314.176 C 94.420 313.969,94.645 314.070,94.913 314.400 C 95.181 314.730,95.670 315.000,96.000 315.000 C 96.330 315.000,96.552 315.234,96.494 315.519 C 96.435 315.804,96.621 315.984,96.905 315.919 C 97.190 315.854,97.453 315.955,97.488 316.145 C 97.558 316.517,99.462 317.600,100.046 317.600 C 100.241 317.600,100.781 317.981,101.247 318.447 C 101.931 319.131,102.161 319.189,102.441 318.747 C 102.772 318.225,102.987 318.693,102.861 319.659 C 102.842 319.802,103.356 319.882,104.002 319.837 C 104.649 319.792,105.108 319.826,105.022 319.911 C 104.683 320.251,106.472 321.621,107.114 321.514 C 107.491 321.451,107.762 321.604,107.716 321.853 C 107.669 322.102,107.849 322.299,108.116 322.290 C 109.451 322.246,110.024 322.437,109.774 322.843 C 109.588 323.143,109.782 323.196,110.373 323.009 C 110.998 322.810,111.453 322.969,111.970 323.566 C 112.368 324.025,113.034 324.400,113.451 324.400 C 113.867 324.400,114.432 324.760,114.707 325.200 C 114.982 325.640,115.621 326.000,116.128 326.000 C 116.635 326.000,117.418 326.344,117.870 326.765 C 118.321 327.185,119.030 327.500,119.445 327.465 C 119.860 327.429,120.155 327.625,120.100 327.900 C 120.045 328.175,120.349 328.400,120.776 328.400 C 121.203 328.400,121.664 328.580,121.800 328.800 C 121.936 329.020,122.679 329.200,123.452 329.200 C 124.721 329.200,126.232 330.034,125.781 330.486 C 125.681 330.585,125.862 330.667,126.182 330.667 C 126.503 330.667,126.672 330.517,126.559 330.333 C 126.445 330.150,126.531 330.000,126.749 330.000 C 126.968 330.000,127.255 330.342,127.387 330.759 C 127.561 331.309,127.956 331.496,128.814 331.436 C 129.593 331.382,130.000 331.543,130.000 331.904 C 130.000 332.260,130.265 332.370,130.753 332.215 C 131.241 332.060,131.594 332.207,131.757 332.633 C 131.922 333.062,132.295 333.216,132.829 333.076 C 133.298 332.954,133.732 333.080,133.844 333.371 C 133.951 333.650,134.598 333.895,135.281 333.915 C 135.963 333.934,136.672 334.186,136.855 334.475 C 137.038 334.764,137.191 323.896,137.194 310.324 C 137.198 292.097,137.079 285.573,136.738 285.362 C 136.435 285.174,136.376 285.269,136.568 285.638 C 136.741 285.972,136.645 285.943,136.330 285.565 C 136.038 285.216,135.591 285.000,135.337 285.086 C 135.082 285.172,134.739 285.025,134.575 284.759 C 134.385 284.453,134.445 284.381,134.738 284.562 C 134.992 284.719,135.200 284.752,135.200 284.635 C 135.200 284.519,134.476 284.092,133.592 283.686 C 132.708 283.281,132.117 282.816,132.280 282.653 C 132.443 282.491,132.237 282.488,131.822 282.647 C 131.239 282.871,131.146 282.808,131.411 282.368 C 131.686 281.912,131.605 281.919,131.000 282.400 C 130.586 282.730,130.374 282.787,130.530 282.527 C 130.702 282.240,130.346 281.777,129.629 281.353 C 128.977 280.968,128.533 280.508,128.643 280.331 C 128.752 280.154,128.562 280.116,128.221 280.247 C 127.879 280.378,127.600 280.286,127.600 280.043 C 127.600 279.799,127.150 279.600,126.600 279.600 C 126.050 279.600,125.600 279.448,125.600 279.261 C 125.600 278.532,123.891 277.006,123.200 277.119 C 122.799 277.185,122.356 277.052,122.215 276.824 C 122.058 276.570,122.239 276.498,122.679 276.637 C 123.076 276.763,122.905 276.539,122.300 276.140 C 121.695 275.741,121.200 275.266,121.200 275.084 C 121.200 274.902,121.019 274.865,120.797 275.002 C 120.576 275.139,120.286 274.969,120.154 274.625 C 120.022 274.281,119.653 274.000,119.334 274.000 C 119.014 274.000,118.864 273.820,119.000 273.600 C 119.136 273.380,118.967 273.200,118.624 273.200 C 118.281 273.200,118.000 273.020,118.000 272.800 C 118.000 272.580,117.719 272.400,117.376 272.400 C 117.033 272.400,116.845 272.250,116.958 272.068 C 117.071 271.885,116.542 271.491,115.782 271.193 C 114.542 270.707,114.236 270.357,114.337 269.547 C 114.354 269.408,114.068 269.318,113.700 269.347 C 113.332 269.376,112.959 269.053,112.872 268.628 C 112.682 267.701,111.794 266.740,111.448 267.086 C 111.311 267.222,111.197 267.078,111.194 266.767 C 111.189 266.300,111.119 266.306,110.800 266.800 C 110.507 267.254,110.411 267.269,110.406 266.864 C 110.398 266.175,106.429 262.335,106.000 262.600 C 105.821 262.711,105.774 262.396,105.896 261.901 C 106.018 261.405,105.982 261.124,105.816 261.276 C 105.407 261.650,104.428 260.701,104.706 260.200 C 104.828 259.980,104.786 259.929,104.612 260.086 C 103.933 260.698,102.708 259.597,103.261 258.872 C 103.543 258.502,103.624 258.326,103.441 258.480 C 103.051 258.806,100.808 256.744,101.070 256.300 C 101.167 256.135,100.956 256.000,100.600 256.000 C 100.244 256.000,100.064 255.820,100.200 255.600 C 100.336 255.380,100.159 255.200,99.806 255.200 C 99.453 255.200,99.218 254.970,99.282 254.690 C 99.428 254.055,97.851 252.000,97.219 252.000 C 96.963 252.000,96.864 251.820,97.000 251.600 C 97.136 251.380,97.057 251.200,96.824 251.200 C 96.591 251.200,96.400 250.846,96.400 250.413 C 96.400 249.841,96.217 249.695,95.731 249.882 C 95.223 250.077,95.123 249.977,95.318 249.469 C 95.459 249.101,95.401 248.800,95.187 248.800 C 94.974 248.800,94.800 248.545,94.800 248.233 C 94.800 247.922,94.665 247.607,94.500 247.533 C 93.835 247.238,92.010 244.708,92.218 244.371 C 92.341 244.172,92.192 244.105,91.887 244.222 C 91.509 244.367,91.343 244.143,91.366 243.517 C 91.390 242.859,91.204 242.633,90.706 242.716 C 90.261 242.791,90.087 242.638,90.221 242.290 C 90.448 241.699,89.401 239.400,88.906 239.400 C 88.738 239.400,88.643 239.085,88.695 238.700 C 88.748 238.315,88.613 238.000,88.395 238.000 C 88.178 238.000,88.000 237.724,88.000 237.387 C 88.000 237.051,87.750 236.679,87.444 236.562 C 87.123 236.438,86.974 236.022,87.091 235.574 C 87.228 235.049,87.089 234.800,86.659 234.800 C 86.261 234.800,86.110 234.578,86.254 234.203 C 86.385 233.863,86.208 233.501,85.842 233.361 C 85.489 233.225,85.200 232.872,85.200 232.576 C 85.200 231.681,84.306 230.011,83.946 230.233 C 83.761 230.348,83.716 230.162,83.847 229.821 C 83.983 229.467,83.874 229.200,83.594 229.200 C 83.208 229.200,83.209 229.071,83.600 228.600 C 83.944 228.185,83.959 228.000,83.649 228.000 C 83.402 228.000,83.200 227.662,83.200 227.249 C 83.200 226.836,82.922 226.267,82.582 225.985 C 82.242 225.703,82.059 225.224,82.175 224.921 C 82.291 224.618,82.121 224.268,81.796 224.143 C 81.471 224.018,81.304 223.755,81.426 223.558 C 81.548 223.361,81.446 223.200,81.200 223.200 C 80.954 223.200,80.863 223.022,80.997 222.805 C 81.132 222.587,80.888 221.611,80.457 220.635 C 80.025 219.660,79.776 218.757,79.903 218.631 C 80.030 218.504,79.901 218.400,79.618 218.400 C 79.219 218.400,79.208 218.272,79.570 217.836 C 79.891 217.450,79.906 217.189,79.619 217.012 C 79.389 216.869,79.200 216.328,79.200 215.810 C 79.200 215.291,79.009 214.803,78.776 214.725 C 78.543 214.648,78.342 213.958,78.330 213.192 C 78.319 212.426,78.055 211.395,77.745 210.900 C 77.435 210.405,77.298 210.000,77.440 210.000 C 77.582 210.000,77.474 209.730,77.200 209.400 C 76.799 208.916,76.808 208.799,77.251 208.794 C 77.657 208.789,77.675 208.708,77.319 208.482 C 77.033 208.300,76.797 206.993,76.738 205.262 C 76.683 203.659,76.494 202.258,76.319 202.150 C 76.144 202.041,76.000 200.153,76.000 197.953 C 76.000 195.492,75.852 194.044,75.615 194.191 C 75.395 194.326,75.267 193.923,75.315 193.253 C 75.362 192.607,75.555 192.173,75.745 192.290 C 76.068 192.489,75.779 189.039,75.344 187.500 C 75.235 187.115,75.318 186.800,75.527 186.800 C 75.741 186.800,75.906 185.207,75.904 183.170 C 75.901 181.008,76.082 179.358,76.350 179.090 C 76.597 178.843,76.800 177.517,76.800 176.144 C 76.800 174.771,76.980 173.536,77.200 173.400 C 77.420 173.264,77.600 172.563,77.600 171.843 C 77.600 171.123,77.730 170.403,77.889 170.244 C 78.048 170.085,78.220 169.306,78.271 168.513 C 78.321 167.719,78.506 166.964,78.681 166.835 C 78.857 166.706,79.061 166.150,79.135 165.600 C 79.209 165.050,79.434 164.429,79.635 164.220 C 79.836 164.011,80.000 163.246,80.000 162.520 C 80.000 161.794,80.180 161.200,80.400 161.200 C 80.620 161.200,80.800 160.761,80.800 160.224 C 80.800 159.687,80.996 159.126,81.235 158.978 C 81.474 158.831,81.591 158.410,81.495 158.043 C 81.399 157.676,81.564 157.150,81.861 156.872 C 82.157 156.595,82.400 156.016,82.400 155.584 C 82.400 155.153,82.580 154.800,82.800 154.800 C 83.020 154.800,83.200 154.609,83.200 154.376 C 83.200 154.143,82.975 154.067,82.700 154.207 C 82.425 154.347,82.605 154.103,83.100 153.666 C 83.961 152.906,84.392 151.710,83.637 152.177 C 83.438 152.300,83.480 151.966,83.731 151.435 C 83.982 150.903,84.287 150.530,84.409 150.605 C 84.725 150.801,85.735 148.402,85.455 148.122 C 85.327 147.994,85.667 147.360,86.211 146.714 C 86.755 146.067,87.200 145.182,87.200 144.746 C 87.200 144.310,87.360 144.051,87.555 144.172 C 87.750 144.293,87.885 144.078,87.855 143.696 C 87.824 143.311,88.037 143.049,88.330 143.110 C 88.703 143.187,88.779 142.964,88.587 142.360 C 88.407 141.792,88.461 141.590,88.745 141.766 C 89.144 142.013,90.606 139.402,90.462 138.700 C 90.428 138.535,90.641 138.400,90.936 138.400 C 91.231 138.400,91.710 137.679,92.001 136.798 C 92.291 135.917,92.612 135.278,92.712 135.379 C 93.023 135.689,94.000 134.495,94.000 133.805 C 94.000 133.446,94.180 133.264,94.400 133.400 C 94.620 133.536,94.800 133.368,94.800 133.027 C 94.800 132.686,95.160 132.182,95.600 131.907 C 96.040 131.632,96.400 131.092,96.400 130.707 C 96.400 130.322,96.760 129.782,97.200 129.507 C 97.640 129.232,98.000 128.770,98.000 128.480 C 98.000 128.190,98.180 128.064,98.400 128.200 C 98.784 128.437,98.960 127.926,98.837 126.930 C 98.805 126.672,99.110 126.222,99.516 125.930 C 99.921 125.639,100.369 125.088,100.511 124.707 C 100.681 124.252,101.004 124.103,101.450 124.275 C 101.880 124.440,102.034 124.379,101.868 124.110 C 101.723 123.876,101.874 123.581,102.202 123.454 C 102.531 123.328,102.800 122.949,102.800 122.613 C 102.800 122.276,102.991 122.000,103.224 122.000 C 103.457 122.000,103.537 121.822,103.403 121.605 C 103.266 121.383,103.416 121.308,103.745 121.434 C 104.118 121.577,104.684 121.140,105.301 120.232 C 105.834 119.447,106.390 118.923,106.535 119.069 C 106.681 119.214,106.800 119.132,106.800 118.885 C 106.800 118.638,107.250 117.986,107.800 117.436 C 108.350 116.886,108.800 116.248,108.800 116.018 C 108.800 115.788,109.050 115.600,109.356 115.600 C 109.661 115.600,110.255 115.285,110.675 114.900 C 111.094 114.515,111.204 114.357,110.919 114.549 C 110.592 114.769,110.400 114.728,110.400 114.439 C 110.400 114.187,110.940 113.872,111.600 113.740 C 112.260 113.608,112.800 113.332,112.800 113.126 C 112.800 112.921,112.620 112.864,112.400 113.000 C 112.180 113.136,112.000 113.137,112.000 113.003 C 112.000 112.868,112.540 112.570,113.200 112.340 C 114.293 111.959,114.577 111.606,114.300 110.970 C 114.245 110.843,114.920 110.400,115.800 109.984 C 116.680 109.568,117.220 109.217,117.000 109.204 C 116.780 109.192,117.190 108.891,117.911 108.535 C 118.632 108.180,119.132 107.799,119.022 107.689 C 118.912 107.579,119.537 107.135,120.411 106.703 C 121.285 106.270,122.000 105.655,122.000 105.335 C 122.000 105.015,122.160 104.851,122.355 104.972 C 122.550 105.093,122.930 104.925,123.200 104.600 C 123.470 104.275,123.850 104.107,124.045 104.228 C 124.240 104.349,124.400 104.137,124.400 103.757 C 124.400 103.377,124.518 103.184,124.662 103.328 C 124.805 103.472,125.480 103.007,126.161 102.295 C 126.841 101.583,127.534 101.045,127.699 101.100 C 127.865 101.155,128.003 100.975,128.006 100.700 C 128.010 100.367,128.142 100.400,128.400 100.800 C 128.658 101.200,128.790 101.233,128.794 100.900 C 128.797 100.625,129.064 100.400,129.387 100.400 C 129.771 100.400,129.886 100.169,129.719 99.734 C 129.554 99.304,129.621 99.166,129.907 99.343 C 130.151 99.494,130.555 99.298,130.806 98.908 C 131.231 98.246,131.246 98.246,131.043 98.900 C 130.923 99.285,130.999 99.600,131.213 99.600 C 131.426 99.600,131.600 99.407,131.600 99.171 C 131.600 98.535,132.539 97.713,133.066 97.889 C 133.319 97.973,133.788 97.667,134.109 97.208 C 134.430 96.750,135.077 96.301,135.546 96.210 C 136.015 96.120,136.799 95.766,137.288 95.423 C 137.778 95.080,138.421 94.800,138.718 94.800 C 139.298 94.800,140.467 93.801,140.200 93.533 C 140.111 93.444,140.503 93.333,141.072 93.286 C 141.641 93.239,142.452 92.801,142.875 92.313 C 143.298 91.826,144.099 91.421,144.654 91.413 C 145.210 91.406,145.920 91.051,146.232 90.624 C 146.639 90.068,146.804 90.011,146.813 90.424 C 146.823 90.895,146.914 90.884,147.313 90.365 C 147.581 90.016,148.070 89.711,148.400 89.688 C 149.718 89.597,150.480 89.319,150.792 88.814 C 150.989 88.493,151.408 88.394,151.847 88.563 C 152.248 88.717,152.444 88.711,152.284 88.551 C 151.992 88.259,154.474 87.175,155.595 87.104 C 155.923 87.084,156.432 86.825,156.727 86.530 C 157.023 86.234,157.430 86.095,157.632 86.220 C 157.835 86.345,158.003 86.122,158.006 85.724 C 158.011 85.122,158.075 85.099,158.385 85.589 C 158.701 86.089,158.799 86.069,159.034 85.455 C 159.252 84.887,159.384 84.847,159.650 85.266 C 159.903 85.666,159.989 85.674,159.994 85.300 C 159.997 85.025,160.372 84.800,160.826 84.800 C 161.281 84.800,161.991 84.619,162.405 84.397 C 162.819 84.176,163.604 83.958,164.150 83.912 C 164.696 83.867,165.055 83.688,164.948 83.515 C 164.840 83.342,165.404 83.200,166.200 83.200 C 167.063 83.200,167.547 83.039,167.400 82.800 C 167.161 82.414,167.713 82.277,169.400 82.303 C 169.840 82.309,170.315 82.131,170.455 81.907 C 170.594 81.683,171.172 81.500,171.738 81.500 C 172.304 81.500,172.729 81.298,172.683 81.050 C 172.629 80.756,173.206 80.648,174.348 80.739 C 175.543 80.834,176.010 80.739,175.824 80.439 C 175.556 80.005,176.003 79.919,178.600 79.909 C 179.260 79.906,179.919 79.716,180.064 79.486 C 180.209 79.257,181.051 79.052,181.934 79.031 C 182.818 79.010,183.674 78.859,183.837 78.696 C 184.000 78.533,184.607 78.400,185.187 78.400 C 185.766 78.400,186.456 78.184,186.720 77.920 C 187.093 77.547,187.200 77.564,187.200 78.000 C 187.200 78.436,187.307 78.453,187.680 78.080 C 187.944 77.816,188.945 77.600,189.904 77.600 C 190.863 77.600,191.560 77.459,191.453 77.286 C 191.229 76.923,191.420 76.901,196.081 76.764 C 197.995 76.708,199.470 76.513,199.357 76.331 C 199.142 75.983,201.822 75.861,206.747 75.994 C 208.794 76.050,209.611 75.941,209.423 75.637 C 209.255 75.366,209.529 75.200,210.143 75.200 C 210.688 75.200,211.224 75.425,211.335 75.700 C 211.496 76.100,211.543 76.100,211.568 75.700 C 211.586 75.425,211.791 75.200,212.024 75.200 C 212.257 75.200,212.336 75.380,212.200 75.600 C 212.060 75.827,212.396 76.000,212.976 76.000 C 213.539 76.000,214.000 75.814,214.000 75.587 C 214.000 75.116,216.755 75.203,217.052 75.684 C 217.332 76.138,219.107 76.074,219.400 75.600 C 219.722 75.079,221.600 75.079,221.600 75.600 C 221.600 75.847,223.675 76.000,227.024 76.000 C 230.007 76.000,232.350 76.157,232.232 76.348 C 232.114 76.539,232.598 76.702,233.309 76.709 C 237.705 76.753,238.430 76.827,238.194 77.210 C 237.871 77.732,238.900 77.536,239.294 77.000 C 239.482 76.744,239.590 76.761,239.594 77.049 C 239.597 77.311,240.379 77.514,241.468 77.536 C 242.511 77.557,243.483 77.800,243.668 78.087 C 243.931 78.494,244.081 78.476,244.394 78.000 C 244.657 77.599,244.790 77.566,244.794 77.900 C 244.798 78.204,245.350 78.400,246.200 78.400 C 246.970 78.400,247.600 78.559,247.600 78.753 C 247.600 78.947,248.333 79.116,249.229 79.128 C 250.125 79.141,251.070 79.318,251.329 79.523 C 251.588 79.727,252.410 79.907,253.155 79.922 C 253.900 79.937,254.701 80.141,254.935 80.375 C 255.169 80.609,256.145 80.800,257.104 80.800 C 258.063 80.800,258.746 80.964,258.622 81.165 C 258.498 81.366,258.712 81.479,259.098 81.417 C 259.484 81.355,260.160 81.498,260.600 81.734 C 261.040 81.971,261.940 82.202,262.600 82.247 C 263.260 82.293,264.200 82.456,264.689 82.609 C 265.177 82.762,265.697 82.852,265.844 82.810 C 265.991 82.767,266.221 82.882,266.355 83.066 C 266.744 83.597,269.686 84.863,269.380 84.367 C 269.180 84.043,269.338 84.046,269.952 84.374 C 270.418 84.624,270.800 85.002,270.800 85.214 C 270.800 85.426,271.239 85.600,271.776 85.600 C 272.313 85.600,272.866 85.783,273.004 86.007 C 273.142 86.230,273.408 86.318,273.595 86.203 C 273.782 86.087,274.175 86.223,274.468 86.504 C 274.760 86.786,275.420 86.991,275.933 86.961 C 276.446 86.931,276.960 87.152,277.076 87.453 C 277.191 87.754,277.457 88.000,277.666 88.000 C 277.876 88.000,277.931 87.775,277.789 87.500 C 277.647 87.225,277.922 87.450,278.400 88.000 C 278.878 88.550,279.142 88.756,278.985 88.459 C 278.801 88.106,279.089 88.171,279.809 88.643 C 280.418 89.042,281.288 89.425,281.741 89.494 C 282.194 89.564,282.708 89.841,282.883 90.110 C 283.129 90.490,283.278 90.478,283.549 90.059 C 283.823 89.634,284.037 89.718,284.549 90.448 C 284.907 90.960,285.200 91.226,285.200 91.040 C 285.200 90.854,285.470 90.926,285.800 91.200 C 286.130 91.474,286.406 91.541,286.413 91.349 C 286.420 91.157,286.669 91.322,286.968 91.715 C 287.266 92.108,287.665 92.402,287.855 92.368 C 289.088 92.145,290.168 92.435,289.600 92.837 C 289.133 93.169,289.248 93.223,290.123 93.082 C 290.958 92.948,291.192 93.043,291.036 93.451 C 290.916 93.763,291.079 94.000,291.413 94.000 C 291.736 94.000,292.000 94.180,292.000 94.400 C 292.000 94.620,292.371 94.800,292.824 94.800 C 293.334 94.800,293.541 94.972,293.368 95.252 C 293.201 95.521,293.303 95.632,293.619 95.527 C 293.911 95.430,294.497 95.697,294.922 96.122 C 295.485 96.685,295.775 96.764,295.992 96.414 C 296.210 96.061,296.351 96.094,296.522 96.540 C 296.650 96.874,297.147 97.357,297.626 97.614 C 298.335 97.994,298.436 97.980,298.171 97.540 C 297.903 97.093,297.963 97.094,298.519 97.545 C 298.889 97.845,299.075 98.278,298.934 98.507 C 298.792 98.736,298.864 98.808,299.093 98.666 C 299.322 98.525,299.732 98.677,300.004 99.004 C 300.276 99.332,300.740 99.600,301.035 99.600 C 301.330 99.600,301.767 99.965,302.006 100.411 C 302.245 100.857,302.612 101.116,302.823 100.986 C 303.033 100.856,303.309 101.019,303.436 101.349 C 303.563 101.679,303.920 101.852,304.230 101.733 C 304.540 101.614,304.904 101.806,305.039 102.158 C 305.175 102.511,305.626 102.800,306.043 102.800 C 306.522 102.800,306.800 103.081,306.800 103.565 C 306.800 104.144,307.044 104.303,307.806 104.219 C 308.580 104.134,308.867 104.330,309.052 105.067 C 309.228 105.765,309.488 105.962,310.014 105.796 C 310.512 105.638,310.816 105.822,310.997 106.389 C 311.140 106.841,311.425 107.108,311.629 106.982 C 311.833 106.856,312.000 106.956,312.000 107.205 C 312.000 107.871,313.045 108.800,313.795 108.800 C 314.154 108.800,314.336 108.980,314.200 109.200 C 314.064 109.420,314.323 109.600,314.776 109.600 C 315.229 109.600,315.600 109.780,315.600 110.000 C 315.600 110.220,315.915 110.414,316.300 110.432 C 316.745 110.452,316.812 110.539,316.484 110.670 C 316.113 110.819,316.212 111.090,316.835 111.631 C 317.313 112.045,317.864 112.284,318.062 112.162 C 318.259 112.040,318.394 112.089,318.363 112.270 C 318.207 113.166,318.456 113.664,318.962 113.470 C 319.272 113.351,319.857 113.633,320.262 114.096 C 320.776 114.682,320.818 114.847,320.400 114.639 C 320.070 114.475,320.160 114.627,320.600 114.978 C 321.040 115.328,321.715 115.880,322.100 116.204 C 322.485 116.527,322.801 116.659,322.803 116.496 C 322.804 116.333,323.133 116.696,323.533 117.303 C 323.933 117.910,324.382 118.285,324.530 118.137 C 324.679 117.988,324.806 118.122,324.814 118.433 C 324.822 118.745,325.292 119.540,325.858 120.200 C 326.425 120.860,326.769 121.177,326.623 120.905 C 326.451 120.583,326.564 120.488,326.943 120.634 C 327.265 120.757,327.637 121.295,327.772 121.829 C 327.927 122.448,328.302 122.800,328.808 122.800 C 329.243 122.800,329.600 122.974,329.600 123.187 C 329.600 123.401,329.291 123.456,328.913 123.311 C 328.306 123.078,328.294 123.120,328.811 123.674 C 329.133 124.018,329.624 124.212,329.902 124.105 C 330.238 123.977,330.323 124.135,330.155 124.572 C 330.016 124.935,330.059 125.180,330.251 125.116 C 330.443 125.052,330.633 125.149,330.674 125.330 C 330.714 125.512,331.147 126.007,331.635 126.430 C 332.123 126.854,332.360 127.206,332.161 127.213 C 331.963 127.221,332.225 127.581,332.744 128.013 C 333.264 128.446,333.551 128.800,333.383 128.800 C 333.215 128.800,333.465 129.136,333.939 129.547 C 334.412 129.958,334.800 130.607,334.800 130.990 C 334.800 131.465,335.004 131.607,335.445 131.438 C 335.899 131.264,336.023 131.364,335.865 131.775 C 335.728 132.131,335.945 132.456,336.420 132.606 C 336.849 132.743,337.200 133.122,337.200 133.451 C 337.200 133.804,337.391 133.929,337.668 133.758 C 337.981 133.565,338.053 133.685,337.885 134.123 C 337.747 134.483,337.896 135.039,338.217 135.360 C 338.538 135.681,338.800 136.136,338.800 136.371 C 338.800 136.607,338.950 136.800,339.132 136.800 C 339.315 136.800,339.719 137.295,340.030 137.900 C 340.341 138.505,341.086 139.791,341.685 140.759 C 342.285 141.726,342.680 142.671,342.564 142.859 C 342.448 143.046,342.623 143.200,342.953 143.200 C 343.339 143.200,343.499 143.487,343.400 144.000 C 343.303 144.501,343.461 144.800,343.823 144.800 C 344.140 144.800,344.400 145.101,344.400 145.469 C 344.400 145.836,344.715 146.497,345.100 146.937 C 345.485 147.377,345.575 147.606,345.300 147.445 C 345.025 147.284,344.800 147.343,344.800 147.576 C 344.800 147.809,344.980 148.000,345.200 148.000 C 345.420 148.000,345.600 148.188,345.600 148.417 C 345.600 148.647,346.024 149.292,346.541 149.850 C 347.103 150.456,347.440 151.256,347.376 151.835 C 347.318 152.368,347.389 152.732,347.535 152.644 C 347.681 152.556,348.020 152.722,348.288 153.013 C 348.673 153.429,348.673 153.576,348.288 153.706 C 347.925 153.828,347.954 154.056,348.400 154.596 C 348.730 154.996,349.003 155.610,349.006 155.961 C 349.009 156.313,349.185 156.870,349.396 157.200 C 349.606 157.530,349.791 157.980,349.807 158.200 C 349.822 158.420,350.184 159.410,350.609 160.400 C 351.035 161.390,351.333 162.364,351.271 162.563 C 351.209 162.763,351.366 163.055,351.620 163.213 C 351.875 163.370,352.129 164.188,352.186 165.031 C 352.242 165.873,352.495 166.632,352.747 166.716 C 352.999 166.800,353.110 167.021,352.995 167.209 C 352.879 167.396,352.975 168.325,353.208 169.274 C 353.441 170.223,353.674 171.180,353.727 171.400 C 353.779 171.620,353.980 172.053,354.173 172.362 C 354.413 172.747,354.378 172.834,354.062 172.638 C 353.808 172.481,353.600 172.528,353.600 172.743 C 353.600 172.958,353.770 173.193,353.978 173.267 C 354.186 173.340,354.398 174.345,354.449 175.500 C 354.501 176.655,354.691 177.600,354.871 177.600 C 355.052 177.600,355.200 177.791,355.200 178.024 C 355.200 178.257,355.020 178.336,354.800 178.200 C 354.580 178.064,354.400 178.133,354.400 178.353 C 354.400 178.573,354.580 178.864,354.800 179.000 C 355.021 179.136,355.200 180.930,355.200 183.000 C 355.200 185.070,355.379 186.864,355.600 187.000 C 355.820 187.136,356.000 187.517,356.000 187.847 C 356.000 188.177,355.858 188.360,355.685 188.252 C 355.512 188.145,355.333 188.505,355.288 189.051 C 355.240 189.623,355.374 189.940,355.603 189.798 C 355.844 189.649,355.984 190.228,355.960 191.276 C 355.926 192.733,355.871 192.845,355.600 192.000 C 355.299 191.060,355.277 191.079,355.240 192.324 C 355.216 193.113,355.362 193.547,355.600 193.400 C 355.820 193.264,356.000 193.343,356.000 193.576 C 356.000 193.809,355.830 194.000,355.623 194.000 C 355.415 194.000,355.242 195.714,355.236 197.844 C 355.229 200.359,355.049 201.906,354.713 202.320 C 354.320 202.806,354.317 202.883,354.700 202.653 C 354.975 202.488,355.200 202.533,355.200 202.753 C 355.200 202.973,355.017 203.266,354.794 203.404 C 354.570 203.542,354.417 204.504,354.454 205.541 C 354.491 206.578,354.314 207.814,354.060 208.287 C 353.807 208.760,353.600 209.599,353.600 210.150 C 353.600 210.702,353.432 211.257,353.227 211.383 C 353.022 211.510,352.869 212.159,352.888 212.826 C 352.907 213.492,352.715 214.245,352.461 214.499 C 352.208 214.752,352.000 215.338,352.000 215.800 C 352.000 216.262,351.784 216.856,351.520 217.120 C 351.147 217.493,351.147 217.707,351.520 218.080 C 351.784 218.344,351.997 218.749,351.994 218.980 C 351.991 219.211,351.813 219.130,351.600 218.800 C 351.286 218.315,351.211 218.372,351.206 219.100 C 351.203 219.595,351.020 220.000,350.800 220.000 C 350.580 220.000,350.400 220.414,350.400 220.920 C 350.400 221.426,350.231 222.011,350.025 222.220 C 349.818 222.429,349.576 223.050,349.486 223.600 C 349.396 224.150,349.186 224.915,349.019 225.300 C 348.851 225.685,348.822 226.279,348.953 226.621 C 349.084 226.962,349.033 227.144,348.839 227.024 C 348.416 226.763,347.200 228.519,347.200 229.391 C 347.200 229.732,347.020 230.368,346.800 230.805 C 346.580 231.242,346.220 231.958,346.000 232.395 C 345.780 232.832,345.587 233.507,345.572 233.895 C 345.548 234.504,345.497 234.491,345.200 233.800 C 344.869 233.030,344.855 233.033,344.828 233.881 C 344.787 235.168,343.948 236.815,343.480 236.526 C 343.258 236.389,343.185 236.452,343.317 236.666 C 343.450 236.881,343.208 237.633,342.779 238.338 C 342.351 239.043,342.000 239.977,342.000 240.414 C 342.000 240.850,341.640 241.516,341.200 241.893 C 340.760 242.270,340.400 242.898,340.400 243.289 C 340.400 243.936,339.948 244.190,339.070 244.037 C 338.889 244.006,338.853 244.162,338.991 244.385 C 339.129 244.608,338.782 245.286,338.221 245.891 C 337.659 246.497,337.200 247.269,337.200 247.608 C 337.200 247.946,336.840 248.483,336.400 248.800 C 335.960 249.117,335.600 249.657,335.600 249.999 C 335.600 250.661,334.258 252.000,333.595 252.000 C 333.378 252.000,333.200 252.251,333.200 252.557 C 333.200 252.864,332.919 253.222,332.575 253.354 C 332.231 253.486,332.061 253.776,332.198 253.997 C 332.335 254.219,332.246 254.400,332.000 254.400 C 331.754 254.400,331.664 254.580,331.800 254.800 C 331.936 255.020,331.844 255.200,331.595 255.200 C 331.089 255.200,330.430 255.845,329.737 257.017 C 329.483 257.448,329.099 257.762,328.884 257.716 C 328.669 257.669,328.387 258.166,328.256 258.819 C 328.126 259.472,327.880 259.984,327.709 259.956 C 326.943 259.831,326.400 260.037,326.400 260.453 C 326.400 260.702,326.028 261.229,325.574 261.623 C 325.119 262.017,324.759 262.443,324.774 262.570 C 324.788 262.696,324.716 262.806,324.613 262.813 C 324.510 262.820,323.394 263.855,322.132 265.113 C 320.871 266.371,319.993 267.147,320.181 266.838 C 320.419 266.448,320.377 266.367,320.042 266.574 C 319.674 266.802,319.671 267.003,320.030 267.436 C 320.398 267.880,320.367 268.000,319.882 268.000 C 319.544 268.000,319.191 268.135,319.099 268.300 C 319.007 268.465,318.986 268.375,319.053 268.100 C 319.256 267.267,318.913 267.513,316.961 269.600 C 315.932 270.700,314.835 271.600,314.522 271.600 C 314.209 271.600,314.064 271.780,314.200 272.000 C 314.336 272.220,314.066 272.400,313.600 272.400 C 313.134 272.400,312.864 272.580,313.000 272.800 C 313.136 273.020,313.012 273.203,312.724 273.206 C 312.343 273.211,312.364 273.318,312.800 273.600 C 313.306 273.927,313.285 273.989,312.662 273.994 C 311.813 274.001,309.648 275.427,308.873 276.490 C 308.583 276.888,308.175 277.108,307.966 276.979 C 307.758 276.850,306.955 277.395,306.184 278.190 C 305.412 278.985,304.605 279.526,304.390 279.394 C 304.176 279.261,304.000 279.307,304.000 279.496 C 304.000 279.685,303.370 280.067,302.600 280.346 C 301.830 280.624,301.200 281.089,301.200 281.379 C 301.200 281.669,300.885 282.012,300.500 282.142 C 300.115 282.271,299.530 282.549,299.200 282.760 C 298.870 282.970,298.276 283.243,297.880 283.366 C 297.203 283.577,297.209 283.643,297.980 284.471 C 298.431 284.955,298.800 285.587,298.800 285.875 C 298.800 286.164,298.950 286.400,299.132 286.400 C 299.315 286.400,299.720 286.895,300.032 287.500 C 300.345 288.105,300.915 288.949,301.300 289.375 C 301.685 289.802,302.000 290.387,302.000 290.675 C 302.000 290.964,302.151 291.200,302.336 291.200 C 302.520 291.200,302.880 291.657,303.134 292.215 C 303.388 292.773,303.781 293.448,304.006 293.715 C 304.770 294.620,308.800 301.284,308.800 301.643 C 308.800 301.839,308.950 302.000,309.132 302.000 C 309.315 302.000,309.720 302.495,310.032 303.100 C 310.345 303.705,310.915 304.549,311.300 304.975 C 311.685 305.402,312.000 305.987,312.000 306.275 C 312.000 306.564,312.180 306.800,312.400 306.800 C 312.620 306.800,312.800 307.070,312.800 307.400 C 312.800 308.030,313.595 308.151,315.096 307.749 C 315.588 307.617,315.892 307.350,315.772 307.155 C 315.651 306.960,315.743 306.778,315.976 306.750 C 316.209 306.723,316.595 306.678,316.833 306.650 C 317.072 306.623,317.747 306.134,318.333 305.564 C 318.920 304.994,319.726 304.410,320.125 304.267 C 320.524 304.123,320.739 303.824,320.602 303.603 C 320.465 303.381,320.628 303.200,320.964 303.200 C 321.343 303.200,321.487 302.972,321.345 302.600 C 321.218 302.270,321.299 302.000,321.524 302.000 C 321.749 302.000,322.024 302.225,322.135 302.500 C 322.257 302.802,322.349 302.725,322.368 302.308 C 322.386 301.917,322.836 301.506,323.400 301.364 C 323.950 301.226,324.400 300.852,324.400 300.533 C 324.400 300.214,324.560 300.051,324.755 300.172 C 324.950 300.292,325.203 300.033,325.317 299.596 C 325.431 299.158,325.783 298.800,326.098 298.800 C 326.414 298.800,326.881 298.340,327.137 297.777 C 327.394 297.215,327.756 296.849,327.941 296.964 C 328.127 297.079,328.672 296.721,329.151 296.170 C 329.631 295.618,330.202 295.278,330.422 295.413 C 330.641 295.549,330.794 295.511,330.763 295.330 C 330.617 294.489,330.865 294.076,331.640 293.874 C 332.181 293.732,332.372 293.478,332.175 293.159 C 331.966 292.821,332.066 292.740,332.489 292.902 C 332.950 293.079,333.058 292.942,332.908 292.370 C 332.794 291.932,332.910 291.600,333.177 291.600 C 333.436 291.600,333.536 291.780,333.400 292.000 C 333.264 292.220,333.331 292.400,333.549 292.400 C 333.768 292.400,334.057 292.049,334.194 291.620 C 334.330 291.192,334.775 290.735,335.184 290.605 C 335.593 290.475,336.169 290.061,336.464 289.685 C 336.954 289.059,336.931 289.048,336.200 289.552 C 335.760 289.856,335.970 289.556,336.668 288.887 C 337.365 288.217,337.815 287.535,337.668 287.371 C 337.520 287.207,337.732 287.192,338.137 287.338 C 338.669 287.529,338.932 287.380,339.084 286.802 C 339.199 286.361,339.452 286.000,339.647 286.000 C 339.841 286.000,340.000 285.640,340.000 285.200 C 340.000 284.639,340.269 284.398,340.900 284.394 C 341.570 284.389,341.659 284.298,341.247 284.038 C 340.813 283.763,340.879 283.629,341.553 283.415 C 342.025 283.265,342.308 282.975,342.182 282.771 C 342.056 282.567,342.233 282.400,342.576 282.400 C 342.919 282.400,343.155 282.262,343.100 282.092 C 343.045 281.923,343.405 281.349,343.900 280.817 C 344.395 280.285,344.800 279.703,344.800 279.525 C 344.800 279.346,345.160 279.200,345.600 279.200 C 346.456 279.200,346.739 278.418,345.900 278.373 C 345.625 278.358,345.801 278.152,346.291 277.916 C 346.781 277.679,347.288 277.151,347.418 276.743 C 347.548 276.334,347.957 275.997,348.327 275.994 C 348.908 275.989,348.918 275.935,348.400 275.600 C 347.910 275.283,347.956 275.211,348.653 275.206 C 349.578 275.199,350.234 273.769,349.458 273.451 C 349.206 273.348,349.315 273.249,349.700 273.232 C 350.085 273.214,350.400 272.930,350.400 272.600 C 350.400 272.270,350.591 272.000,350.824 272.000 C 351.057 272.000,351.136 272.180,351.000 272.400 C 350.864 272.620,350.849 272.800,350.966 272.800 C 351.379 272.800,352.364 270.497,352.084 270.187 C 351.928 270.013,352.056 270.020,352.368 270.201 C 352.795 270.449,352.870 270.361,352.673 269.845 C 352.507 269.413,352.566 269.255,352.832 269.419 C 353.064 269.563,353.351 269.308,353.470 268.853 C 353.589 268.399,354.027 267.918,354.443 267.786 C 354.859 267.654,355.200 267.288,355.200 266.973 C 355.200 266.658,355.374 266.400,355.587 266.400 C 355.801 266.400,355.871 266.130,355.745 265.800 C 355.595 265.410,355.755 265.200,356.204 265.200 C 356.703 265.200,356.834 264.973,356.678 264.376 C 356.548 263.878,356.682 263.467,357.016 263.339 C 357.320 263.222,357.679 262.780,357.814 262.357 C 357.948 261.934,358.252 261.709,358.491 261.856 C 358.743 262.012,358.809 261.938,358.648 261.678 C 358.496 261.432,358.918 260.477,359.586 259.556 C 360.254 258.634,360.800 257.656,360.800 257.383 C 360.800 257.109,361.096 256.772,361.457 256.633 C 361.819 256.495,362.011 256.277,361.884 256.150 C 361.757 256.024,362.181 255.191,362.827 254.300 C 363.472 253.409,364.000 252.509,364.000 252.300 C 364.000 251.554,365.374 248.987,366.141 248.300 C 366.901 247.619,366.902 247.600,366.161 247.587 C 365.499 247.576,365.478 247.510,366.000 247.078 C 367.157 246.121,369.350 242.000,368.702 242.000 C 368.469 242.000,368.665 241.664,369.139 241.253 C 369.612 240.842,370.000 240.212,370.000 239.853 C 370.000 239.494,370.162 239.200,370.360 239.200 C 370.558 239.200,370.684 238.671,370.639 238.025 C 370.594 237.379,370.702 236.940,370.879 237.049 C 371.185 237.238,371.314 236.649,371.306 235.094 C 371.304 234.506,371.406 234.472,371.918 234.894 C 372.452 235.333,372.498 235.259,372.267 234.333 C 372.103 233.675,372.175 233.208,372.454 233.115 C 372.703 233.032,372.928 232.386,372.953 231.679 C 372.983 230.858,373.173 230.459,373.480 230.576 C 373.756 230.682,373.871 230.529,373.751 230.216 C 373.636 229.917,373.793 229.161,374.100 228.536 C 374.407 227.911,374.587 227.085,374.500 226.700 C 374.413 226.315,374.535 226.000,374.771 226.000 C 375.007 226.000,375.200 225.670,375.200 225.267 C 375.200 224.863,375.335 224.398,375.500 224.233 C 375.829 223.904,375.876 223.690,375.950 222.176 C 375.978 221.613,376.135 221.236,376.300 221.337 C 376.465 221.439,376.648 220.955,376.706 220.261 C 376.867 218.356,377.015 217.651,377.322 217.345 C 377.475 217.192,377.600 216.276,377.600 215.310 C 377.600 214.343,377.735 213.636,377.900 213.737 C 378.065 213.838,378.221 213.362,378.247 212.678 C 378.272 211.995,378.497 211.368,378.747 211.284 C 379.003 211.199,379.200 210.270,379.200 209.143 C 379.200 207.886,379.351 207.246,379.610 207.406 C 379.835 207.545,379.994 207.511,379.963 207.330 C 379.732 206.005,380.067 202.394,380.400 202.600 C 380.620 202.736,380.800 202.567,380.800 202.224 C 380.800 201.881,380.575 201.597,380.300 201.594 C 379.969 201.590,379.943 201.489,380.224 201.294 C 380.457 201.132,380.698 200.103,380.760 199.007 C 380.821 197.910,381.026 196.725,381.215 196.372 C 381.699 195.468,381.664 167.513,381.179 167.813 C 380.963 167.946,380.811 167.472,380.829 166.725 C 380.895 164.080,380.712 162.400,380.360 162.400 C 380.162 162.400,380.000 162.130,380.000 161.800 C 380.000 161.470,380.180 161.200,380.400 161.200 C 380.861 161.200,380.763 160.319,380.261 159.952 C 380.075 159.816,379.903 158.736,379.878 157.552 C 379.854 156.369,379.693 155.300,379.521 155.179 C 379.348 155.057,379.167 154.035,379.118 152.908 C 379.069 151.781,378.887 150.946,378.714 151.053 C 378.541 151.160,378.400 150.697,378.400 150.024 C 378.400 149.351,378.220 148.800,378.000 148.800 C 377.780 148.800,377.600 148.609,377.600 148.376 C 377.600 148.143,377.774 148.060,377.986 148.191 C 378.198 148.322,378.110 147.803,377.790 147.037 C 377.470 146.271,377.313 145.320,377.442 144.922 C 377.637 144.319,377.604 144.299,377.244 144.800 C 376.908 145.266,376.811 145.021,376.806 143.700 C 376.803 142.765,376.620 142.000,376.400 142.000 C 376.180 142.000,376.000 141.475,376.000 140.833 C 376.000 140.192,375.775 139.576,375.500 139.465 C 375.102 139.304,375.103 139.257,375.503 139.232 C 375.857 139.209,375.896 138.992,375.633 138.500 C 375.053 137.416,374.687 136.285,374.603 135.316 C 374.560 134.831,374.272 134.121,373.963 133.740 C 373.634 133.335,373.601 133.167,373.883 133.336 C 374.206 133.530,374.174 133.258,373.786 132.513 C 373.466 131.901,373.204 131.164,373.202 130.876 C 373.201 130.588,373.020 130.464,372.800 130.600 C 372.425 130.832,372.313 130.272,372.297 128.100 C 372.293 127.605,372.135 127.200,371.945 127.200 C 371.755 127.200,371.600 126.874,371.600 126.476 C 371.600 126.079,371.350 125.411,371.044 124.993 C 370.739 124.575,370.590 123.970,370.714 123.647 C 370.868 123.245,370.749 123.134,370.332 123.294 C 369.860 123.475,369.769 123.298,369.922 122.498 C 370.075 121.694,369.984 121.520,369.504 121.705 C 369.054 121.877,368.943 121.740,369.087 121.190 C 369.195 120.777,368.904 119.908,368.441 119.258 C 367.979 118.608,367.600 117.773,367.600 117.401 C 367.600 117.030,367.240 116.269,366.800 115.709 C 366.360 115.150,366.000 114.446,366.000 114.146 C 366.000 113.846,365.809 113.600,365.576 113.600 C 365.343 113.600,365.265 113.419,365.402 113.197 C 365.539 112.976,365.359 112.682,365.002 112.546 C 364.646 112.409,364.441 112.070,364.548 111.792 C 364.654 111.515,364.426 110.949,364.040 110.535 C 363.655 110.121,363.413 109.562,363.503 109.291 C 363.593 109.021,363.472 108.800,363.233 108.800 C 362.995 108.800,362.800 108.530,362.800 108.200 C 362.800 107.870,362.620 107.600,362.400 107.600 C 362.180 107.600,362.000 107.331,362.000 107.003 C 362.000 106.675,361.647 106.000,361.215 105.503 C 360.783 105.006,360.412 104.420,360.391 104.200 C 360.369 103.980,360.028 103.440,359.633 103.000 C 359.237 102.560,358.670 101.628,358.372 100.929 C 358.074 100.230,357.691 99.744,357.520 99.850 C 357.349 99.955,357.328 99.733,357.473 99.355 C 357.650 98.893,357.585 98.762,357.273 98.955 C 356.970 99.142,356.892 99.026,357.047 98.621 C 357.178 98.279,357.098 98.000,356.870 98.000 C 356.641 98.000,356.337 97.631,356.193 97.179 C 356.050 96.728,355.330 95.810,354.594 95.140 C 353.806 94.423,353.346 93.684,353.477 93.344 C 353.598 93.027,353.541 92.820,353.349 92.884 C 353.157 92.948,352.928 92.820,352.840 92.600 C 352.752 92.380,352.392 91.981,352.040 91.713 C 351.688 91.445,351.542 91.220,351.716 91.213 C 351.889 91.206,351.799 90.949,351.516 90.642 C 351.232 90.335,350.837 90.183,350.638 90.304 C 350.439 90.425,350.390 90.339,350.530 90.113 C 350.669 89.888,350.431 89.297,350.000 88.800 C 349.569 88.303,349.284 87.785,349.366 87.648 C 349.553 87.338,348.526 86.360,348.108 86.449 C 347.939 86.486,347.437 85.800,346.993 84.927 C 346.550 84.053,345.965 83.412,345.693 83.502 C 345.422 83.593,345.200 83.461,345.200 83.210 C 345.200 82.958,345.039 82.852,344.842 82.974 C 344.645 83.096,344.377 82.917,344.246 82.577 C 344.102 82.199,344.175 82.061,344.434 82.221 C 344.668 82.366,344.622 82.105,344.333 81.642 C 344.044 81.179,343.446 80.786,343.004 80.768 C 342.528 80.750,342.416 80.651,342.728 80.526 C 343.113 80.372,343.031 80.157,342.428 79.735 C 341.973 79.416,341.597 78.850,341.594 78.477 C 341.590 78.013,341.492 77.951,341.283 78.280 C 341.079 78.600,340.803 78.366,340.455 77.580 C 340.168 76.931,339.757 76.400,339.543 76.400 C 339.328 76.400,339.288 76.625,339.453 76.900 C 339.674 77.267,339.581 77.260,339.105 76.874 C 338.748 76.585,338.520 76.016,338.598 75.610 C 338.697 75.098,338.439 74.796,337.754 74.624 C 337.211 74.488,336.870 74.211,336.995 74.008 C 337.120 73.806,336.857 73.445,336.411 73.206 C 335.965 72.967,335.600 72.498,335.600 72.162 C 335.600 71.827,335.420 71.664,335.200 71.800 C 334.980 71.936,334.800 71.844,334.800 71.595 C 334.800 71.047,333.772 69.962,333.505 70.228 C 333.401 70.332,332.884 69.785,332.358 69.012 C 331.831 68.238,331.085 67.604,330.700 67.603 C 330.315 67.601,330.000 67.351,330.000 67.046 C 330.000 66.741,329.510 66.171,328.910 65.778 C 328.311 65.385,327.467 64.735,327.035 64.332 C 326.603 63.929,325.968 63.586,325.625 63.568 C 325.188 63.546,325.156 63.474,325.516 63.330 C 326.168 63.068,324.900 61.904,323.195 61.198 C 322.543 60.928,322.109 60.548,322.229 60.354 C 322.349 60.159,322.179 60.000,321.851 60.000 C 321.522 60.000,321.140 59.640,321.000 59.200 C 320.860 58.760,320.522 58.400,320.248 58.400 C 319.975 58.400,319.364 58.040,318.892 57.600 C 318.420 57.160,317.936 56.800,317.817 56.800 C 317.698 56.800,317.240 56.440,316.800 56.000 C 316.360 55.560,315.719 55.200,315.376 55.200 C 315.033 55.200,314.853 55.038,314.976 54.839 C 315.099 54.640,314.693 54.302,314.075 54.086 C 313.457 53.871,312.647 53.390,312.276 53.019 C 311.904 52.647,311.600 52.453,311.600 52.587 C 311.600 52.722,311.349 52.599,311.042 52.316 C 310.735 52.032,310.566 51.665,310.666 51.500 C 310.765 51.335,310.567 51.200,310.224 51.200 C 309.881 51.200,309.597 50.975,309.594 50.700 C 309.590 50.367,309.458 50.400,309.200 50.800 C 308.886 51.287,308.811 51.232,308.806 50.513 C 308.802 49.889,308.621 49.694,308.200 49.855 C 307.870 49.982,307.600 49.876,307.600 49.619 C 307.600 49.363,307.452 49.244,307.271 49.356 C 307.091 49.468,306.642 49.208,306.275 48.780 C 305.908 48.351,305.325 48.000,304.980 48.000 C 304.635 48.000,304.464 47.820,304.600 47.601 C 304.742 47.370,304.458 47.243,303.929 47.301 C 303.302 47.368,302.883 47.112,302.607 46.492 C 302.385 45.992,301.926 45.630,301.587 45.687 C 301.249 45.745,300.450 45.308,299.813 44.717 C 299.176 44.126,298.528 43.721,298.372 43.817 C 298.217 43.913,297.861 43.715,297.581 43.377 C 297.173 42.885,297.005 42.866,296.741 43.281 C 296.488 43.681,296.411 43.685,296.406 43.300 C 296.403 43.025,296.119 42.800,295.776 42.800 C 295.433 42.800,295.264 42.620,295.400 42.400 C 295.622 42.040,295.097 41.827,294.300 41.953 C 294.135 41.979,293.997 41.775,293.994 41.500 C 293.990 41.167,293.858 41.200,293.600 41.600 C 293.370 41.956,293.210 42.008,293.206 41.726 C 293.203 41.465,292.570 41.024,291.800 40.746 C 291.030 40.467,290.400 40.095,290.400 39.920 C 290.400 39.744,290.130 39.600,289.800 39.600 C 289.470 39.600,289.200 39.420,289.200 39.200 C 289.200 38.980,288.930 38.800,288.600 38.800 C 288.270 38.800,288.000 38.634,288.000 38.431 C 288.000 38.228,287.348 37.847,286.551 37.584 C 285.754 37.321,284.129 36.594,282.941 35.969 C 281.714 35.324,280.497 34.941,280.125 35.084 C 279.705 35.245,279.567 35.178,279.740 34.897 C 279.892 34.651,279.656 34.345,279.206 34.202 C 278.763 34.061,278.397 33.733,278.394 33.473 C 278.390 33.193,278.229 33.245,278.000 33.600 C 277.701 34.063,277.611 34.076,277.606 33.657 C 277.602 33.334,277.351 33.210,276.985 33.350 C 276.635 33.485,276.272 33.331,276.142 32.993 C 276.017 32.667,275.473 32.400,274.934 32.400 C 274.293 32.400,274.052 32.240,274.239 31.937 C 274.435 31.619,274.252 31.545,273.656 31.701 C 273.177 31.826,272.564 31.712,272.293 31.447 C 272.022 31.183,271.350 30.961,270.800 30.955 C 270.250 30.949,269.837 30.756,269.882 30.526 C 269.931 30.275,269.327 30.163,268.364 30.245 C 267.395 30.327,266.860 30.227,267.006 29.990 C 267.229 29.630,266.563 29.440,265.273 29.497 C 264.960 29.511,264.841 29.271,264.980 28.909 C 265.170 28.412,264.969 28.339,263.907 28.521 C 263.188 28.645,262.825 28.653,263.100 28.540 C 263.891 28.213,263.681 27.630,262.832 27.794 C 261.806 27.991,260.358 27.592,260.612 27.181 C 260.723 27.001,260.316 26.907,259.707 26.973 C 258.303 27.126,257.529 26.838,257.868 26.290 C 258.035 26.020,257.879 25.961,257.440 26.129 C 257.060 26.275,256.266 26.150,255.675 25.852 C 255.084 25.554,254.375 25.390,254.100 25.488 C 253.825 25.586,253.600 25.472,253.600 25.233 C 253.600 24.995,253.409 24.800,253.176 24.800 C 252.943 24.800,252.864 24.980,253.000 25.200 C 253.136 25.420,252.956 25.600,252.600 25.600 C 252.244 25.600,252.046 25.449,252.160 25.264 C 252.274 25.080,251.713 24.904,250.913 24.874 C 250.114 24.844,249.275 24.635,249.050 24.410 C 248.824 24.184,248.316 24.000,247.920 24.000 C 247.524 24.000,247.200 23.820,247.200 23.600 C 247.200 23.380,246.379 23.200,245.376 23.200 C 244.024 23.200,243.630 23.071,243.853 22.700 C 244.026 22.412,243.839 22.454,243.412 22.800 C 242.846 23.258,242.630 23.281,242.502 22.900 C 242.406 22.615,241.668 22.400,240.790 22.400 C 239.942 22.400,239.136 22.220,239.000 22.000 C 238.864 21.780,237.673 21.600,236.353 21.600 C 234.785 21.600,234.042 21.455,234.211 21.182 C 234.379 20.911,233.883 20.798,232.808 20.862 C 231.894 20.915,231.023 20.785,230.873 20.572 C 230.723 20.360,229.430 20.127,228.000 20.057 C 226.570 19.986,225.161 19.731,224.870 19.490 C 224.476 19.165,224.245 19.200,223.976 19.626 C 223.723 20.024,223.610 20.047,223.606 19.700 C 223.602 19.342,222.690 19.200,220.400 19.200 C 218.640 19.200,217.200 19.051,217.200 18.869 C 217.200 18.357,213.438 18.425,213.106 18.942 C 212.887 19.283,212.811 19.280,212.806 18.932 C 212.798 18.274,187.203 18.291,187.194 18.949 C 187.189 19.278,187.108 19.277,186.894 18.942 C 186.732 18.690,185.753 18.496,184.719 18.511 C 183.684 18.525,182.930 18.686,183.042 18.869 M212.800 324.553 L 212.800 344.000 214.176 344.000 C 214.933 344.000,215.676 343.801,215.826 343.557 C 216.022 343.241,216.185 343.252,216.399 343.599 C 216.623 343.960,216.906 343.971,217.523 343.641 C 217.976 343.399,219.583 343.200,221.094 343.200 C 222.604 343.200,224.011 343.030,224.220 342.822 C 224.429 342.615,225.995 342.408,227.700 342.364 C 229.405 342.320,230.800 342.129,230.800 341.942 C 230.800 341.754,231.621 341.600,232.624 341.600 C 233.737 341.600,234.351 341.444,234.200 341.200 C 233.865 340.657,234.531 340.691,235.085 341.245 C 235.351 341.511,235.745 341.552,236.065 341.345 C 236.359 341.155,237.140 340.972,237.800 340.938 C 238.460 340.903,239.236 340.858,239.524 340.838 C 239.812 340.817,239.932 340.614,239.792 340.387 C 239.628 340.122,240.055 340.031,240.978 340.133 C 241.771 340.220,242.533 340.108,242.672 339.884 C 242.826 339.634,242.722 339.601,242.400 339.800 C 242.050 340.017,241.973 339.968,242.168 339.652 C 242.350 339.358,243.163 339.241,244.330 339.341 C 245.358 339.430,245.885 339.422,245.500 339.323 C 245.115 339.225,244.800 338.839,244.800 338.465 C 244.800 338.091,244.350 337.123,243.800 336.314 C 243.250 335.505,242.800 334.653,242.800 334.421 C 242.800 334.190,242.641 334.000,242.447 334.000 C 242.252 334.000,241.993 333.685,241.871 333.300 C 241.583 332.391,240.388 330.447,239.500 329.442 C 239.115 329.006,238.800 328.413,238.800 328.125 C 238.800 327.836,238.641 327.600,238.447 327.600 C 238.252 327.600,237.993 327.285,237.871 326.900 C 237.583 325.991,236.388 324.047,235.500 323.042 C 235.115 322.606,234.800 322.013,234.800 321.725 C 234.800 321.436,234.620 321.200,234.400 321.200 C 234.180 321.200,234.000 321.012,234.000 320.782 C 234.000 320.552,233.145 319.062,232.100 317.471 C 231.055 315.879,229.983 314.222,229.717 313.789 C 226.728 308.907,225.600 306.791,225.600 306.065 C 225.600 305.371,225.363 305.200,224.400 305.200 C 223.740 305.200,223.200 305.350,223.200 305.533 C 223.200 305.717,222.938 305.867,222.618 305.867 C 222.297 305.867,222.128 305.717,222.241 305.533 C 222.355 305.350,222.257 305.200,222.024 305.200 C 221.791 305.200,221.597 305.425,221.594 305.700 C 221.589 306.066,221.495 306.054,221.242 305.655 C 220.951 305.194,220.866 305.194,220.698 305.655 C 220.539 306.092,220.395 306.101,219.970 305.700 C 219.380 305.144,217.200 305.011,217.200 305.532 C 217.200 305.909,215.051 305.825,213.700 305.394 L 212.800 305.107 212.800 324.553 " stroke="none" fill="#9c949c" fill-rule="evenodd"></path><path id="path2" d="M295.500 285.476 C 295.115 285.576,294.800 285.846,294.800 286.076 C 294.800 286.306,294.440 286.399,294.000 286.284 C 293.480 286.148,293.200 286.272,293.200 286.637 C 293.200 286.947,292.930 287.200,292.600 287.200 C 292.270 287.200,292.000 287.380,292.000 287.600 C 292.000 287.820,291.640 288.000,291.200 288.000 C 290.760 288.000,290.400 288.180,290.400 288.400 C 290.400 288.620,290.040 288.800,289.600 288.800 C 289.160 288.800,288.800 288.980,288.800 289.200 C 288.800 289.420,288.517 289.600,288.171 289.600 C 286.152 289.600,286.232 290.729,288.492 294.119 C 289.695 295.924,292.354 300.010,294.401 303.200 C 296.448 306.390,299.010 310.384,300.096 312.076 C 302.156 315.287,302.713 315.516,304.580 313.924 C 305.122 313.462,306.095 313.522,305.800 314.000 C 305.664 314.220,305.756 314.400,306.003 314.400 C 306.251 314.400,306.359 314.085,306.244 313.700 C 306.037 313.014,307.903 311.327,310.392 309.949 C 312.096 309.006,312.395 308.361,311.548 307.452 C 311.137 307.010,310.800 306.413,310.800 306.125 C 310.800 305.836,310.620 305.600,310.400 305.600 C 310.180 305.600,310.000 305.429,310.000 305.221 C 310.000 305.012,308.425 302.420,306.500 299.459 C 304.575 296.499,301.740 292.087,300.200 289.654 C 297.497 285.384,297.123 285.052,295.500 285.476 M138.500 287.212 L 137.600 287.574 137.613 310.487 C 137.627 335.401,137.601 335.116,139.754 334.576 C 140.500 334.389,140.860 334.492,141.032 334.940 C 141.202 335.382,141.597 335.501,142.379 335.344 C 143.291 335.162,143.537 335.289,143.770 336.061 C 143.939 336.620,144.137 336.798,144.260 336.500 C 144.542 335.817,145.974 335.867,146.244 336.570 C 146.399 336.975,146.859 337.075,147.831 336.917 C 148.937 336.738,149.200 336.825,149.200 337.371 C 149.200 337.743,149.380 337.936,149.600 337.800 C 150.190 337.435,150.147 292.800,149.557 292.800 C 149.314 292.800,149.216 292.536,149.339 292.214 C 149.517 291.751,149.315 291.677,148.382 291.864 C 147.633 292.013,147.200 291.935,147.200 291.650 C 147.200 291.403,146.966 291.200,146.680 291.200 C 145.944 291.200,144.007 290.259,144.003 289.900 C 144.001 289.735,143.640 289.600,143.200 289.600 C 142.760 289.600,142.400 289.420,142.400 289.200 C 142.400 288.980,142.166 288.800,141.880 288.800 C 140.873 288.800,139.202 287.794,139.387 287.300 C 139.490 287.025,139.536 286.811,139.487 286.825 C 139.439 286.839,138.995 287.013,138.500 287.212 M236.800 304.826 C 236.800 305.094,235.720 305.232,233.900 305.197 C 229.403 305.111,228.732 305.166,229.000 305.600 C 229.144 305.833,228.737 306.000,228.024 306.000 C 226.355 306.000,226.443 306.659,228.547 309.905 C 229.507 311.387,231.513 314.580,233.004 317.000 C 234.495 319.420,236.679 322.883,237.857 324.696 C 239.036 326.509,240.000 328.092,240.000 328.214 C 240.000 328.336,240.859 329.733,241.910 331.318 C 242.960 332.903,244.068 334.690,244.372 335.289 C 245.644 337.800,247.083 339.076,247.705 338.245 C 248.117 337.694,248.612 337.540,249.535 337.676 C 250.413 337.805,250.800 337.699,250.800 337.331 C 250.800 336.991,251.303 336.800,252.200 336.800 C 252.975 336.800,253.600 336.598,253.600 336.348 C 253.600 336.054,254.091 335.975,255.000 336.123 C 256.097 336.300,256.400 336.215,256.400 335.728 C 256.400 335.281,256.680 335.160,257.400 335.298 C 258.860 335.577,258.688 335.064,255.749 330.400 C 254.294 328.090,252.744 325.571,252.304 324.802 C 251.864 324.033,251.008 322.683,250.402 321.802 C 249.796 320.921,248.872 319.467,248.350 318.570 C 242.466 308.475,239.539 304.400,238.170 304.400 C 237.417 304.400,236.800 304.592,236.800 304.826 M200.000 324.600 L 200.000 344.000 204.200 344.000 C 206.571 344.000,208.400 343.835,208.400 343.622 C 208.400 343.414,209.255 343.189,210.300 343.122 L 212.200 343.000 212.304 324.500 L 212.408 306.000 207.204 306.000 C 204.001 306.000,202.000 305.846,202.000 305.600 C 202.000 305.380,201.550 305.200,201.000 305.200 L 200.000 305.200 200.000 324.600 " stroke="none" fill="#6b647c" fill-rule="evenodd"></path><path id="path3" d="M355.412 190.117 C 355.241 190.512,355.213 190.947,355.351 191.084 C 355.757 191.490,356.084 190.920,355.897 190.131 C 355.732 189.433,355.710 189.432,355.412 190.117 M296.400 284.353 C 296.400 284.548,295.995 284.844,295.500 285.013 C 292.846 285.915,292.928 285.860,293.740 286.203 C 294.186 286.392,294.592 286.336,294.760 286.064 C 295.936 284.162,297.332 285.078,300.200 289.632 C 301.740 292.077,304.575 296.499,306.500 299.459 C 308.425 302.420,310.000 305.012,310.000 305.221 C 310.000 305.429,310.180 305.600,310.400 305.600 C 310.620 305.600,310.800 305.836,310.800 306.125 C 310.800 306.413,311.137 307.010,311.548 307.452 C 312.268 308.224,311.935 309.600,311.028 309.600 C 310.654 309.600,307.620 311.715,306.591 312.693 C 306.146 313.116,305.021 313.798,304.091 314.208 C 303.161 314.618,302.400 315.119,302.400 315.320 C 302.400 315.890,304.505 315.229,305.426 314.370 C 305.880 313.947,306.437 313.600,306.664 313.600 C 306.891 313.600,307.402 313.240,307.800 312.800 C 308.198 312.360,308.726 312.000,308.974 312.000 C 309.221 312.000,309.683 311.640,310.000 311.200 C 310.317 310.760,310.820 310.400,311.117 310.400 C 311.751 310.400,312.800 309.435,312.800 308.851 C 312.800 308.628,311.729 306.770,310.420 304.723 C 305.714 297.360,302.160 291.823,299.900 288.331 C 298.635 286.377,297.600 284.603,297.600 284.389 C 297.600 284.175,297.330 284.000,297.000 284.000 C 296.670 284.000,296.400 284.159,296.400 284.353 M137.452 287.300 C 136.850 289.546,137.182 334.800,137.800 334.800 C 138.479 334.800,138.605 334.174,138.000 333.800 C 137.741 333.640,137.600 325.459,137.600 310.566 L 137.600 287.580 138.600 287.200 C 139.860 286.721,139.879 286.400,138.647 286.400 C 137.996 286.400,137.617 286.686,137.452 287.300 M292.000 286.800 C 292.000 287.020,291.640 287.200,291.200 287.200 C 290.760 287.200,290.400 287.380,290.400 287.600 C 290.400 287.820,290.040 288.000,289.600 288.000 C 289.160 288.000,288.800 288.180,288.800 288.400 C 288.800 288.620,288.517 288.800,288.171 288.800 C 287.380 288.800,286.203 289.943,286.607 290.319 C 286.773 290.474,286.990 290.375,287.088 290.100 C 287.186 289.825,287.612 289.600,288.033 289.600 C 288.455 289.600,288.800 289.420,288.800 289.200 C 288.800 288.980,289.160 288.800,289.600 288.800 C 290.040 288.800,290.400 288.620,290.400 288.400 C 290.400 288.180,290.760 288.000,291.200 288.000 C 291.640 288.000,292.000 287.820,292.000 287.600 C 292.000 287.380,292.270 287.200,292.600 287.200 C 292.930 287.200,293.200 287.020,293.200 286.800 C 293.200 286.580,292.930 286.400,292.600 286.400 C 292.270 286.400,292.000 286.580,292.000 286.800 M139.203 287.500 C 139.207 287.859,141.144 288.800,141.880 288.800 C 142.166 288.800,142.400 288.980,142.400 289.200 C 142.400 289.420,142.760 289.600,143.200 289.600 C 143.640 289.600,144.001 289.735,144.003 289.900 C 144.007 290.259,145.944 291.200,146.680 291.200 C 146.966 291.200,147.200 291.380,147.200 291.600 C 147.200 291.820,147.560 292.000,148.000 292.000 C 148.440 292.000,148.800 291.820,148.800 291.600 C 148.800 291.380,148.440 291.200,148.000 291.200 C 147.560 291.200,147.200 291.020,147.200 290.800 C 147.200 290.580,146.840 290.400,146.400 290.400 C 145.960 290.400,145.600 290.220,145.600 290.000 C 145.600 289.780,145.240 289.600,144.800 289.600 C 144.360 289.600,144.000 289.420,144.000 289.200 C 144.000 288.980,143.640 288.800,143.200 288.800 C 142.760 288.800,142.400 288.620,142.400 288.400 C 142.400 288.180,142.040 288.000,141.600 288.000 C 141.160 288.000,140.800 287.820,140.800 287.600 C 140.800 287.380,140.440 287.200,140.000 287.200 C 139.560 287.200,139.201 287.335,139.203 287.500 M231.200 304.800 C 231.200 305.029,232.400 305.200,234.000 305.200 C 235.600 305.200,236.800 305.029,236.800 304.800 C 236.800 304.571,235.600 304.400,234.000 304.400 C 232.400 304.400,231.200 304.571,231.200 304.800 M202.000 305.600 C 202.000 305.846,204.001 306.000,207.204 306.000 L 212.408 306.000 212.304 324.500 L 212.200 343.000 210.300 343.122 C 207.797 343.283,207.844 344.000,210.357 344.000 C 211.773 344.000,212.382 343.825,212.557 343.367 C 212.874 342.541,212.874 306.659,212.557 305.833 C 212.271 305.086,202.000 304.860,202.000 305.600 M225.600 305.438 C 225.600 305.795,227.694 309.541,229.278 312.018 C 230.840 314.461,233.194 318.213,237.796 325.600 C 239.509 328.350,241.876 332.083,243.055 333.896 C 244.235 335.709,245.200 337.290,245.200 337.410 C 245.200 337.964,246.525 339.570,246.827 339.383 C 247.014 339.268,246.455 338.234,245.585 337.087 C 244.715 335.939,244.003 334.857,244.002 334.682 C 244.001 334.507,243.100 333.030,242.000 331.400 C 240.900 329.770,240.000 328.336,240.000 328.214 C 240.000 328.092,239.036 326.509,237.857 324.696 C 236.679 322.883,234.495 319.420,233.004 317.000 C 231.513 314.580,229.507 311.387,228.547 309.905 C 226.443 306.659,226.355 306.000,228.024 306.000 C 228.737 306.000,229.144 305.833,229.000 305.600 C 228.739 305.178,225.600 305.029,225.600 305.438 M139.298 334.666 C 138.527 334.976,139.130 335.600,140.200 335.600 C 140.724 335.600,141.264 335.780,141.400 336.000 C 141.819 336.677,143.600 336.475,143.600 335.750 C 143.600 335.246,143.339 335.152,142.436 335.333 C 141.623 335.495,141.205 335.390,141.049 334.983 C 140.824 334.397,140.230 334.290,139.298 334.666 M256.400 335.772 C 256.400 336.181,256.761 336.400,257.433 336.400 C 258.686 336.400,258.549 335.461,257.269 335.272 C 256.692 335.187,256.400 335.355,256.400 335.772 M144.400 336.555 C 144.400 336.860,144.895 337.213,145.500 337.340 C 149.200 338.116,149.200 338.116,149.200 337.393 C 149.200 336.822,148.951 336.736,147.831 336.917 C 146.859 337.075,146.399 336.975,146.244 336.570 C 145.962 335.837,144.400 335.824,144.400 336.555 M253.600 336.373 C 253.600 336.608,252.970 336.800,252.200 336.800 C 251.222 336.800,250.800 336.981,250.800 337.400 C 250.800 338.072,252.782 338.249,253.420 337.634 C 253.629 337.432,254.250 337.207,254.800 337.134 C 255.350 337.060,255.761 336.820,255.712 336.600 C 255.593 336.054,253.600 335.840,253.600 336.373 M247.867 337.867 C 247.255 338.478,247.681 338.843,248.869 338.725 C 250.524 338.562,250.893 337.600,249.300 337.600 C 248.658 337.600,248.013 337.720,247.867 337.867 " stroke="none" fill="#7b7289" fill-rule="evenodd"></path><path id="path4" d="M175.200 19.600 C 174.715 19.914,174.772 19.989,175.500 19.994 C 175.995 19.997,176.400 19.820,176.400 19.600 C 176.400 19.099,175.976 19.099,175.200 19.600 M234.159 21.267 C 234.045 21.450,234.323 21.600,234.776 21.600 C 235.229 21.600,235.600 21.450,235.600 21.267 C 235.600 21.083,235.322 20.933,234.982 20.933 C 234.643 20.933,234.272 21.083,234.159 21.267 M157.239 22.832 C 157.928 23.268,158.800 23.306,158.800 22.900 C 158.800 22.735,158.322 22.572,157.738 22.538 C 156.979 22.494,156.837 22.578,157.239 22.832 M242.400 22.775 C 242.400 22.981,242.748 23.124,243.172 23.092 C 243.597 23.060,243.856 22.891,243.749 22.717 C 243.475 22.273,242.400 22.320,242.400 22.775 M134.842 28.834 C 134.315 29.045,133.985 29.318,134.108 29.441 C 134.231 29.564,134.683 29.477,135.113 29.246 C 135.543 29.016,136.037 28.957,136.212 29.114 C 136.386 29.271,136.399 29.175,136.241 28.900 C 136.082 28.625,135.918 28.411,135.876 28.425 C 135.834 28.439,135.369 28.623,134.842 28.834 M266.505 29.456 C 266.893 29.569,267.107 29.827,266.981 30.030 C 266.856 30.234,267.048 30.400,267.410 30.400 C 268.442 30.400,267.850 29.409,266.769 29.326 C 266.176 29.281,266.073 29.331,266.505 29.456 M118.600 35.200 C 118.464 35.420,118.623 35.600,118.953 35.600 C 119.283 35.600,119.664 35.420,119.800 35.200 C 119.936 34.980,119.777 34.800,119.447 34.800 C 119.117 34.800,118.736 34.980,118.600 35.200 M302.800 47.000 C 303.074 47.330,303.478 47.600,303.698 47.600 C 303.921 47.600,303.878 47.335,303.600 47.000 C 303.326 46.670,302.922 46.400,302.702 46.400 C 302.479 46.400,302.522 46.665,302.800 47.000 M79.415 58.824 C 79.696 59.279,80.800 59.327,80.800 58.885 C 80.800 58.712,80.436 58.543,79.991 58.509 C 79.547 58.476,79.287 58.618,79.415 58.824 M64.805 71.991 C 64.459 72.636,64.494 72.739,64.991 72.548 C 65.326 72.420,65.600 72.064,65.600 71.757 C 65.600 70.976,65.301 71.064,64.805 71.991 M209.400 75.600 C 209.536 75.820,209.997 76.000,210.424 76.000 C 210.851 76.000,211.200 75.820,211.200 75.600 C 211.200 75.380,210.739 75.200,210.176 75.200 C 209.596 75.200,209.260 75.373,209.400 75.600 M219.049 75.680 C 219.341 76.152,221.600 76.070,221.600 75.587 C 221.600 75.361,220.982 75.217,220.226 75.267 C 219.470 75.318,218.941 75.504,219.049 75.680 M338.559 75.802 C 338.608 76.135,338.852 76.612,339.102 76.862 C 339.440 77.200,339.498 77.095,339.329 76.451 C 339.066 75.446,338.428 74.907,338.559 75.802 M191.462 77.300 C 191.718 77.715,192.705 77.677,192.974 77.242 C 193.095 77.046,192.763 76.911,192.236 76.942 C 191.708 76.974,191.360 77.135,191.462 77.300 M263.834 82.543 C 263.972 82.905,264.471 83.186,264.943 83.168 C 265.528 83.147,265.610 83.066,265.200 82.915 C 264.870 82.793,264.371 82.511,264.091 82.290 C 263.710 81.988,263.645 82.052,263.834 82.543 M344.272 82.643 C 344.388 82.947,344.645 83.096,344.842 82.974 C 345.039 82.852,345.200 82.943,345.200 83.176 C 345.200 83.409,345.374 83.600,345.587 83.600 C 346.249 83.600,345.586 82.490,344.802 82.285 C 344.289 82.151,344.125 82.261,344.272 82.643 M380.800 167.224 C 380.800 167.677,380.980 167.936,381.200 167.800 C 381.420 167.664,381.600 167.293,381.600 166.976 C 381.600 166.659,381.420 166.400,381.200 166.400 C 380.980 166.400,380.800 166.771,380.800 167.224 M75.449 187.900 C 75.825 189.470,76.000 189.523,76.000 188.067 C 76.000 187.370,75.817 186.800,75.592 186.800 C 75.350 186.800,75.292 187.247,75.449 187.900 M355.288 187.749 C 355.333 188.295,355.512 188.655,355.685 188.548 C 356.129 188.273,356.077 187.295,355.603 187.002 C 355.374 186.860,355.240 187.177,355.288 187.749 M75.315 193.253 C 75.267 193.923,75.395 194.326,75.615 194.191 C 76.070 193.909,76.131 192.528,75.700 192.263 C 75.535 192.161,75.362 192.607,75.315 193.253 M377.852 213.300 C 377.509 214.580,377.544 215.200,377.960 215.200 C 378.158 215.200,378.320 214.570,378.320 213.800 C 378.320 212.177,378.190 212.038,377.852 213.300 M26.177 230.200 C 26.546 231.785,27.128 232.350,26.978 230.978 C 26.913 230.385,26.643 229.697,26.378 229.450 C 26.007 229.103,25.961 229.274,26.177 230.200 M29.292 238.475 C 29.379 238.736,29.664 239.021,29.925 239.108 C 30.218 239.206,30.307 239.023,30.157 238.633 C 29.878 237.906,29.052 237.755,29.292 238.475 M319.398 267.602 C 318.998 268.044,318.790 268.524,318.936 268.669 C 319.081 268.814,319.200 268.723,319.200 268.467 C 319.200 268.210,319.440 268.000,319.733 268.000 C 320.027 268.000,320.267 267.730,320.267 267.400 C 320.267 266.642,320.267 266.642,319.398 267.602 M112.800 268.584 C 112.800 269.068,114.854 270.879,115.111 270.622 C 115.233 270.500,115.258 270.355,115.167 270.300 C 115.075 270.245,114.505 269.764,113.900 269.230 C 113.295 268.697,112.800 268.406,112.800 268.584 M122.203 276.805 C 122.337 277.022,122.692 277.200,122.990 277.200 C 123.289 277.200,123.625 277.385,123.737 277.610 C 123.849 277.836,123.899 277.808,123.849 277.548 C 123.800 277.289,123.354 276.927,122.859 276.744 C 122.288 276.532,122.049 276.555,122.203 276.805 M125.455 279.000 C 125.588 279.347,126.132 279.577,126.743 279.546 C 127.685 279.497,127.702 279.472,126.900 279.318 C 126.405 279.222,126.000 278.977,126.000 278.772 C 126.000 278.567,125.826 278.400,125.613 278.400 C 125.399 278.400,125.329 278.670,125.455 279.000 M344.493 280.000 C 344.218 280.440,344.131 280.800,344.300 280.800 C 344.469 280.800,344.832 280.440,345.107 280.000 C 345.382 279.560,345.469 279.200,345.300 279.200 C 345.131 279.200,344.768 279.560,344.493 280.000 M130.533 282.234 C 130.533 282.546,130.617 282.716,130.719 282.614 C 130.822 282.512,131.242 282.608,131.653 282.828 C 132.712 283.395,132.581 283.011,131.467 282.280 C 130.684 281.768,130.533 281.760,130.533 282.234 M297.600 284.327 C 297.600 284.592,298.565 286.291,299.744 288.104 C 304.079 294.770,307.874 300.686,309.942 304.000 C 313.043 308.970,313.019 308.944,313.871 308.448 C 314.541 308.059,314.527 308.023,313.700 308.012 C 313.172 308.005,312.800 307.752,312.800 307.400 C 312.800 307.070,312.620 306.800,312.400 306.800 C 312.180 306.800,312.000 306.564,312.000 306.275 C 312.000 305.987,311.685 305.402,311.300 304.975 C 310.915 304.549,310.345 303.705,310.032 303.100 C 309.720 302.495,309.315 302.000,309.132 302.000 C 308.950 302.000,308.800 301.839,308.800 301.643 C 308.800 301.284,304.770 294.620,304.006 293.715 C 303.781 293.448,303.388 292.773,303.134 292.215 C 302.880 291.657,302.520 291.200,302.336 291.200 C 302.151 291.200,302.000 290.964,302.000 290.675 C 302.000 290.387,301.685 289.802,301.300 289.375 C 300.915 288.949,300.345 288.105,300.032 287.500 C 299.720 286.895,299.315 286.400,299.132 286.400 C 298.950 286.400,298.794 286.175,298.787 285.900 C 298.771 285.248,297.600 283.698,297.600 284.327 M59.864 285.600 C 60.254 286.260,60.844 286.800,61.175 286.800 C 61.590 286.800,61.500 286.605,60.889 286.177 C 60.400 285.835,60.000 285.295,60.000 284.977 C 60.000 284.660,59.810 284.400,59.577 284.400 C 59.344 284.400,59.472 284.938,59.864 285.600 M63.128 288.790 C 64.416 290.077,64.800 290.258,64.800 289.576 C 64.800 289.343,64.620 289.264,64.400 289.400 C 64.180 289.536,64.000 289.395,64.000 289.088 C 64.000 288.780,63.532 288.315,62.959 288.054 C 61.938 287.589,61.941 287.603,63.128 288.790 M336.370 289.053 C 335.445 290.056,335.441 290.080,336.292 289.561 C 336.783 289.262,337.272 288.788,337.380 288.509 C 337.666 287.762,337.452 287.877,336.370 289.053 M332.800 292.167 C 332.800 292.478,332.575 292.824,332.300 292.935 C 331.923 293.087,331.920 293.145,332.286 293.168 C 332.553 293.186,332.965 292.840,333.200 292.400 C 333.490 291.858,333.495 291.600,333.214 291.600 C 332.986 291.600,332.800 291.855,332.800 292.167 M78.800 302.933 C 78.800 302.997,79.335 303.445,79.989 303.929 C 80.688 304.446,81.091 304.581,80.967 304.258 C 80.790 303.797,78.800 302.580,78.800 302.933 M225.601 306.365 C 225.601 306.676,226.418 308.296,227.417 309.965 C 229.940 314.178,229.971 314.229,232.100 317.471 C 233.145 319.062,234.000 320.552,234.000 320.782 C 234.000 321.012,234.180 321.200,234.400 321.200 C 234.620 321.200,234.800 321.436,234.800 321.725 C 234.800 322.013,235.115 322.606,235.500 323.042 C 236.388 324.047,237.583 325.991,237.871 326.900 C 237.993 327.285,238.252 327.600,238.447 327.600 C 238.641 327.600,238.800 327.836,238.800 328.125 C 238.800 328.413,239.115 329.006,239.500 329.442 C 240.388 330.447,241.583 332.391,241.871 333.300 C 241.993 333.685,242.252 334.000,242.447 334.000 C 242.641 334.000,242.800 334.190,242.800 334.421 C 242.800 334.653,243.250 335.505,243.800 336.314 C 244.350 337.123,244.800 338.104,244.800 338.493 C 244.800 338.882,245.070 339.200,245.400 339.200 C 246.336 339.200,245.977 338.425,242.683 333.335 C 241.709 331.831,239.510 328.350,237.797 325.600 C 232.489 317.083,230.738 314.296,228.938 311.505 C 227.982 310.022,227.200 308.722,227.200 308.614 C 227.200 308.507,226.841 307.830,226.401 307.110 C 225.962 306.389,225.602 306.054,225.601 306.365 M111.256 323.566 C 111.775 323.987,112.266 324.265,112.348 324.185 C 112.589 323.945,111.297 322.800,110.784 322.800 C 110.524 322.800,110.736 323.145,111.256 323.566 M124.000 329.600 C 124.000 329.820,124.270 330.000,124.600 330.000 C 124.930 330.000,125.200 329.820,125.200 329.600 C 125.200 329.380,124.930 329.200,124.600 329.200 C 124.270 329.200,124.000 329.380,124.000 329.600 M241.824 339.813 C 241.396 340.136,241.251 340.400,241.500 340.400 C 241.749 340.400,242.076 340.201,242.226 339.957 C 242.403 339.672,242.589 339.656,242.750 339.913 C 242.905 340.160,243.197 340.100,243.516 339.756 C 244.245 338.970,242.877 339.016,241.824 339.813 " stroke="none" fill="#9c8c9c" fill-rule="evenodd"></path></g></svg>