<svg id="svg" version="1.1" xmlns="http://www.w3.org/2000/svg" xmlns:xlink="http://www.w3.org/1999/xlink" width="400" height="400" viewBox="0, 0, 400,400"><g id="svgg"><path id="path0" d="M147.173 107.271 L 147.173 154.588 100.278 154.588 L 53.383 154.588 53.383 156.178 C 53.383 164.927,61.104 173.779,70.911 176.273 C 73.130 176.838,73.912 177.153,73.142 177.172 C 70.844 177.229,66.061 179.047,63.233 180.939 C 46.833 191.907,51.638 216.051,71.181 220.876 L 73.957 221.562 71.433 222.041 C 62.006 223.831,54.313 232.145,53.496 241.427 L 53.275 243.930 100.224 243.930 L 147.173 243.930 147.173 291.226 L 147.173 338.522 148.934 338.294 C 158.664 337.035,166.518 329.811,168.438 320.355 C 169.074 317.222,169.416 316.607,169.416 318.594 C 169.416 330.552,184.627 341.154,196.644 337.572 C 204.864 335.123,212.751 326.092,212.785 319.092 C 212.787 318.531,212.956 318.072,213.160 318.072 C 213.364 318.072,213.531 318.481,213.531 318.980 C 213.531 320.688,215.376 325.728,216.805 327.925 C 220.775 334.030,225.781 337.146,233.455 338.291 L 235.030 338.526 235.124 291.135 L 235.218 243.744 282.020 243.897 L 328.823 244.049 328.823 242.399 C 328.823 233.456,320.198 223.744,310.686 221.975 L 308.328 221.536 311.069 220.871 C 330.576 216.135,335.260 191.676,318.752 180.752 C 316.402 179.196,311.157 177.234,309.175 177.168 C 308.181 177.135,308.571 176.958,310.840 176.409 C 320.846 173.993,328.823 164.988,328.823 156.110 L 328.823 154.588 281.928 154.588 L 235.032 154.588 235.032 107.271 L 235.032 59.954 232.901 60.198 C 223.396 61.286,213.531 71.050,213.531 79.368 C 213.531 79.960,213.364 80.445,213.160 80.445 C 212.956 80.445,212.790 80.036,212.790 79.537 C 212.790 74.708,208.143 67.273,202.958 63.805 C 189.792 54.999,171.375 63.402,169.521 79.062 C 169.272 81.162,168.990 80.832,168.329 77.665 C 166.457 68.689,158.334 61.232,149.305 60.198 L 147.173 59.954 147.173 107.271 M226.989 155.510 C 245.768 158.341,261.695 174.263,264.129 192.639 L 264.368 194.439 263.215 192.400 C 258.052 183.268,246.422 181.574,239.455 188.941 C 235.149 193.494,235.049 194.232,235.040 221.594 L 235.032 243.559 191.010 243.559 L 146.988 243.559 147.076 218.818 C 147.147 198.906,147.272 193.460,147.715 190.921 C 150.768 173.428,164.187 159.122,180.908 155.534 C 184.522 154.759,221.874 154.739,226.989 155.510 " stroke="none" fill="#343464" fill-rule="evenodd"></path><path id="path1" d="M0.000 200.000 L 0.000 400.000 200.000 400.000 L 400.000 400.000 400.000 200.000 L 400.000 0.000 200.000 0.000 L 0.000 0.000 0.000 200.000 M152.529 60.622 C 160.285 62.642,168.675 71.924,168.675 78.485 C 168.675 79.875,168.975 79.387,169.603 76.977 C 174.632 57.670,199.622 53.854,209.891 70.825 C 211.289 73.136,212.790 77.040,212.790 78.367 C 212.790 79.561,213.387 78.583,213.867 76.603 C 215.978 67.895,225.246 60.056,233.432 60.056 L 235.403 60.056 235.403 107.322 L 235.403 154.588 282.298 154.588 C 328.227 154.588,329.194 154.602,329.194 155.296 C 329.194 164.506,320.815 174.544,311.516 176.474 L 309.375 176.918 312.014 177.589 C 334.856 183.389,334.402 215.521,311.399 221.128 C 310.278 221.401,309.726 221.639,310.173 221.656 C 318.814 221.985,329.128 233.513,329.187 242.910 L 329.194 243.930 282.298 243.930 L 235.403 243.930 235.403 291.174 C 235.403 318.668,235.264 338.504,235.070 338.623 C 234.292 339.104,228.450 337.695,225.775 336.380 C 220.480 333.779,215.142 327.299,213.897 321.965 C 213.195 318.951,213.096 318.895,212.553 321.199 C 209.989 332.075,199.054 339.952,188.546 338.490 C 179.113 337.178,171.583 330.018,169.217 320.111 C 168.969 319.074,168.917 319.148,168.431 321.219 C 166.444 329.691,158.980 336.823,150.564 338.289 C 148.861 338.586,147.318 338.736,147.135 338.623 C 146.942 338.504,146.803 318.668,146.803 291.174 L 146.803 243.930 99.907 243.930 L 53.012 243.930 53.018 242.539 C 53.053 233.417,63.467 221.984,72.038 221.656 C 72.482 221.639,71.846 221.384,70.625 221.088 C 47.766 215.562,47.411 183.404,70.145 177.596 L 72.845 176.907 71.362 176.640 C 61.901 174.941,53.012 164.939,53.012 155.993 L 53.012 154.588 99.907 154.588 L 146.803 154.588 146.803 107.322 L 146.803 60.056 148.578 60.056 C 149.555 60.056,151.333 60.311,152.529 60.622 M180.684 155.900 C 166.156 159.089,154.545 169.837,149.611 184.662 C 147.313 191.565,147.173 193.592,147.173 219.973 L 147.173 243.559 191.103 243.559 L 235.032 243.559 235.032 220.467 C 235.032 195.061,235.059 194.712,237.296 191.228 C 243.513 181.539,257.934 181.879,263.171 191.839 C 264.188 193.772,264.152 192.894,263.043 188.641 C 258.558 171.454,244.978 158.907,227.636 155.928 C 222.950 155.123,184.328 155.100,180.684 155.900 " stroke="none" fill="#fbfbfb" fill-rule="evenodd"></path><path id="path2" d="M175.510 66.450 L 174.421 67.655 175.626 66.566 C 176.749 65.551,177.001 65.246,176.714 65.246 C 176.651 65.246,176.108 65.788,175.510 66.450 M193.049 155.236 C 198.197 155.294,206.622 155.294,211.770 155.236 C 216.918 155.178,212.706 155.130,202.410 155.130 C 192.113 155.130,187.901 155.178,193.049 155.236 M160.136 167.099 L 158.109 169.231 160.241 167.205 C 162.221 165.322,162.542 164.968,162.267 164.968 C 162.209 164.968,161.250 165.927,160.136 167.099 M249.402 184.136 C 249.863 184.225,250.530 184.221,250.885 184.129 C 251.239 184.036,250.862 183.963,250.046 183.967 C 249.231 183.972,248.941 184.047,249.402 184.136 M190.458 338.724 C 190.920 338.812,191.587 338.809,191.941 338.716 C 192.296 338.623,191.918 338.551,191.103 338.555 C 190.287 338.559,189.997 338.635,190.458 338.724 " stroke="none" fill="#aba9bd" fill-rule="evenodd"></path><path id="path3" d="" stroke="none" fill="#9696a4" fill-rule="evenodd"></path><path id="path4" d="M146.982 107.322 C 146.982 133.420,147.027 144.042,147.081 130.926 C 147.135 117.810,147.135 96.457,147.081 83.474 C 147.027 70.492,146.982 81.223,146.982 107.322 M235.212 107.322 C 235.212 133.420,235.256 144.042,235.310 130.926 C 235.364 117.810,235.364 96.457,235.310 83.474 C 235.256 70.492,235.212 81.223,235.212 107.322 M251.529 168.304 C 252.740 169.527,253.814 170.528,253.916 170.528 C 254.018 170.528,253.110 169.527,251.900 168.304 C 250.689 167.081,249.615 166.080,249.513 166.080 C 249.412 166.080,250.319 167.081,251.529 168.304 M58.573 169.161 C 58.573 169.225,59.115 169.767,59.778 170.366 L 60.982 171.455 59.894 170.250 C 58.879 169.127,58.573 168.875,58.573 169.161 M260.241 188.508 C 260.933 189.222,261.582 189.805,261.684 189.805 C 261.786 189.805,261.303 189.222,260.612 188.508 C 259.920 187.794,259.271 187.210,259.169 187.210 C 259.067 187.210,259.549 187.794,260.241 188.508 M53.098 199.073 C 53.098 199.787,53.174 200.079,53.268 199.722 C 53.361 199.365,53.361 198.781,53.268 198.424 C 53.174 198.068,53.098 198.360,53.098 199.073 M328.909 199.073 C 328.909 199.787,328.985 200.079,329.079 199.722 C 329.172 199.365,329.172 198.781,329.079 198.424 C 328.985 198.068,328.909 198.360,328.909 199.073 M322.130 214.921 L 320.853 216.311 322.243 215.034 C 323.537 213.845,323.803 213.531,323.520 213.531 C 323.458 213.531,322.833 214.157,322.130 214.921 M322.335 228.360 C 323.132 229.175,323.867 229.842,323.969 229.842 C 324.071 229.842,323.503 229.175,322.706 228.360 C 321.910 227.544,321.175 226.877,321.073 226.877 C 320.971 226.877,321.539 227.544,322.335 228.360 M235.203 244.022 C 235.106 244.277,235.071 265.672,235.124 291.566 L 235.221 338.647 235.312 291.292 L 235.403 243.938 251.251 243.837 L 267.099 243.736 251.240 243.647 C 238.827 243.578,235.342 243.660,235.203 244.022 M146.982 291.196 C 146.982 317.294,147.027 327.916,147.081 314.800 C 147.135 301.684,147.135 280.331,147.081 267.348 C 147.027 254.366,146.982 265.097,146.982 291.196 M168.933 317.847 C 168.781 318.233,168.745 318.636,168.851 318.743 C 169.189 319.081,169.487 318.527,169.345 317.823 C 169.215 317.178,169.196 317.179,168.933 317.847 M205.914 332.252 L 204.449 333.828 206.024 332.362 C 206.891 331.556,207.600 330.847,207.600 330.787 C 207.600 330.506,207.277 330.787,205.914 332.252 " stroke="none" fill="#948ca4" fill-rule="evenodd"></path></g></svg>